<svg width="537" height="400" viewBox="0 0 537 400" fill="none" xmlns="http://www.w3.org/2000/svg">
<path d="M537 351.514H0V351.782H537V351.514Z" fill="#7EE49B"/>
<path d="M483.193 368.789H447.622V369.057H483.193V368.789Z" fill="#7EE49B"/>
<path d="M355.73 371.709H346.397V371.978H355.73V371.709Z" fill="#7EE49B"/>
<path d="M446.548 358.825H425.938V359.094H446.548V358.825Z" fill="#7EE49B"/>
<path d="M102.728 360.629H56.342V360.898H102.728V360.629Z" fill="#7EE49B"/>
<path d="M119.096 360.629H112.297V360.898H119.096V360.629Z" fill="#7EE49B"/>
<path d="M241.811 365.16H141.199V365.428H241.811V365.16Z" fill="#7EE49B"/>
<path d="M254.538 303.629H47.1594C45.5348 303.626 43.9777 302.979 42.83 301.83C41.6822 300.68 41.0376 299.122 41.0376 297.498V6.07687C41.0517 4.46213 41.7026 2.91816 42.8488 1.78035C43.9951 0.642536 45.5441 0.00276615 47.1594 0H254.538C256.165 0 257.724 0.645896 258.874 1.7956C260.025 2.9453 260.671 4.50463 260.671 6.13056V297.498C260.671 299.124 260.025 300.684 258.874 301.833C257.724 302.983 256.165 303.629 254.538 303.629ZM47.1594 0.214731C45.606 0.217575 44.1172 0.836445 43.0198 1.9355C41.9224 3.03456 41.3061 4.524 41.3061 6.07687V297.498C41.3061 299.051 41.9224 300.541 43.0198 301.64C44.1172 302.739 45.606 303.358 47.1594 303.361H254.538C256.092 303.358 257.582 302.739 258.681 301.64C259.781 300.542 260.399 299.052 260.402 297.498V6.07687C260.399 4.52301 259.781 3.0336 258.681 1.93485C257.582 0.836097 256.092 0.217569 254.538 0.214731H47.1594Z" fill="#7EE49B"/>
<path d="M486.855 303.629H279.466C277.84 303.626 276.282 302.979 275.132 301.83C273.983 300.681 273.336 299.123 273.333 297.498V6.07687C273.35 4.46115 274.003 2.9172 275.151 1.77968C276.299 0.642161 277.849 0.00273598 279.466 0H486.855C488.468 0.00558782 490.015 0.646606 491.159 1.78412C492.302 2.92163 492.952 4.46398 492.966 6.07687V297.498C492.966 299.121 492.323 300.677 491.177 301.826C490.032 302.975 488.478 303.623 486.855 303.629ZM279.466 0.214731C277.911 0.217569 276.421 0.836097 275.322 1.93485C274.223 3.0336 273.604 4.52301 273.602 6.07687V297.498C273.604 299.052 274.223 300.542 275.322 301.64C276.421 302.739 277.911 303.358 279.466 303.361H486.855C488.409 303.358 489.899 302.739 490.998 301.64C492.097 300.542 492.716 299.052 492.719 297.498V6.07687C492.716 4.52301 492.097 3.0336 490.998 1.93485C489.899 0.836097 488.409 0.217569 486.855 0.214731H279.466Z" fill="#7EE49B"/>
<path d="M219.74 103.618H183.901V128.022H219.74V103.618Z" fill="#E6E6E6"/>
<path d="M234.54 111.799H206.315V131.007H234.54V111.799Z" fill="#7EE49B"/>
<path d="M162.485 131.039C166.608 131.039 169.95 127.699 169.95 123.577C169.95 119.456 166.608 116.116 162.485 116.116C158.363 116.116 155.021 119.456 155.021 123.577C155.021 127.699 158.363 131.039 162.485 131.039Z" fill="#E6E6E6"/>
<path d="M125.28 93.8109L124.251 94.1188L133.481 124.933L134.51 124.625L125.28 93.8109Z" fill="#D7EDDD"/>
<path d="M136.416 92.3828L125.99 124.613L127.012 124.944L137.437 92.7132L136.416 92.3828Z" fill="#D7EDDD"/>
<path d="M129.918 89.9818L128.846 90.0361L130.668 126L131.74 125.946L129.918 89.9818Z" fill="#D7EDDD"/>
<path d="M138.256 112.379H124.154V129.407H138.256V112.379Z" fill="#7EE49B"/>
<path d="M73.9878 351.696H250.682L250.682 128.022L73.9878 128.022L73.9878 351.696Z" fill="#F0F0F0"/>
<path d="M80.2278 184.003L244.432 184.003V136.171L80.2278 136.171V184.003Z" fill="#D7EDDD"/>
<path d="M235.109 184.003H244.432V143.912H235.109V184.003Z" fill="#7EE49B"/>
<path d="M189.991 184.003H199.324V143.912H189.991V184.003Z" fill="#7EE49B"/>
<path d="M131.985 182.404L141.182 183.989L147.994 144.482L138.797 142.897L131.985 182.404Z" fill="#7EE49B"/>
<path d="M223.542 184.003H232.875V149.195H223.542V184.003Z" fill="#7EE49B"/>
<path d="M202.095 184.003H211.428V149.195H202.095V184.003Z" fill="#7EE49B"/>
<path d="M147.976 184.003H157.309V149.195H147.976V184.003Z" fill="#7EE49B"/>
<path d="M170.2 181.964L179.311 183.988L186.865 150.009L177.754 147.985L170.2 181.964Z" fill="#7EE49B"/>
<path d="M215.477 184.003H220.138V141.926H215.477V184.003Z" fill="#7EE49B"/>
<path d="M160.004 184.003H164.666V141.926H160.004V184.003Z" fill="#7EE49B"/>
<path d="M244.432 191.572H80.2279V239.403H244.432V191.572Z" fill="#D7EDDD"/>
<path d="M89.561 199.324H80.2279V239.414H89.561V199.324Z" fill="#7EE49B"/>
<path d="M134.658 199.324H125.325V239.414H134.658V199.324Z" fill="#7EE49B"/>
<path d="M185.873 198.308L176.676 199.893L183.488 239.4L192.685 237.815L185.873 198.308Z" fill="#7EE49B"/>
<path d="M101.117 204.606H91.7841V239.414H101.117V204.606Z" fill="#7EE49B"/>
<path d="M122.554 204.606H113.221V239.414H122.554V204.606Z" fill="#7EE49B"/>
<path d="M176.673 204.606H167.34V239.414H176.673V204.606Z" fill="#7EE49B"/>
<path d="M146.924 203.395L137.813 205.419L145.367 239.398L154.478 237.374L146.924 203.395Z" fill="#7EE49B"/>
<path d="M109.172 197.327H104.511V239.403H109.172V197.327Z" fill="#7EE49B"/>
<path d="M164.655 197.327H159.994V239.403H164.655V197.327Z" fill="#7EE49B"/>
<path d="M235.109 239.403H244.432V199.313H235.109V239.403Z" fill="#7EE49B"/>
<path d="M223.542 239.403H232.875V204.595H223.542V239.403Z" fill="#7EE49B"/>
<path d="M202.095 239.403H211.428V204.595H202.095V239.403Z" fill="#7EE49B"/>
<path d="M215.477 239.403H220.138V197.327H215.477V239.403Z" fill="#7EE49B"/>
<path d="M80.2278 294.804H244.432V246.972L80.2278 246.972V294.804Z" fill="#D7EDDD"/>
<path d="M140.844 294.804H150.177V254.713H140.844V294.804Z" fill="#7EE49B"/>
<path d="M82.8438 293.23L92.0413 294.815L98.8534 255.307L89.656 253.722L82.8438 293.23Z" fill="#7EE49B"/>
<path d="M174.396 294.804H183.729V259.996H174.396V294.804Z" fill="#7EE49B"/>
<path d="M152.959 294.804H162.292V259.996H152.959V294.804Z" fill="#7EE49B"/>
<path d="M98.8403 294.804H108.173V259.996H98.8403V294.804Z" fill="#7EE49B"/>
<path d="M121.053 292.782L130.164 294.806L137.718 260.827L128.607 258.803L121.053 292.782Z" fill="#7EE49B"/>
<path d="M166.341 294.814H171.002V252.738H166.341V294.814Z" fill="#7EE49B"/>
<path d="M110.858 294.814H115.519V252.738H110.858V294.814Z" fill="#7EE49B"/>
<path d="M190.16 293.227L199.358 294.811L206.17 255.304L196.972 253.719L190.16 293.227Z" fill="#7EE49B"/>
<path d="M206.154 294.804H215.487V259.996H206.154V294.804Z" fill="#7EE49B"/>
<path d="M228.378 292.784L237.489 294.808L245.043 260.83L235.932 258.805L228.378 292.784Z" fill="#7EE49B"/>
<path d="M218.172 294.814H222.833V252.738H218.172V294.814Z" fill="#7EE49B"/>
<path d="M101.343 97.0904C101.343 97.0904 106.594 90.8418 109.935 93.7514C113.275 96.661 111.589 102.845 107.711 103.049C105.4 103.182 103.116 102.49 101.267 101.095L101.343 97.0904Z" fill="#7EE49B"/>
<path d="M79.9271 81.2433C79.9271 81.2433 75.5129 76.6266 72.785 77.4103C70.057 78.1941 70.3362 89.2205 78.7994 84.7541L79.9271 81.2433Z" fill="#F0F0F0"/>
<path d="M95.6719 115.697C95.6719 115.697 110.16 95.8772 98.3999 91.8617C86.6396 87.8463 84.5453 107.805 87.9069 113.335C91.2685 118.864 95.6719 115.697 95.6719 115.697Z" fill="#F0F0F0"/>
<path d="M88.9487 75.1557C88.9487 75.1557 79.9593 54.2946 93.2447 53.6826C106.53 53.0707 108.012 74.3719 92.6862 77.464L88.9487 75.1557Z" fill="#F0F0F0"/>
<path d="M92.1385 92.2053C92.1385 92.2053 96.5097 73.7814 88.111 72.3105C79.7123 70.8396 71.421 87.4919 88.7984 95.8557C88.7984 95.8557 91.7733 94.009 92.1385 92.2053Z" fill="#7EE49B"/>
<path d="M106.101 112.884H81.7744L83.8043 128.441H104.071L106.101 112.884Z" fill="#D7EDDD"/>
<path d="M93.438 73.6311C97.0896 69.7981 100.204 64.6876 99.4202 59.2227C99.3924 58.8345 99.3277 58.4498 99.2268 58.0739C98.518 55.1857 100.301 60.3822 100.065 61.5203C100.065 66.341 97.197 70.8181 93.438 73.6311Z" fill="#D7EDDD"/>
<path d="M96.6599 55.7333C91.4296 57.6766 89.2279 63.2489 89.3353 68.4131C89.3353 69.1647 89.3997 69.9163 89.3353 70.6893C89.1849 69.9377 89.0775 69.1862 88.9379 68.4239C88.2827 63.0556 90.8174 56.8929 96.6062 55.7333H96.6599Z" fill="#D7EDDD"/>
<path d="M86.457 73.6311C84.6973 74.6168 83.3182 76.1629 82.5396 78.0231C81.7611 79.8833 81.6278 81.9505 82.161 83.8952C83.1927 86.7632 84.8426 89.3693 86.994 91.5289C87.6706 92.3019 88.3902 93.032 89.142 93.7514C87.4671 92.5316 85.9517 91.1068 84.6312 89.5104C82.839 87.5608 81.6525 85.1325 81.2159 82.5209C80.9259 78.8813 82.9557 74.8765 86.4785 73.6311H86.457Z" fill="#D7EDDD"/>
<path d="M88.9483 75.1557C88.6369 77.8076 88.0035 80.9642 89.3133 83.3691C90.0945 84.6406 90.5002 86.1071 90.4836 87.5993C90.5177 89.0461 90.3552 90.4909 90.0005 91.8939C90.0005 89.1561 90.2796 86.0855 88.7121 83.7342C87.3271 81.0715 88.0679 77.8506 88.9483 75.145V75.1557Z" fill="#D7EDDD"/>
<path d="M94.8664 93.7513C93.6528 94.6425 93.3628 96.2959 92.901 97.6487C91.7855 102.003 90.8893 106.41 90.216 110.855C90.1086 107.022 91.3759 95.7054 94.8342 93.7513H94.8664Z" fill="#D7EDDD"/>
<path d="M98.9798 94.3955C100.086 96.6547 100.507 99.1884 100.191 101.684C99.8738 104.179 98.8331 106.528 97.197 108.439C96.718 108.955 96.2087 109.443 95.6719 109.899C97.4939 107.808 98.7536 105.287 99.3324 102.575C99.9111 99.8629 99.7897 97.048 98.9798 94.3955Z" fill="#D7EDDD"/>
<path d="M76.501 83.4979C74.9974 84.1314 72.7742 83.3047 72.5165 81.5654C73.6492 82.5521 75.0246 83.2192 76.501 83.4979Z" fill="#D7EDDD"/>
<path d="M77.4032 80.4488C75.9533 79.8046 74.6967 79.0423 73.1072 79.665C74.1812 78.0331 76.6621 78.9671 77.4032 80.4488Z" fill="#D7EDDD"/>
<path d="M103.738 98.0137C104.565 96.1026 107.604 93.7191 109.376 95.8664C107.142 94.7928 105.467 96.8542 103.738 98.0137Z" fill="#D7EDDD"/>
<path d="M103.738 101.095C106.143 100.816 109.365 101.385 110.643 98.8727C110.354 101.986 105.972 101.922 103.738 101.095Z" fill="#D7EDDD"/>
<path d="M271.808 400C394.816 400 494.534 394.559 494.534 387.846C494.534 381.134 394.816 375.693 271.808 375.693C148.8 375.693 49.0818 381.134 49.0818 387.846C49.0818 394.559 148.8 400 271.808 400Z" fill="#CFFFDD"/>
<path d="M468.447 53.6182H298.765V213.635H468.447V53.6182Z" fill="#D46C4E"/>
<path opacity="0.7" d="M468.447 53.6182H298.765V213.635H468.447V53.6182Z" fill="white"/>
<path d="M468.447 56.6781H302.095V210.264H468.447V56.6781Z" fill="#263238"/>
<path opacity="0.2" d="M308.238 154.134V141.239H311.922V132.639H316.841V119.734H318.065V132.639H322.984V141.239H326.679V154.134H333.434V157.827H336.506V171.956H337.118V151.686H338.965V164.58H340.802V133.863H342.037V146.768H346.956V142.463H348.792V124.651H352.487V106.839H353.711V109.298H378.907V101.922H383.214V73.6633H385.051V101.922H391.194V109.298H393.653V146.156H406.563V135.098H402.256V133.251H406.563V130.18H418.849V101.922H421.921V97.6165H436.667V101.922H438.514V141.239H445.27V159.051H448.964V144.922H452.036V141.239H458.791V128.334H462.475V119.734H466.782V106.839H468.447V210.264H302.095V154.134H308.238Z" fill="white"/>
<g opacity="0.2">
<path d="M369.498 111.22H367.759V112.959H369.498V111.22Z" fill="white"/>
<path d="M369.498 114.14H367.759V115.879H369.498V114.14Z" fill="white"/>
<path d="M369.498 125.811H367.759V127.55H369.498V125.811Z" fill="white"/>
<path d="M369.498 128.731H367.759V130.47H369.498V128.731Z" fill="white"/>
<path d="M369.498 131.641H367.759V133.38H369.498V131.641Z" fill="white"/>
<path d="M369.498 140.402H367.759V142.141H369.498V140.402Z" fill="white"/>
<path d="M369.498 143.322H367.759V145.061H369.498V143.322Z" fill="white"/>
<path d="M372.259 122.89H370.519V124.63H372.259V122.89Z" fill="white"/>
<path d="M372.259 125.811H370.519V127.55H372.259V125.811Z" fill="white"/>
<path d="M372.259 128.731H370.519V130.47H372.259V128.731Z" fill="white"/>
<path d="M372.259 131.641H370.519V133.38H372.259V131.641Z" fill="white"/>
<path d="M372.259 134.561H370.519V136.3H372.259V134.561Z" fill="white"/>
<path d="M372.259 140.402H370.519V142.141H372.259V140.402Z" fill="white"/>
<path d="M372.259 143.322H370.519V145.061H372.259V143.322Z" fill="white"/>
<path d="M375.03 111.22H373.29V112.959H375.03V111.22Z" fill="white"/>
<path d="M375.03 114.14H373.29V115.879H375.03V114.14Z" fill="white"/>
<path d="M375.03 117.06H373.29V118.8H375.03V117.06Z" fill="white"/>
<path d="M375.03 119.97H373.29V121.709H375.03V119.97Z" fill="white"/>
<path d="M375.03 122.89H373.29V124.63H375.03V122.89Z" fill="white"/>
<path d="M375.03 125.811H373.29V127.55H375.03V125.811Z" fill="white"/>
<path d="M375.03 128.731H373.29V130.47H375.03V128.731Z" fill="white"/>
<path d="M375.03 131.641H373.29V133.38H375.03V131.641Z" fill="white"/>
<path d="M375.03 134.561H373.29V136.3H375.03V134.561Z" fill="white"/>
<path d="M375.03 137.481H373.29V139.22H375.03V137.481Z" fill="white"/>
<path d="M375.03 143.322H373.29V145.061H375.03V143.322Z" fill="white"/>
<path d="M377.79 111.22H376.05V112.959H377.79V111.22Z" fill="white"/>
<path d="M377.79 114.14H376.05V115.879H377.79V114.14Z" fill="white"/>
<path d="M377.79 117.06H376.05V118.8H377.79V117.06Z" fill="white"/>
<path d="M377.79 119.97H376.05V121.709H377.79V119.97Z" fill="white"/>
<path d="M377.79 122.89H376.05V124.63H377.79V122.89Z" fill="white"/>
<path d="M377.79 125.811H376.05V127.55H377.79V125.811Z" fill="white"/>
<path d="M377.79 128.731H376.05V130.47H377.79V128.731Z" fill="white"/>
<path d="M377.79 154.992H376.05V156.732H377.79V154.992Z" fill="white"/>
<path d="M380.561 111.22H378.821V112.959H380.561V111.22Z" fill="white"/>
<path d="M380.561 114.14H378.821V115.879H380.561V114.14Z" fill="white"/>
<path d="M380.561 117.06H378.821V118.8H380.561V117.06Z" fill="white"/>
<path d="M380.561 119.97H378.821V121.709H380.561V119.97Z" fill="white"/>
<path d="M380.561 122.89H378.821V124.63H380.561V122.89Z" fill="white"/>
<path d="M380.561 125.811H378.821V127.55H380.561V125.811Z" fill="white"/>
<path d="M380.561 128.731H378.821V130.47H380.561V128.731Z" fill="white"/>
<path d="M380.561 131.641H378.821V133.38H380.561V131.641Z" fill="white"/>
<path d="M380.561 149.152H378.821V150.891H380.561V149.152Z" fill="white"/>
<path d="M380.561 152.072H378.821V153.811H380.561V152.072Z" fill="white"/>
<path d="M380.561 154.992H378.821V156.732H380.561V154.992Z" fill="white"/>
<path d="M380.561 157.902H378.821V159.641H380.561V157.902Z" fill="white"/>
<path d="M380.561 169.583H378.821V171.323H380.561V169.583Z" fill="white"/>
<path d="M383.321 111.22H381.582V112.959H383.321V111.22Z" fill="white"/>
<path d="M383.321 114.14H381.582V115.879H383.321V114.14Z" fill="white"/>
<path d="M383.321 117.06H381.582V118.8H383.321V117.06Z" fill="white"/>
<path d="M383.321 119.97H381.582V121.709H383.321V119.97Z" fill="white"/>
<path d="M383.321 122.89H381.582V124.63H383.321V122.89Z" fill="white"/>
<path d="M383.321 125.811H381.582V127.55H383.321V125.811Z" fill="white"/>
<path d="M383.321 128.731H381.582V130.47H383.321V128.731Z" fill="white"/>
<path d="M383.321 131.641H381.582V133.38H383.321V131.641Z" fill="white"/>
<path d="M383.321 134.561H381.582V136.3H383.321V134.561Z" fill="white"/>
<path d="M383.321 137.481H381.582V139.22H383.321V137.481Z" fill="white"/>
<path d="M383.321 146.231H381.582V147.971H383.321V146.231Z" fill="white"/>
<path d="M383.321 149.152H381.582V150.891H383.321V149.152Z" fill="white"/>
<path d="M383.321 152.072H381.582V153.811H383.321V152.072Z" fill="white"/>
<path d="M383.321 154.992H381.582V156.732H383.321V154.992Z" fill="white"/>
<path d="M383.321 157.902H381.582V159.641H383.321V157.902Z" fill="white"/>
<path d="M383.321 169.583H381.582V171.323H383.321V169.583Z" fill="white"/>
<path d="M386.092 111.22H384.352V112.959H386.092V111.22Z" fill="white"/>
<path d="M386.092 114.14H384.352V115.879H386.092V114.14Z" fill="white"/>
<path d="M386.092 117.06H384.352V118.8H386.092V117.06Z" fill="white"/>
<path d="M386.092 119.97H384.352V121.709H386.092V119.97Z" fill="white"/>
<path d="M386.092 122.89H384.352V124.63H386.092V122.89Z" fill="white"/>
<path d="M386.092 125.811H384.352V127.55H386.092V125.811Z" fill="white"/>
<path d="M386.092 128.731H384.352V130.47H386.092V128.731Z" fill="white"/>
<path d="M386.092 131.641H384.352V133.38H386.092V131.641Z" fill="white"/>
<path d="M386.092 134.561H384.352V136.3H386.092V134.561Z" fill="white"/>
<path d="M386.092 137.481H384.352V139.22H386.092V137.481Z" fill="white"/>
<path d="M386.092 140.402H384.352V142.141H386.092V140.402Z" fill="white"/>
<path d="M386.092 143.322H384.352V145.061H386.092V143.322Z" fill="white"/>
<path d="M386.092 146.231H384.352V147.971H386.092V146.231Z" fill="white"/>
<path d="M386.092 149.152H384.352V150.891H386.092V149.152Z" fill="white"/>
<path d="M386.092 152.072H384.352V153.811H386.092V152.072Z" fill="white"/>
<path d="M386.092 154.992H384.352V156.732H386.092V154.992Z" fill="white"/>
<path d="M386.092 157.902H384.352V159.641H386.092V157.902Z" fill="white"/>
<path d="M386.092 160.822H384.352V162.562H386.092V160.822Z" fill="white"/>
<path d="M388.852 111.22H387.113V112.959H388.852V111.22Z" fill="white"/>
<path d="M388.852 114.14H387.113V115.879H388.852V114.14Z" fill="white"/>
<path d="M388.852 117.06H387.113V118.8H388.852V117.06Z" fill="white"/>
<path d="M388.852 119.97H387.113V121.709H388.852V119.97Z" fill="white"/>
<path d="M388.852 122.89H387.113V124.63H388.852V122.89Z" fill="white"/>
<path d="M388.852 125.811H387.113V127.55H388.852V125.811Z" fill="white"/>
<path d="M388.852 128.731H387.113V130.47H388.852V128.731Z" fill="white"/>
<path d="M388.852 131.641H387.113V133.38H388.852V131.641Z" fill="white"/>
<path d="M388.852 134.561H387.113V136.3H388.852V134.561Z" fill="white"/>
<path d="M388.852 137.481H387.113V139.22H388.852V137.481Z" fill="white"/>
<path d="M388.852 146.231H387.113V147.971H388.852V146.231Z" fill="white"/>
<path d="M388.852 149.152H387.113V150.891H388.852V149.152Z" fill="white"/>
<path d="M388.852 152.072H387.113V153.811H388.852V152.072Z" fill="white"/>
<path d="M388.852 154.992H387.113V156.732H388.852V154.992Z" fill="white"/>
<path d="M391.623 111.22H389.884V112.959H391.623V111.22Z" fill="white"/>
<path d="M391.623 114.14H389.884V115.879H391.623V114.14Z" fill="white"/>
<path d="M391.623 117.06H389.884V118.8H391.623V117.06Z" fill="white"/>
<path d="M391.623 119.97H389.884V121.709H391.623V119.97Z" fill="white"/>
<path d="M391.623 122.89H389.884V124.63H391.623V122.89Z" fill="white"/>
<path d="M391.623 125.811H389.884V127.55H391.623V125.811Z" fill="white"/>
<path d="M391.623 128.731H389.884V130.47H391.623V128.731Z" fill="white"/>
<path d="M391.623 131.641H389.884V133.38H391.623V131.641Z" fill="white"/>
<path d="M391.623 134.561H389.884V136.3H391.623V134.561Z" fill="white"/>
<path d="M391.623 137.481H389.884V139.22H391.623V137.481Z" fill="white"/>
<path d="M391.623 146.231H389.884V147.971H391.623V146.231Z" fill="white"/>
<path d="M391.623 149.152H389.884V150.891H391.623V149.152Z" fill="white"/>
<path d="M391.623 152.072H389.884V153.811H391.623V152.072Z" fill="white"/>
<path d="M422.758 103.64H421.019V105.379H422.758V103.64Z" fill="white"/>
<path d="M422.758 106.56H421.019V108.299H422.758V106.56Z" fill="white"/>
<path d="M422.758 109.48H421.019V111.22H422.758V109.48Z" fill="white"/>
<path d="M422.758 112.401H421.019V114.14H422.758V112.401Z" fill="white"/>
<path d="M422.758 115.31H421.019V117.05H422.758V115.31Z" fill="white"/>
<path d="M422.758 118.231H421.019V119.97H422.758V118.231Z" fill="white"/>
<path d="M422.758 121.151H421.019V122.89H422.758V121.151Z" fill="white"/>
<path d="M422.758 124.071H421.019V125.811H422.758V124.071Z" fill="white"/>
<path d="M422.758 132.822H421.019V134.561H422.758V132.822Z" fill="white"/>
<path d="M422.758 135.742H421.019V137.481H422.758V135.742Z" fill="white"/>
<path d="M425.518 103.64H423.779V105.379H425.518V103.64Z" fill="white"/>
<path d="M425.518 106.56H423.779V108.299H425.518V106.56Z" fill="white"/>
<path d="M425.518 109.48H423.779V111.22H425.518V109.48Z" fill="white"/>
<path d="M425.518 112.401H423.779V114.14H425.518V112.401Z" fill="white"/>
<path d="M425.518 115.31H423.779V117.05H425.518V115.31Z" fill="white"/>
<path d="M425.518 118.231H423.779V119.97H425.518V118.231Z" fill="white"/>
<path d="M425.518 121.151H423.779V122.89H425.518V121.151Z" fill="white"/>
<path d="M425.518 124.071H423.779V125.811H425.518V124.071Z" fill="white"/>
<path d="M425.518 135.742H423.779V137.481H425.518V135.742Z" fill="white"/>
<path d="M428.278 103.64H426.539V105.379H428.278V103.64Z" fill="white"/>
<path d="M428.278 106.56H426.539V108.299H428.278V106.56Z" fill="white"/>
<path d="M428.278 109.48H426.539V111.22H428.278V109.48Z" fill="white"/>
<path d="M428.278 112.401H426.539V114.14H428.278V112.401Z" fill="white"/>
<path d="M428.278 115.31H426.539V117.05H428.278V115.31Z" fill="white"/>
<path d="M428.278 118.231H426.539V119.97H428.278V118.231Z" fill="white"/>
<path d="M428.278 121.151H426.539V122.89H428.278V121.151Z" fill="white"/>
<path d="M428.278 124.071H426.539V125.811H428.278V124.071Z" fill="white"/>
<path d="M431.049 103.64H429.31V105.379H431.049V103.64Z" fill="white"/>
<path d="M431.049 106.56H429.31V108.299H431.049V106.56Z" fill="white"/>
<path d="M431.049 109.48H429.31V111.22H431.049V109.48Z" fill="white"/>
<path d="M431.049 112.401H429.31V114.14H431.049V112.401Z" fill="white"/>
<path d="M431.049 115.31H429.31V117.05H431.049V115.31Z" fill="white"/>
<path d="M431.049 118.231H429.31V119.97H431.049V118.231Z" fill="white"/>
<path d="M431.049 124.071H429.31V125.811H431.049V124.071Z" fill="white"/>
<path d="M431.049 126.992H429.31V128.731H431.049V126.992Z" fill="white"/>
<path d="M431.049 135.742H429.31V137.481H431.049V135.742Z" fill="white"/>
<path d="M431.049 138.662H429.31V140.402H431.049V138.662Z" fill="white"/>
<path d="M431.049 141.572H429.31V143.311H431.049V141.572Z" fill="white"/>
<path d="M431.049 144.492H429.31V146.231H431.049V144.492Z" fill="white"/>
<path d="M431.049 147.412H429.31V149.152H431.049V147.412Z" fill="white"/>
<path d="M431.049 150.333H429.31V152.072H431.049V150.333Z" fill="white"/>
<path d="M431.049 153.253H429.31V154.992H431.049V153.253Z" fill="white"/>
<path d="M433.81 103.64H432.07V105.379H433.81V103.64Z" fill="white"/>
<path d="M433.81 106.56H432.07V108.299H433.81V106.56Z" fill="white"/>
<path d="M433.81 109.48H432.07V111.22H433.81V109.48Z" fill="white"/>
<path d="M433.81 112.401H432.07V114.14H433.81V112.401Z" fill="white"/>
<path d="M433.81 115.31H432.07V117.05H433.81V115.31Z" fill="white"/>
<path d="M433.81 118.231H432.07V119.97H433.81V118.231Z" fill="white"/>
<path d="M433.81 126.992H432.07V128.731H433.81V126.992Z" fill="white"/>
<path d="M433.81 129.901H432.07V131.641H433.81V129.901Z" fill="white"/>
<path d="M433.81 132.822H432.07V134.561H433.81V132.822Z" fill="white"/>
<path d="M433.81 135.742H432.07V137.481H433.81V135.742Z" fill="white"/>
<path d="M433.81 138.662H432.07V140.402H433.81V138.662Z" fill="white"/>
<path d="M433.81 141.572H432.07V143.311H433.81V141.572Z" fill="white"/>
<path d="M433.81 144.492H432.07V146.231H433.81V144.492Z" fill="white"/>
<path d="M433.81 147.412H432.07V149.152H433.81V147.412Z" fill="white"/>
<path d="M433.81 150.333H432.07V152.072H433.81V150.333Z" fill="white"/>
<path d="M433.81 153.253H432.07V154.992H433.81V153.253Z" fill="white"/>
<path d="M433.81 156.163H432.07V157.902H433.81V156.163Z" fill="white"/>
<path d="M433.81 162.003H432.07V163.743H433.81V162.003Z" fill="white"/>
<path d="M436.58 103.64H434.841V105.379H436.58V103.64Z" fill="white"/>
<path d="M436.58 106.56H434.841V108.299H436.58V106.56Z" fill="white"/>
<path d="M436.58 109.48H434.841V111.22H436.58V109.48Z" fill="white"/>
<path d="M436.58 112.401H434.841V114.14H436.58V112.401Z" fill="white"/>
<path d="M436.58 115.31H434.841V117.05H436.58V115.31Z" fill="white"/>
<path d="M436.58 118.231H434.841V119.97H436.58V118.231Z" fill="white"/>
<path d="M436.58 126.992H434.841V128.731H436.58V126.992Z" fill="white"/>
<path d="M436.58 129.901H434.841V131.641H436.58V129.901Z" fill="white"/>
<path d="M436.58 132.822H434.841V134.561H436.58V132.822Z" fill="white"/>
<path d="M436.58 135.742H434.841V137.481H436.58V135.742Z" fill="white"/>
<path d="M436.58 144.492H434.841V146.231H436.58V144.492Z" fill="white"/>
<path d="M436.58 147.412H434.841V149.152H436.58V147.412Z" fill="white"/>
<path d="M436.58 150.333H434.841V152.072H436.58V150.333Z" fill="white"/>
<path d="M436.58 153.253H434.841V154.992H436.58V153.253Z" fill="white"/>
<path d="M436.58 156.163H434.841V157.902H436.58V156.163Z" fill="white"/>
<path d="M436.58 162.003H434.841V163.743H436.58V162.003Z" fill="white"/>
<path d="M436.58 164.924H434.841V166.663H436.58V164.924Z" fill="white"/>
<path d="M461.669 130.771H459.93V132.51H461.669V130.771Z" fill="white"/>
<path d="M461.669 133.691H459.93V135.431H461.669V133.691Z" fill="white"/>
<path d="M461.669 136.612H459.93V138.351H461.669V136.612Z" fill="white"/>
<path d="M461.669 139.532H459.93V141.271H461.669V139.532Z" fill="white"/>
<path d="M461.669 142.441H459.93V144.181H461.669V142.441Z" fill="white"/>
<path d="M461.669 145.362H459.93V147.101H461.669V145.362Z" fill="white"/>
<path d="M461.669 148.282H459.93V150.021H461.669V148.282Z" fill="white"/>
<path d="M461.669 157.032H459.93V158.772H461.669V157.032Z" fill="white"/>
<path d="M461.669 159.953H459.93V161.692H461.669V159.953Z" fill="white"/>
<path d="M461.669 162.873H459.93V164.612H461.669V162.873Z" fill="white"/>
<path d="M464.44 130.771H462.701V132.51H464.44V130.771Z" fill="white"/>
<path d="M464.44 133.691H462.701V135.431H464.44V133.691Z" fill="white"/>
<path d="M464.44 136.612H462.701V138.351H464.44V136.612Z" fill="white"/>
<path d="M464.44 139.532H462.701V141.271H464.44V139.532Z" fill="white"/>
<path d="M464.44 142.441H462.701V144.181H464.44V142.441Z" fill="white"/>
<path d="M464.44 145.362H462.701V147.101H464.44V145.362Z" fill="white"/>
<path d="M464.44 148.282H462.701V150.021H464.44V148.282Z" fill="white"/>
<path d="M467.963 130.771H465.461V132.51H467.963V130.771Z" fill="white"/>
<path d="M467.963 133.691H465.461V135.431H467.963V133.691Z" fill="white"/>
<path d="M467.963 136.612H465.461V138.351H467.963V136.612Z" fill="white"/>
<path d="M467.963 139.532H465.461V141.271H467.963V139.532Z" fill="white"/>
<path d="M467.963 142.441H465.461V144.181H467.963V142.441Z" fill="white"/>
<path d="M467.963 145.362H465.461V147.101H467.963V145.362Z" fill="white"/>
<path d="M467.963 148.282H465.461V150.021H467.963V148.282Z" fill="white"/>
<path d="M315.111 134.561H313.372V136.3H315.111V134.561Z" fill="white"/>
<path d="M315.111 137.481H313.372V139.22H315.111V137.481Z" fill="white"/>
<path d="M315.111 140.402H313.372V142.141H315.111V140.402Z" fill="white"/>
<path d="M315.111 143.322H313.372V145.061H315.111V143.322Z" fill="white"/>
<path d="M315.111 146.231H313.372V147.971H315.111V146.231Z" fill="white"/>
<path d="M315.111 149.152H313.372V150.891H315.111V149.152Z" fill="white"/>
<path d="M315.111 152.072H313.372V153.811H315.111V152.072Z" fill="white"/>
<path d="M315.111 154.992H313.372V156.732H315.111V154.992Z" fill="white"/>
<path d="M315.111 157.902H313.372V159.641H315.111V157.902Z" fill="white"/>
<path d="M315.111 160.822H313.372V162.562H315.111V160.822Z" fill="white"/>
<path d="M315.111 163.743H313.372V165.482H315.111V163.743Z" fill="white"/>
<path d="M315.111 166.663H313.372V168.402H315.111V166.663Z" fill="white"/>
<path d="M315.111 169.583H313.372V171.323H315.111V169.583Z" fill="white"/>
<path d="M315.111 172.493H313.372V174.232H315.111V172.493Z" fill="white"/>
<path d="M315.111 175.413H313.372V177.153H315.111V175.413Z" fill="white"/>
<path d="M315.111 178.334H313.372V180.073H315.111V178.334Z" fill="white"/>
<path d="M315.111 181.254H313.372V182.993H315.111V181.254Z" fill="white"/>
<path d="M315.111 184.164H313.372V185.903H315.111V184.164Z" fill="white"/>
<path d="M315.111 187.084H313.372V188.823H315.111V187.084Z" fill="white"/>
<path d="M315.111 190.004H313.372V191.744H315.111V190.004Z" fill="white"/>
<path d="M317.882 134.561H316.143V136.3H317.882V134.561Z" fill="white"/>
<path d="M317.882 137.481H316.143V139.22H317.882V137.481Z" fill="white"/>
<path d="M317.882 140.402H316.143V142.141H317.882V140.402Z" fill="white"/>
<path d="M317.882 143.322H316.143V145.061H317.882V143.322Z" fill="white"/>
<path d="M317.882 146.231H316.143V147.971H317.882V146.231Z" fill="white"/>
<path d="M317.882 149.152H316.143V150.891H317.882V149.152Z" fill="white"/>
<path d="M317.882 152.072H316.143V153.811H317.882V152.072Z" fill="white"/>
<path d="M317.882 154.992H316.143V156.732H317.882V154.992Z" fill="white"/>
<path d="M317.882 157.902H316.143V159.641H317.882V157.902Z" fill="white"/>
<path d="M317.882 160.822H316.143V162.562H317.882V160.822Z" fill="white"/>
<path d="M317.882 163.743H316.143V165.482H317.882V163.743Z" fill="white"/>
<path d="M317.882 166.663H316.143V168.402H317.882V166.663Z" fill="white"/>
<path d="M317.882 169.583H316.143V171.323H317.882V169.583Z" fill="white"/>
<path d="M317.882 172.493H316.143V174.232H317.882V172.493Z" fill="white"/>
<path d="M317.882 175.413H316.143V177.153H317.882V175.413Z" fill="white"/>
<path d="M317.882 178.334H316.143V180.073H317.882V178.334Z" fill="white"/>
<path d="M317.882 181.254H316.143V182.993H317.882V181.254Z" fill="white"/>
<path d="M317.882 184.164H316.143V185.903H317.882V184.164Z" fill="white"/>
<path d="M320.642 134.561H318.903V136.3H320.642V134.561Z" fill="white"/>
<path d="M320.642 137.481H318.903V139.22H320.642V137.481Z" fill="white"/>
<path d="M320.642 140.402H318.903V142.141H320.642V140.402Z" fill="white"/>
<path d="M320.642 143.322H318.903V145.061H320.642V143.322Z" fill="white"/>
<path d="M320.642 146.231H318.903V147.971H320.642V146.231Z" fill="white"/>
<path d="M320.642 149.152H318.903V150.891H320.642V149.152Z" fill="white"/>
<path d="M320.642 152.072H318.903V153.811H320.642V152.072Z" fill="white"/>
<path d="M320.642 154.992H318.903V156.732H320.642V154.992Z" fill="white"/>
<path d="M320.642 157.902H318.903V159.641H320.642V157.902Z" fill="white"/>
<path d="M320.642 160.822H318.903V162.562H320.642V160.822Z" fill="white"/>
<path d="M320.642 163.743H318.903V165.482H320.642V163.743Z" fill="white"/>
<path d="M320.642 166.663H318.903V168.402H320.642V166.663Z" fill="white"/>
<path d="M320.642 169.583H318.903V171.323H320.642V169.583Z" fill="white"/>
<path d="M320.642 172.493H318.903V174.232H320.642V172.493Z" fill="white"/>
<path d="M320.642 175.413H318.903V177.153H320.642V175.413Z" fill="white"/>
<path d="M320.642 178.334H318.903V180.073H320.642V178.334Z" fill="white"/>
<path d="M320.642 181.254H318.903V182.993H320.642V181.254Z" fill="white"/>
<path d="M320.642 184.164H318.903V185.903H320.642V184.164Z" fill="white"/>
<path d="M304.768 155.862H303.029V157.601H304.768V155.862Z" fill="white"/>
<path d="M304.768 158.772H303.029V160.511H304.768V158.772Z" fill="white"/>
<path d="M304.768 161.692H303.029V163.431H304.768V161.692Z" fill="white"/>
<path d="M304.768 164.612H303.029V166.352H304.768V164.612Z" fill="white"/>
<path d="M304.768 167.533H303.029V169.272H304.768V167.533Z" fill="white"/>
<path d="M304.768 170.453H303.029V172.192H304.768V170.453Z" fill="white"/>
<path d="M304.768 173.363H303.029V175.102H304.768V173.363Z" fill="white"/>
<path d="M304.768 176.283H303.029V178.022H304.768V176.283Z" fill="white"/>
<path d="M304.768 179.203H303.029V180.943H304.768V179.203Z" fill="white"/>
<path d="M304.768 182.124H303.029V183.863H304.768V182.124Z" fill="white"/>
<path d="M304.768 185.033H303.029V186.773H304.768V185.033Z" fill="white"/>
<path d="M304.768 187.954H303.029V189.693H304.768V187.954Z" fill="white"/>
<path d="M304.768 190.874H303.029V192.613H304.768V190.874Z" fill="white"/>
<path d="M307.529 155.862H305.789V157.601H307.529V155.862Z" fill="white"/>
<path d="M307.529 158.772H305.789V160.511H307.529V158.772Z" fill="white"/>
<path d="M307.529 161.692H305.789V163.431H307.529V161.692Z" fill="white"/>
<path d="M307.529 164.612H305.789V166.352H307.529V164.612Z" fill="white"/>
<path d="M307.529 167.533H305.789V169.272H307.529V167.533Z" fill="white"/>
<path d="M307.529 170.453H305.789V172.192H307.529V170.453Z" fill="white"/>
<path d="M307.529 173.363H305.789V175.102H307.529V173.363Z" fill="white"/>
<path d="M307.529 176.283H305.789V178.022H307.529V176.283Z" fill="white"/>
<path d="M307.529 179.203H305.789V180.943H307.529V179.203Z" fill="white"/>
<path d="M307.529 182.124H305.789V183.863H307.529V182.124Z" fill="white"/>
<path d="M307.529 185.033H305.789V186.773H307.529V185.033Z" fill="white"/>
<path d="M307.529 187.954H305.789V189.693H307.529V187.954Z" fill="white"/>
<path d="M307.529 190.874H305.789V192.613H307.529V190.874Z" fill="white"/>
<path d="M310.3 155.862H308.56V157.601H310.3V155.862Z" fill="white"/>
<path d="M310.3 158.772H308.56V160.511H310.3V158.772Z" fill="white"/>
<path d="M310.3 161.692H308.56V163.431H310.3V161.692Z" fill="white"/>
<path d="M310.3 164.612H308.56V166.352H310.3V164.612Z" fill="white"/>
<path d="M310.3 167.533H308.56V169.272H310.3V167.533Z" fill="white"/>
<path d="M310.3 170.453H308.56V172.192H310.3V170.453Z" fill="white"/>
<path d="M310.3 173.363H308.56V175.102H310.3V173.363Z" fill="white"/>
<path d="M310.3 176.283H308.56V178.022H310.3V176.283Z" fill="white"/>
<path d="M310.3 179.203H308.56V180.943H310.3V179.203Z" fill="white"/>
<path d="M310.3 182.124H308.56V183.863H310.3V182.124Z" fill="white"/>
<path d="M310.3 185.033H308.56V186.773H310.3V185.033Z" fill="white"/>
<path d="M310.3 187.954H308.56V189.693H310.3V187.954Z" fill="white"/>
<path d="M310.3 190.874H308.56V192.613H310.3V190.874Z" fill="white"/>
<path d="M310.3 193.794H308.56V195.534H310.3V193.794Z" fill="white"/>
<path d="M325.658 156.732H323.918V158.471H325.658V156.732Z" fill="white"/>
<path d="M325.658 159.652H323.918V161.391H325.658V159.652Z" fill="white"/>
<path d="M325.658 162.562H323.918V164.301H325.658V162.562Z" fill="white"/>
<path d="M325.658 165.482H323.918V167.221H325.658V165.482Z" fill="white"/>
<path d="M325.658 168.402H323.918V170.142H325.658V168.402Z" fill="white"/>
<path d="M325.658 171.323H323.918V173.062H325.658V171.323Z" fill="white"/>
<path d="M325.658 174.232H323.918V175.972H325.658V174.232Z" fill="white"/>
<path d="M325.658 177.153H323.918V178.892H325.658V177.153Z" fill="white"/>
<path d="M325.658 180.073H323.918V181.812H325.658V180.073Z" fill="white"/>
<path d="M325.658 182.993H323.918V184.733H325.658V182.993Z" fill="white"/>
<path d="M325.658 191.744H323.918V193.483H325.658V191.744Z" fill="white"/>
<path d="M328.429 156.732H326.689V158.471H328.429V156.732Z" fill="white"/>
<path d="M328.429 159.652H326.689V161.391H328.429V159.652Z" fill="white"/>
<path d="M328.429 162.562H326.689V164.301H328.429V162.562Z" fill="white"/>
<path d="M328.429 165.482H326.689V167.221H328.429V165.482Z" fill="white"/>
<path d="M328.429 168.402H326.689V170.142H328.429V168.402Z" fill="white"/>
<path d="M328.429 171.323H326.689V173.062H328.429V171.323Z" fill="white"/>
<path d="M328.429 174.232H326.689V175.972H328.429V174.232Z" fill="white"/>
<path d="M328.429 177.153H326.689V178.892H328.429V177.153Z" fill="white"/>
<path d="M328.429 180.073H326.689V181.812H328.429V180.073Z" fill="white"/>
<path d="M328.429 188.823H326.689V190.563H328.429V188.823Z" fill="white"/>
<path d="M328.429 191.744H326.689V193.483H328.429V191.744Z" fill="white"/>
<path d="M331.189 156.732H329.45V158.471H331.189V156.732Z" fill="white"/>
<path d="M331.189 159.652H329.45V161.391H331.189V159.652Z" fill="white"/>
<path d="M331.189 162.562H329.45V164.301H331.189V162.562Z" fill="white"/>
<path d="M331.189 165.482H329.45V167.221H331.189V165.482Z" fill="white"/>
<path d="M331.189 168.402H329.45V170.142H331.189V168.402Z" fill="white"/>
<path d="M331.189 171.323H329.45V173.062H331.189V171.323Z" fill="white"/>
<path d="M331.189 174.232H329.45V175.972H331.189V174.232Z" fill="white"/>
<path d="M331.189 177.153H329.45V178.892H331.189V177.153Z" fill="white"/>
<path d="M331.189 185.914H329.45V187.653H331.189V185.914Z" fill="white"/>
<path d="M331.189 188.823H329.45V190.563H331.189V188.823Z" fill="white"/>
<path d="M331.189 191.744H329.45V193.483H331.189V191.744Z" fill="white"/>
<path d="M356.9 112.401H355.161V114.14H356.9V112.401Z" fill="white"/>
<path d="M356.9 115.31H355.161V117.05H356.9V115.31Z" fill="white"/>
<path d="M356.9 118.231H355.161V119.97H356.9V118.231Z" fill="white"/>
<path d="M356.9 121.151H355.161V122.89H356.9V121.151Z" fill="white"/>
<path d="M356.9 124.071H355.161V125.811H356.9V124.071Z" fill="white"/>
<path d="M356.9 126.992H355.161V128.731H356.9V126.992Z" fill="white"/>
<path d="M356.9 129.901H355.161V131.641H356.9V129.901Z" fill="white"/>
<path d="M356.9 132.822H355.161V134.561H356.9V132.822Z" fill="white"/>
<path d="M356.9 135.742H355.161V137.481H356.9V135.742Z" fill="white"/>
<path d="M356.9 138.662H355.161V140.402H356.9V138.662Z" fill="white"/>
<path d="M356.9 141.572H355.161V143.311H356.9V141.572Z" fill="white"/>
<path d="M356.9 144.492H355.161V146.231H356.9V144.492Z" fill="white"/>
<path d="M356.9 147.412H355.161V149.152H356.9V147.412Z" fill="white"/>
<path d="M356.9 150.333H355.161V152.072H356.9V150.333Z" fill="white"/>
<path d="M356.9 153.253H355.161V154.992H356.9V153.253Z" fill="white"/>
<path d="M356.9 156.163H355.161V157.902H356.9V156.163Z" fill="white"/>
<path d="M356.9 159.083H355.161V160.822H356.9V159.083Z" fill="white"/>
<path d="M356.9 164.924H355.161V166.663H356.9V164.924Z" fill="white"/>
<path d="M356.9 167.833H355.161V169.573H356.9V167.833Z" fill="white"/>
<path d="M356.9 170.754H355.161V172.493H356.9V170.754Z" fill="white"/>
<path d="M356.9 173.674H355.161V175.413H356.9V173.674Z" fill="white"/>
<path d="M356.9 176.594H355.161V178.334H356.9V176.594Z" fill="white"/>
<path d="M359.661 112.401H357.921V114.14H359.661V112.401Z" fill="white"/>
<path d="M359.661 115.31H357.921V117.05H359.661V115.31Z" fill="white"/>
<path d="M359.661 118.231H357.921V119.97H359.661V118.231Z" fill="white"/>
<path d="M359.661 121.151H357.921V122.89H359.661V121.151Z" fill="white"/>
<path d="M359.661 124.071H357.921V125.811H359.661V124.071Z" fill="white"/>
<path d="M359.661 126.992H357.921V128.731H359.661V126.992Z" fill="white"/>
<path d="M359.661 129.901H357.921V131.641H359.661V129.901Z" fill="white"/>
<path d="M359.661 132.822H357.921V134.561H359.661V132.822Z" fill="white"/>
<path d="M359.661 135.742H357.921V137.481H359.661V135.742Z" fill="white"/>
<path d="M359.661 138.662H357.921V140.402H359.661V138.662Z" fill="white"/>
<path d="M359.661 141.572H357.921V143.311H359.661V141.572Z" fill="white"/>
<path d="M359.661 144.492H357.921V146.231H359.661V144.492Z" fill="white"/>
<path d="M359.661 147.412H357.921V149.152H359.661V147.412Z" fill="white"/>
<path d="M359.661 150.333H357.921V152.072H359.661V150.333Z" fill="white"/>
<path d="M359.661 153.253H357.921V154.992H359.661V153.253Z" fill="white"/>
<path d="M359.661 156.163H357.921V157.902H359.661V156.163Z" fill="white"/>
<path d="M359.661 173.674H357.921V175.413H359.661V173.674Z" fill="white"/>
<path d="M359.661 176.594H357.921V178.334H359.661V176.594Z" fill="white"/>
<path d="M362.431 112.401H360.692V114.14H362.431V112.401Z" fill="white"/>
<path d="M362.431 115.31H360.692V117.05H362.431V115.31Z" fill="white"/>
<path d="M362.431 118.231H360.692V119.97H362.431V118.231Z" fill="white"/>
<path d="M362.431 121.151H360.692V122.89H362.431V121.151Z" fill="white"/>
<path d="M362.431 124.071H360.692V125.811H362.431V124.071Z" fill="white"/>
<path d="M362.431 126.992H360.692V128.731H362.431V126.992Z" fill="white"/>
<path d="M362.431 129.901H360.692V131.641H362.431V129.901Z" fill="white"/>
<path d="M362.431 132.822H360.692V134.561H362.431V132.822Z" fill="white"/>
<path d="M362.431 135.742H360.692V137.481H362.431V135.742Z" fill="white"/>
<path d="M362.431 138.662H360.692V140.402H362.431V138.662Z" fill="white"/>
<path d="M362.431 141.572H360.692V143.311H362.431V141.572Z" fill="white"/>
<path d="M362.431 144.492H360.692V146.231H362.431V144.492Z" fill="white"/>
<path d="M362.431 147.412H360.692V149.152H362.431V147.412Z" fill="white"/>
<path d="M362.431 150.333H360.692V152.072H362.431V150.333Z" fill="white"/>
<path d="M362.431 153.253H360.692V154.992H362.431V153.253Z" fill="white"/>
<path d="M362.431 156.163H360.692V157.902H362.431V156.163Z" fill="white"/>
<path d="M362.431 162.003H360.692V163.743H362.431V162.003Z" fill="white"/>
<path d="M362.431 164.924H360.692V166.663H362.431V164.924Z" fill="white"/>
<path d="M362.431 167.833H360.692V169.573H362.431V167.833Z" fill="white"/>
<path d="M362.431 170.754H360.692V172.493H362.431V170.754Z" fill="white"/>
<path d="M362.431 176.594H360.692V178.334H362.431V176.594Z" fill="white"/>
<path d="M346.858 149.152H345.119V150.891H346.858V149.152Z" fill="white"/>
<path d="M346.858 152.072H345.119V153.811H346.858V152.072Z" fill="white"/>
<path d="M346.858 154.992H345.119V156.732H346.858V154.992Z" fill="white"/>
<path d="M346.858 157.902H345.119V159.641H346.858V157.902Z" fill="white"/>
<path d="M346.858 160.822H345.119V162.562H346.858V160.822Z" fill="white"/>
<path d="M346.858 163.743H345.119V165.482H346.858V163.743Z" fill="white"/>
<path d="M346.858 166.663H345.119V168.402H346.858V166.663Z" fill="white"/>
<path d="M346.858 172.493H345.119V174.232H346.858V172.493Z" fill="white"/>
<path d="M346.858 175.413H345.119V177.153H346.858V175.413Z" fill="white"/>
<path d="M346.858 178.334H345.119V180.073H346.858V178.334Z" fill="white"/>
<path d="M346.858 181.254H345.119V182.993H346.858V181.254Z" fill="white"/>
<path d="M346.858 184.164H345.119V185.903H346.858V184.164Z" fill="white"/>
<path d="M346.858 187.084H345.119V188.823H346.858V187.084Z" fill="white"/>
<path d="M346.858 190.004H345.119V191.744H346.858V190.004Z" fill="white"/>
<path d="M346.858 192.925H345.119V194.664H346.858V192.925Z" fill="white"/>
<path d="M349.629 149.152H347.89V150.891H349.629V149.152Z" fill="white"/>
<path d="M349.629 152.072H347.89V153.811H349.629V152.072Z" fill="white"/>
<path d="M349.629 154.992H347.89V156.732H349.629V154.992Z" fill="white"/>
<path d="M349.629 157.902H347.89V159.641H349.629V157.902Z" fill="white"/>
<path d="M349.629 160.822H347.89V162.562H349.629V160.822Z" fill="white"/>
<path d="M349.629 163.743H347.89V165.482H349.629V163.743Z" fill="white"/>
<path d="M349.629 172.493H347.89V174.232H349.629V172.493Z" fill="white"/>
<path d="M349.629 175.413H347.89V177.153H349.629V175.413Z" fill="white"/>
<path d="M349.629 178.334H347.89V180.073H349.629V178.334Z" fill="white"/>
<path d="M349.629 181.254H347.89V182.993H349.629V181.254Z" fill="white"/>
<path d="M349.629 184.164H347.89V185.903H349.629V184.164Z" fill="white"/>
<path d="M349.629 187.084H347.89V188.823H349.629V187.084Z" fill="white"/>
<path d="M349.629 190.004H347.89V191.744H349.629V190.004Z" fill="white"/>
<path d="M349.629 192.925H347.89V194.664H349.629V192.925Z" fill="white"/>
<path d="M352.39 149.152H350.65V150.891H352.39V149.152Z" fill="white"/>
<path d="M352.39 152.072H350.65V153.811H352.39V152.072Z" fill="white"/>
<path d="M352.39 154.992H350.65V156.732H352.39V154.992Z" fill="white"/>
<path d="M352.39 157.902H350.65V159.641H352.39V157.902Z" fill="white"/>
<path d="M352.39 160.822H350.65V162.562H352.39V160.822Z" fill="white"/>
<path d="M352.39 163.743H350.65V165.482H352.39V163.743Z" fill="white"/>
<path d="M352.39 169.583H350.65V171.323H352.39V169.583Z" fill="white"/>
<path d="M352.39 172.493H350.65V174.232H352.39V172.493Z" fill="white"/>
<path d="M352.39 175.413H350.65V177.153H352.39V175.413Z" fill="white"/>
<path d="M352.39 178.334H350.65V180.073H352.39V178.334Z" fill="white"/>
<path d="M352.39 181.254H350.65V182.993H352.39V181.254Z" fill="white"/>
<path d="M352.39 184.164H350.65V185.903H352.39V184.164Z" fill="white"/>
<path d="M352.39 187.084H350.65V188.823H352.39V187.084Z" fill="white"/>
<path d="M352.39 190.004H350.65V191.744H352.39V190.004Z" fill="white"/>
<path d="M352.39 192.925H350.65V194.664H352.39V192.925Z" fill="white"/>
<path d="M410.665 132.822H408.926V134.561H410.665V132.822Z" fill="white"/>
<path d="M410.665 135.742H408.926V137.481H410.665V135.742Z" fill="white"/>
<path d="M410.665 138.662H408.926V140.402H410.665V138.662Z" fill="white"/>
<path d="M410.665 141.572H408.926V143.311H410.665V141.572Z" fill="white"/>
<path d="M410.665 144.492H408.926V146.231H410.665V144.492Z" fill="white"/>
<path d="M410.665 147.412H408.926V149.152H410.665V147.412Z" fill="white"/>
<path d="M410.665 150.333H408.926V152.072H410.665V150.333Z" fill="white"/>
<path d="M410.665 153.253H408.926V154.992H410.665V153.253Z" fill="white"/>
<path d="M410.665 156.163H408.926V157.902H410.665V156.163Z" fill="white"/>
<path d="M410.665 159.083H408.926V160.822H410.665V159.083Z" fill="white"/>
<path d="M410.665 162.003H408.926V163.743H410.665V162.003Z" fill="white"/>
<path d="M410.665 164.924H408.926V166.663H410.665V164.924Z" fill="white"/>
<path d="M410.665 167.833H408.926V169.573H410.665V167.833Z" fill="white"/>
<path d="M410.665 173.674H408.926V175.413H410.665V173.674Z" fill="white"/>
<path d="M410.665 176.594H408.926V178.334H410.665V176.594Z" fill="white"/>
<path d="M410.665 179.515H408.926V181.254H410.665V179.515Z" fill="white"/>
<path d="M410.665 182.424H408.926V184.164H410.665V182.424Z" fill="white"/>
<path d="M410.665 188.265H408.926V190.004H410.665V188.265Z" fill="white"/>
<path d="M410.665 191.185H408.926V192.925H410.665V191.185Z" fill="white"/>
<path d="M410.665 194.095H408.926V195.834H410.665V194.095Z" fill="white"/>
<path d="M413.436 132.822H411.696V134.561H413.436V132.822Z" fill="white"/>
<path d="M413.436 135.742H411.696V137.481H413.436V135.742Z" fill="white"/>
<path d="M413.436 138.662H411.696V140.402H413.436V138.662Z" fill="white"/>
<path d="M413.436 141.572H411.696V143.311H413.436V141.572Z" fill="white"/>
<path d="M413.436 144.492H411.696V146.231H413.436V144.492Z" fill="white"/>
<path d="M413.436 147.412H411.696V149.152H413.436V147.412Z" fill="white"/>
<path d="M413.436 150.333H411.696V152.072H413.436V150.333Z" fill="white"/>
<path d="M413.436 153.253H411.696V154.992H413.436V153.253Z" fill="white"/>
<path d="M413.436 156.163H411.696V157.902H413.436V156.163Z" fill="white"/>
<path d="M413.436 159.083H411.696V160.822H413.436V159.083Z" fill="white"/>
<path d="M413.436 162.003H411.696V163.743H413.436V162.003Z" fill="white"/>
<path d="M413.436 164.924H411.696V166.663H413.436V164.924Z" fill="white"/>
<path d="M413.436 167.833H411.696V169.573H413.436V167.833Z" fill="white"/>
<path d="M413.436 176.594H411.696V178.334H413.436V176.594Z" fill="white"/>
<path d="M413.436 179.515H411.696V181.254H413.436V179.515Z" fill="white"/>
<path d="M413.436 185.345H411.696V187.084H413.436V185.345Z" fill="white"/>
<path d="M413.436 188.265H411.696V190.004H413.436V188.265Z" fill="white"/>
<path d="M413.436 191.185H411.696V192.925H413.436V191.185Z" fill="white"/>
<path d="M413.436 194.095H411.696V195.834H413.436V194.095Z" fill="white"/>
<path d="M416.196 132.822H414.457V134.561H416.196V132.822Z" fill="white"/>
<path d="M416.196 135.742H414.457V137.481H416.196V135.742Z" fill="white"/>
<path d="M416.196 138.662H414.457V140.402H416.196V138.662Z" fill="white"/>
<path d="M416.196 141.572H414.457V143.311H416.196V141.572Z" fill="white"/>
<path d="M416.196 144.492H414.457V146.231H416.196V144.492Z" fill="white"/>
<path d="M416.196 147.412H414.457V149.152H416.196V147.412Z" fill="white"/>
<path d="M416.196 150.333H414.457V152.072H416.196V150.333Z" fill="white"/>
<path d="M416.196 153.253H414.457V154.992H416.196V153.253Z" fill="white"/>
<path d="M416.196 156.163H414.457V157.902H416.196V156.163Z" fill="white"/>
<path d="M416.196 159.083H414.457V160.822H416.196V159.083Z" fill="white"/>
<path d="M416.196 162.003H414.457V163.743H416.196V162.003Z" fill="white"/>
<path d="M416.196 164.924H414.457V166.663H416.196V164.924Z" fill="white"/>
<path d="M416.196 167.833H414.457V169.573H416.196V167.833Z" fill="white"/>
<path d="M416.196 170.754H414.457V172.493H416.196V170.754Z" fill="white"/>
<path d="M416.196 176.594H414.457V178.334H416.196V176.594Z" fill="white"/>
<path d="M416.196 182.424H414.457V184.164H416.196V182.424Z" fill="white"/>
<path d="M416.196 185.345H414.457V187.084H416.196V185.345Z" fill="white"/>
<path d="M416.196 188.265H414.457V190.004H416.196V188.265Z" fill="white"/>
<path d="M416.196 191.185H414.457V192.925H416.196V191.185Z" fill="white"/>
<path d="M416.196 194.095H414.457V195.834H416.196V194.095Z" fill="white"/>
<path d="M399.399 149.463H397.659V151.202H399.399V149.463Z" fill="white"/>
<path d="M399.399 152.373H397.659V154.112H399.399V152.373Z" fill="white"/>
<path d="M399.399 155.293H397.659V157.032H399.399V155.293Z" fill="white"/>
<path d="M399.399 158.213H397.659V159.953H399.399V158.213Z" fill="white"/>
<path d="M399.399 161.134H397.659V162.873H399.399V161.134Z" fill="white"/>
<path d="M399.399 164.054H397.659V165.793H399.399V164.054Z" fill="white"/>
<path d="M399.399 172.804H397.659V174.544H399.399V172.804Z" fill="white"/>
<path d="M399.399 175.725H397.659V177.464H399.399V175.725Z" fill="white"/>
<path d="M399.399 178.634H397.659V180.374H399.399V178.634Z" fill="white"/>
<path d="M399.399 181.555H397.659V183.294H399.399V181.555Z" fill="white"/>
<path d="M399.399 184.475H397.659V186.214H399.399V184.475Z" fill="white"/>
<path d="M399.399 187.395H397.659V189.135H399.399V187.395Z" fill="white"/>
<path d="M399.399 190.316H397.659V192.055H399.399V190.316Z" fill="white"/>
<path d="M402.17 149.463H400.43V151.202H402.17V149.463Z" fill="white"/>
<path d="M402.17 152.373H400.43V154.112H402.17V152.373Z" fill="white"/>
<path d="M402.17 155.293H400.43V157.032H402.17V155.293Z" fill="white"/>
<path d="M402.17 158.213H400.43V159.953H402.17V158.213Z" fill="white"/>
<path d="M402.17 161.134H400.43V162.873H402.17V161.134Z" fill="white"/>
<path d="M402.17 164.054H400.43V165.793H402.17V164.054Z" fill="white"/>
<path d="M402.17 172.804H400.43V174.544H402.17V172.804Z" fill="white"/>
<path d="M402.17 175.725H400.43V177.464H402.17V175.725Z" fill="white"/>
<path d="M402.17 178.634H400.43V180.374H402.17V178.634Z" fill="white"/>
<path d="M402.17 181.555H400.43V183.294H402.17V181.555Z" fill="white"/>
<path d="M402.17 184.475H400.43V186.214H402.17V184.475Z" fill="white"/>
<path d="M402.17 187.395H400.43V189.135H402.17V187.395Z" fill="white"/>
<path d="M402.17 193.225H400.43V194.965H402.17V193.225Z" fill="white"/>
</g>
<path opacity="0.7" d="M339.774 93.8312C345.627 91.4078 348.406 84.7002 345.982 78.8494C343.558 72.9986 336.848 70.2202 330.995 72.6437C325.142 75.0672 322.363 81.7748 324.787 87.6255C327.212 93.4763 333.921 96.2547 339.774 93.8312Z" fill="white"/>
<path d="M468.447 54.0477H464.988V213.635H468.447V54.0477Z" fill="#D46C4E"/>
<path d="M412.931 54.0477H410.01V213.635H412.931V54.0477Z" fill="#D46C4E"/>
<path d="M357.963 54.0477H355.043V213.635H357.963V54.0477Z" fill="#D46C4E"/>
<g opacity="0.7">
<path d="M468.447 54.0477H464.988V213.635H468.447V54.0477Z" fill="white"/>
<path d="M412.93 54.0477H410.01V213.635H412.93V54.0477Z" fill="white"/>
<path d="M357.963 54.0477H355.043V213.635H357.963V54.0477Z" fill="white"/>
</g>
<path d="M435.324 384.786H294.48C268.167 384.786 266.481 353.811 288.111 339.231C292.048 336.592 296.406 334.646 300.999 333.476C343.82 322.214 404.007 246.511 446.333 278.194C446.373 278.217 446.409 278.246 446.44 278.28C488.777 310.178 459.275 384.786 435.324 384.786Z" fill="#D46C4E"/>
<path opacity="0.2" d="M446.333 278.194C442.778 277.958 438.46 278.956 433.832 282.843C421.792 292.935 440.104 341.54 411.278 361.756C395.168 373.03 325.884 378.012 302.739 364.172C285.684 353.951 285.458 347.552 288.111 339.274C292.048 336.635 296.406 334.689 300.999 333.519C343.82 322.214 404.007 246.511 446.333 278.194Z" fill="white"/>
<path d="M280.948 303.436C287.231 296.994 322.705 296.65 333.713 296.747C344.722 296.843 359.726 334.4 364.193 340.348C368.661 346.296 331.973 363.818 314.306 361.585C296.639 359.352 271.067 313.507 280.948 303.436Z" fill="#D46C4E"/>
<path opacity="0.2" d="M280.948 303.436C287.231 296.994 322.705 296.65 333.713 296.747C344.722 296.843 359.726 334.4 364.193 340.348C368.661 346.296 331.973 363.818 314.306 361.585C296.639 359.352 271.067 313.507 280.948 303.436Z" fill="black"/>
<path d="M223.231 51.0092L217.721 39.1346L214.907 33.0578L213.64 34.5609L208.045 41.2605L200.237 40.8847L198.228 40.7773L201.3 47.4232L205.542 56.5708C204.758 56.5671 203.984 56.7396 203.276 57.0754C201.257 58.0095 200.151 59.942 200.827 61.37C201.504 62.7979 203.684 63.2274 205.703 62.2826C207.722 61.3378 208.829 59.4159 208.163 57.988L203.265 47.4125H211.428L216.508 40.7129L220.61 49.5705C219.827 49.5669 219.052 49.7394 218.344 50.0752C216.325 51.0092 215.23 52.9418 215.895 54.3698C216.561 55.7977 218.752 56.2272 220.771 55.2931C222.791 54.359 223.897 52.4157 223.231 50.9985V51.0092Z" fill="#D46C4E"/>
<path d="M218.559 154.509L214.693 151.288L213.683 150.451L211.288 161.552C210.878 161.252 210.41 161.04 209.913 160.93C208.485 160.618 207.153 161.198 206.928 162.218C206.702 163.238 207.69 164.301 209.076 164.612C210.461 164.924 211.836 164.344 212.061 163.324L213.661 155.884L217.592 158.847L218.559 154.509Z" fill="#D46C4E"/>
<path d="M200.451 89.2849L200.258 87.1376L193.578 84.3461L191.838 83.6161L192.203 87.8248L192.912 95.8879L193.256 99.8926C192.568 99.6446 191.835 99.5494 191.108 99.6135C189.024 99.796 187.434 101.149 187.563 102.641C187.692 104.134 189.486 105.196 191.58 105.014C193.674 104.831 195.242 103.479 195.124 101.986L194.577 95.7483L194.179 91.0887L200.827 93.5044L200.634 91.3571L193.954 88.5549L193.814 86.9014L200.451 89.2849Z" fill="#D46C4E"/>
<path d="M236.634 128.044L238.428 119.39L239.319 114.956L238.031 115.267L232.317 116.685L228.214 113.367L227.14 112.508L226.539 115.482L225.357 121.376L224.82 124.018C224.399 123.702 223.91 123.489 223.392 123.395C221.921 123.094 220.546 123.706 220.331 124.758C220.116 125.811 221.147 126.906 222.63 127.206C224.112 127.507 225.465 126.895 225.68 125.843L227.237 118.134L231.673 121.355L237.107 119.744L236.28 123.577L235.743 126.229C235.319 125.917 234.831 125.701 234.315 125.596C232.833 125.306 231.469 125.918 231.254 126.97C231.039 128.022 232.07 129.117 233.541 129.418C235.013 129.719 236.387 129.096 236.602 128.044H236.634ZM237.386 118.241L231.662 119.659L227.559 116.33L227.795 115.16L232.242 118.381L237.676 116.76L237.386 118.198V118.241Z" fill="#D46C4E"/>
<path d="M237.805 387.878H300.312C300.474 387.878 300.634 387.846 300.783 387.784C300.932 387.722 301.068 387.631 301.182 387.516C301.295 387.401 301.385 387.265 301.446 387.115C301.507 386.966 301.538 386.805 301.536 386.644V382.661C301.536 382.336 301.407 382.025 301.178 381.795C300.948 381.566 300.637 381.437 300.312 381.437H241.027V253.865H299.292C299.586 253.867 299.878 253.81 300.15 253.698C300.422 253.587 300.67 253.422 300.878 253.215C301.087 253.007 301.252 252.761 301.365 252.489C301.478 252.217 301.536 251.926 301.536 251.632V247.423H237.805C236.951 247.423 236.131 247.763 235.527 248.367C234.923 248.971 234.583 249.79 234.583 250.644V384.658C234.583 385.512 234.923 386.331 235.527 386.935C236.131 387.539 236.951 387.878 237.805 387.878Z" fill="#263238"/>
<g opacity="0.3">
<path d="M234.583 250.655V384.658C234.583 385.512 234.923 386.331 235.527 386.935C236.131 387.539 236.951 387.878 237.805 387.878H300.312C300.637 387.878 300.948 387.75 301.178 387.52C301.407 387.29 301.536 386.979 301.536 386.655V382.671C301.536 382.346 301.408 382.033 301.178 381.802C300.949 381.571 300.638 381.439 300.312 381.437H241.027V253.876H299.302C299.896 253.873 300.464 253.635 300.883 253.215C301.301 252.794 301.536 252.225 301.536 251.632V247.434H237.805C236.951 247.434 236.131 247.773 235.527 248.377C234.923 248.981 234.583 249.801 234.583 250.655Z" fill="white"/>
</g>
<path opacity="0.2" d="M234.583 250.644V284.819C236.731 285.377 238.879 285.892 241.027 286.397V253.865H299.302C299.896 253.862 300.464 253.625 300.883 253.204C301.301 252.784 301.536 252.215 301.536 251.621V247.423H237.805C236.951 247.423 236.131 247.763 235.527 248.367C234.923 248.971 234.583 249.79 234.583 250.644Z" fill="black"/>
<path d="M123.693 369.938L149.286 367.705V334.056H158.297V367.694L184.073 369.938C185.166 370.045 186.18 370.555 186.916 371.369C187.653 372.183 188.06 373.242 188.057 374.34V377.754H119.697V374.34C119.697 373.241 120.107 372.182 120.845 371.368C121.584 370.554 122.599 370.044 123.693 369.938Z" fill="#263238"/>
<path opacity="0.1" d="M123.693 369.938L149.286 367.705V334.056H158.297V367.694L184.073 369.938C185.166 370.045 186.18 370.555 186.916 371.369C187.653 372.183 188.06 373.242 188.057 374.34V377.754H119.697V374.34C119.697 373.241 120.107 372.182 120.845 371.368C121.584 370.554 122.599 370.044 123.693 369.938Z" fill="white"/>
<path d="M179.755 381.984C179.753 383.151 180.098 384.292 180.745 385.263C181.392 386.234 182.312 386.991 183.39 387.438C184.468 387.886 185.655 388.004 186.799 387.776C187.944 387.549 188.996 386.988 189.821 386.163C190.646 385.338 191.208 384.287 191.435 383.142C191.662 381.998 191.545 380.812 191.097 379.734C190.649 378.657 189.892 377.736 188.921 377.089C187.949 376.443 186.808 376.098 185.641 376.1C184.08 376.1 182.583 376.72 181.479 377.824C180.375 378.927 179.755 380.424 179.755 381.984Z" fill="#263238"/>
<path d="M127.999 381.984C128.001 383.15 127.657 384.291 127.011 385.262C126.364 386.232 125.444 386.99 124.367 387.437C123.29 387.885 122.104 388.003 120.959 387.777C119.815 387.551 118.763 386.99 117.938 386.167C117.112 385.343 116.549 384.292 116.321 383.149C116.092 382.005 116.209 380.819 116.655 379.742C117.101 378.664 117.856 377.743 118.826 377.095C119.796 376.446 120.936 376.1 122.103 376.1C123.665 376.1 125.163 376.72 126.269 377.823C127.374 378.926 127.996 380.423 127.999 381.984Z" fill="#263238"/>
<path d="M155.902 340.917H151.767C151.244 340.917 150.726 340.814 150.242 340.614C149.759 340.414 149.32 340.12 148.95 339.75C148.58 339.38 148.286 338.941 148.086 338.458C147.886 337.975 147.782 337.457 147.782 336.934V307.945H159.886V336.934C159.886 337.99 159.467 339.003 158.719 339.75C157.972 340.497 156.959 340.917 155.902 340.917Z" fill="#263238"/>
<path opacity="0.2" d="M155.902 340.917H151.767C151.244 340.917 150.726 340.814 150.242 340.614C149.759 340.414 149.32 340.12 148.95 339.75C148.58 339.38 148.286 338.941 148.086 338.458C147.886 337.975 147.782 337.457 147.782 336.934V307.945H159.886V336.934C159.886 337.99 159.467 339.003 158.719 339.75C157.972 340.497 156.959 340.917 155.902 340.917Z" fill="white"/>
<path d="M127.248 241.411C127.248 241.411 130.018 297.047 142.015 306.635H129.191C129.191 306.635 117.753 287.674 116.905 241.411H127.248Z" fill="#263238"/>
<path opacity="0.1" d="M127.248 241.411C127.248 241.411 130.018 297.047 142.015 306.635H129.191C129.191 306.635 117.753 287.674 116.905 241.411H127.248Z" fill="white"/>
<path d="M126.206 302.018H183.042C183.675 302.018 184.302 302.143 184.887 302.385C185.472 302.628 186.004 302.983 186.452 303.43C186.9 303.878 187.255 304.41 187.497 304.994C187.739 305.579 187.864 306.206 187.864 306.839V311.241H121.362V306.839C121.362 306.204 121.487 305.576 121.731 304.989C121.975 304.403 122.332 303.871 122.782 303.423C123.232 302.975 123.766 302.62 124.354 302.379C124.941 302.138 125.571 302.016 126.206 302.018Z" fill="#D46C4E"/>
<path d="M188.455 306.635H120.793C119.719 306.635 118.849 307.505 118.849 308.579V309.298C118.849 310.371 119.719 311.241 120.793 311.241H188.455C189.528 311.241 190.399 310.371 190.399 309.298V308.579C190.399 307.505 189.528 306.635 188.455 306.635Z" fill="#263238"/>
<path opacity="0.6" d="M188.455 306.635H120.793C119.719 306.635 118.849 307.505 118.849 308.579V309.298C118.849 310.371 119.719 311.241 120.793 311.241H188.455C189.528 311.241 190.399 310.371 190.399 309.298V308.579C190.399 307.505 189.528 306.635 188.455 306.635Z" fill="white"/>
<path d="M114.66 253.586H135.195C141.209 253.586 145.559 248.218 144.861 241.518L143.98 232.618C143.325 225.95 137.912 220.55 131.898 220.55H111.406C105.381 220.55 101.042 225.918 101.74 232.618L102.621 241.518C103.233 248.186 108.635 253.586 114.66 253.586Z" fill="#D46C4E"/>
<path d="M185.523 204.585C191.322 211.338 197.283 218.445 203.781 224.501C205.639 226.09 207.196 227.722 209.398 228.42C214.843 229.966 220.847 230.18 226.582 230.567C232.682 230.857 238.911 231.05 245.076 231.179L245.613 237.213C239.331 238.375 232.987 239.182 226.614 239.629C221.716 240.033 216.794 240.073 211.889 239.747C208.216 239.532 203.738 238.587 200.591 236.451C190.839 229.933 183.407 221.194 175.996 212.283L185.501 204.585H185.523Z" fill="#EBC0BB"/>
<path d="M202.814 219.852L200.731 221.58L195.361 226.047L191.527 229.268L190.098 230.427L180.497 224.952L176.201 222.515C176.982 220.251 177.897 218.035 178.939 215.879C180.883 211.885 183.708 207.344 186.887 206.216C187.49 205.996 188.135 205.913 188.774 205.974C189.414 206.036 190.031 206.239 190.581 206.571C197.391 210.436 202.814 219.852 202.814 219.852Z" fill="#263238"/>
<path opacity="0.2" d="M197.938 234.647C197.348 234.207 196.778 233.766 196.231 233.315C194.577 231.973 193.009 230.61 191.526 229.225L190.098 230.427L180.496 224.952L182.838 220.314L186.704 212.648C190.293 216.62 193.22 221.145 195.371 226.047C196.583 228.795 197.445 231.684 197.938 234.647Z" fill="black"/>
<path d="M205.875 376.412C205.875 376.412 205.875 376.466 205.875 376.487H205.95C206.653 376.895 207.394 377.233 208.163 377.496C208.726 377.731 209.356 377.754 209.935 377.561C210.127 377.457 210.285 377.301 210.392 377.111C210.498 376.921 210.548 376.705 210.536 376.487C210.553 376.352 210.536 376.216 210.485 376.09C210.434 375.964 210.352 375.853 210.246 375.768C209.437 375.422 208.53 375.376 207.69 375.639C208.354 375.214 208.844 374.567 209.076 373.814C209.093 373.634 209.049 373.454 208.952 373.302C208.855 373.15 208.709 373.035 208.539 372.976C208.396 372.909 208.24 372.874 208.082 372.874C207.924 372.874 207.769 372.909 207.626 372.976C206.498 373.567 206.015 376.101 205.983 376.197H205.832C205.816 376.212 205.804 376.231 205.798 376.252C205.791 376.273 205.79 376.295 205.794 376.316C205.798 376.338 205.808 376.358 205.822 376.375C205.836 376.391 205.855 376.404 205.875 376.412ZM206.573 375.918L206.358 375.982C206.595 375.145 207.078 373.781 207.755 373.438C207.829 373.395 207.911 373.368 207.996 373.359C208.081 373.349 208.167 373.358 208.249 373.384H208.345C208.625 373.513 208.657 373.674 208.635 373.803C208.549 374.447 207.475 375.446 206.573 375.918ZM206.573 376.39C207.787 376.058 209.462 375.757 209.967 376.154C210.019 376.196 210.059 376.251 210.084 376.313C210.108 376.375 210.116 376.442 210.107 376.508C210.112 376.645 210.081 376.781 210.017 376.901C209.953 377.022 209.858 377.124 209.742 377.196C209.226 377.475 208.066 377.174 206.595 376.39H206.573Z" fill="#D46C4E"/>
<path d="M200.87 357.945L195.511 375.113L204.619 375.982L209.494 360.35L200.87 357.945Z" fill="#EBC0BB"/>
<path opacity="0.2" d="M200.87 357.945L198.207 366.448L207.185 367.726L209.495 360.35L200.87 357.945Z" fill="black"/>
<path d="M205.531 375.081L195.715 372.107C195.553 372.051 195.375 372.062 195.22 372.136C195.066 372.211 194.946 372.343 194.888 372.504L192.053 380.127C191.929 380.535 191.973 380.976 192.174 381.353C192.375 381.729 192.718 382.01 193.127 382.134C196.564 383.122 198.26 383.412 202.589 384.69C205.241 385.484 210.418 387.299 214.22 387.814C218.022 388.329 218.419 384.593 216.862 384.013C213.157 382.682 208.775 378.699 206.895 376.025C206.562 375.564 206.081 375.23 205.531 375.081Z" fill="#263238"/>
<path d="M145.903 266.545C147.16 286.944 150.253 298.067 168.586 300.719C186.919 303.371 215.563 300.719 215.563 300.719L198.024 363.421L215.541 369.336C215.541 369.336 244.872 293.537 240.941 285.312C237.01 277.088 181.871 271.645 181.871 271.645L176.856 261.241L145.903 266.545Z" fill="#D46C4E"/>
<path opacity="0.4" d="M228.085 335.044C221.76 353.232 215.541 369.336 215.541 369.336L198.024 363.464L215.563 300.762C203.524 301.794 191.434 302.106 179.358 301.696C175.588 301.525 171.915 301.224 168.618 300.741C150.285 298.089 147.192 286.923 145.935 266.566L176.866 261.263L181.882 271.666C181.882 271.666 237.086 277.12 240.952 285.334C243.036 289.747 235.496 313.807 228.085 335.044Z" fill="white"/>
<path opacity="0.2" d="M228.085 335.044C221.76 353.232 215.541 369.336 215.541 369.336L198.024 363.464L215.563 300.762C203.524 301.794 191.434 302.106 179.358 301.696L180.164 274.179C180.164 274.179 214.424 274.007 227.291 281.544C230.427 283.369 229.568 309.974 228.085 335.044Z" fill="black"/>
<path d="M129.793 266.545C131.05 286.944 134.143 298.067 152.476 300.719C170.809 303.371 199.453 300.719 199.453 300.719L203.394 367.715L220.911 367.146C220.911 367.146 228.719 291.389 224.831 283.165C220.943 274.941 171.131 273.792 171.131 273.792L166.116 261.241L129.793 266.545Z" fill="#D46C4E"/>
<path opacity="0.4" d="M129.793 266.545C131.05 286.944 134.143 298.067 152.476 300.719C170.809 303.371 199.453 300.719 199.453 300.719L203.394 367.715L220.911 367.146C220.911 367.146 228.719 291.389 224.831 283.165C220.943 274.941 171.131 273.792 171.131 273.792L166.116 261.241L129.793 266.545Z" fill="white"/>
<path d="M217.163 378.838C217.163 378.838 217.163 378.838 217.163 378.903H217.238C218.021 379.113 218.824 379.239 219.633 379.279C220.24 379.363 220.857 379.217 221.362 378.871C221.516 378.718 221.625 378.526 221.676 378.316C221.727 378.105 221.719 377.885 221.652 377.679C221.63 377.544 221.574 377.417 221.49 377.31C221.405 377.203 221.295 377.12 221.169 377.067C220.297 376.95 219.412 377.152 218.677 377.636C219.208 377.045 219.509 376.283 219.526 375.489C219.498 375.309 219.41 375.144 219.274 375.023C219.139 374.901 218.966 374.831 218.785 374.823C218.628 374.798 218.468 374.808 218.315 374.853C218.163 374.897 218.023 374.975 217.904 375.081C216.98 375.95 217.195 378.527 217.206 378.667C217.206 378.667 217.055 378.72 217.055 378.731C217.08 378.777 217.117 378.814 217.163 378.838ZM217.689 378.183L217.506 378.291C217.506 377.421 217.614 375.972 218.172 375.467C218.23 375.406 218.3 375.359 218.378 375.327C218.456 375.296 218.54 375.281 218.623 375.285H218.731C219.032 375.285 219.107 375.478 219.128 375.596C218.97 376.602 218.46 377.519 217.689 378.183ZM217.839 378.624C218.913 377.979 220.46 377.239 221.061 377.486C221.123 377.513 221.176 377.557 221.216 377.611C221.255 377.666 221.28 377.73 221.287 377.797C221.328 377.925 221.335 378.062 221.306 378.194C221.278 378.326 221.216 378.448 221.126 378.548C220.675 378.999 219.472 378.999 217.839 378.624Z" fill="#D46C4E"/>
<path d="M207.379 362.39L206.831 380.363L215.831 378.763L216.325 362.39H207.379Z" fill="#EBC0BB"/>
<path opacity="0.2" d="M207.379 362.39L207.099 371.291L216.1 370.12L216.336 362.39H207.379Z" fill="black"/>
<path d="M216.465 377.636L206.219 377.41C206.133 377.404 206.046 377.416 205.965 377.443C205.883 377.471 205.807 377.514 205.743 377.571C205.678 377.628 205.625 377.697 205.587 377.775C205.549 377.852 205.526 377.936 205.521 378.022L204.844 386.128C204.838 386.338 204.874 386.548 204.949 386.744C205.025 386.94 205.138 387.12 205.282 387.272C205.427 387.425 205.6 387.547 205.792 387.633C205.984 387.719 206.191 387.766 206.401 387.771C209.989 387.771 211.696 387.632 216.207 387.696C218.978 387.75 224.445 388.115 228.247 387.589C232.049 387.062 231.469 383.294 229.772 383.219C225.852 382.929 220.557 380.266 218.033 378.194C217.585 377.843 217.034 377.647 216.465 377.636Z" fill="#263238"/>
<path d="M202.32 367.747L221.212 368.231L222.501 360.092L201.762 359.964L202.32 367.747Z" fill="#D46C4E"/>
<path opacity="0.2" d="M202.32 367.747L221.212 368.231L222.501 360.092L201.762 359.964L202.32 367.747Z" fill="white"/>
<path d="M190.603 206.56C190.603 206.56 179.358 236.204 178.864 266.545H129.793C129.793 266.545 129.793 238.533 138.116 216.491C139.604 212.444 141.501 208.559 143.776 204.896C144.838 203.184 146.026 201.555 147.331 200.021C153.955 198.114 160.862 197.387 167.737 197.874C177.983 198.926 190.603 206.56 190.603 206.56Z" fill="#263238"/>
<path d="M160.703 198.626L172.753 207.784L174.6 204.08C174.053 201.31 174.203 199.732 176.222 197.412L170.616 183.96C169.08 189.371 165.686 196.339 160.703 198.626Z" fill="#EBC0BB"/>
<path opacity="0.2" d="M172.914 189.425L176.222 197.38C175.501 198.193 174.851 199.066 174.278 199.989C172.227 198.551 170.433 194.621 171.367 192.162C171.707 191.161 172.231 190.232 172.914 189.425Z" fill="black"/>
<path d="M192.956 185.907C193.653 182.17 191.732 178.678 188.664 178.106C185.597 177.534 182.546 180.1 181.849 183.837C181.152 187.573 183.074 191.066 186.141 191.637C189.208 192.209 192.26 189.643 192.956 185.907Z" fill="black"/>
<path d="M194.394 175.295C194.695 178.516 192.837 184.679 189.024 181.737C185.211 178.795 193.836 169.723 194.394 175.295Z" fill="#263238"/>
<path d="M171.572 174.705C169.424 182.424 167.78 186.826 170.272 191.991C174.031 199.753 184.599 199.431 189.013 192.484C192.998 186.247 195.833 174.683 189.432 169.186C188.016 167.969 186.313 167.132 184.485 166.752C182.656 166.372 180.761 166.461 178.977 167.013C177.192 167.564 175.577 168.559 174.282 169.904C172.987 171.249 172.054 172.901 171.572 174.705Z" fill="#EBC0BB"/>
<path d="M168.489 165.772L177.393 166.051L177.242 171.162L176.748 170.84C176.748 170.84 175.61 178.237 171.174 180.449C165.75 175.617 164.612 168.317 168.489 165.772Z" fill="#263238"/>
<path d="M166.47 179.998C166.452 180.991 166.633 181.977 167.002 182.899C167.371 183.821 167.92 184.66 168.618 185.366C170.487 187.266 172.764 185.914 173.365 183.466C173.913 181.254 173.601 177.604 171.217 176.627C170.679 176.407 170.095 176.327 169.518 176.393C168.941 176.46 168.39 176.671 167.916 177.007C167.443 177.344 167.062 177.794 166.809 178.317C166.556 178.84 166.44 179.418 166.47 179.998Z" fill="#EBC0BB"/>
<path d="M182.365 180.674C182.151 181.286 182.301 181.898 182.709 182.027C183.117 182.156 183.611 181.78 183.782 181.157C183.954 180.535 183.836 179.933 183.439 179.805C183.042 179.676 182.58 180.052 182.365 180.674Z" fill="#263238"/>
<path d="M189.357 183.004C189.142 183.627 189.293 184.228 189.701 184.368C190.109 184.507 190.603 184.11 190.774 183.498C190.946 182.886 190.828 182.274 190.431 182.134C190.033 181.995 189.561 182.392 189.357 183.004Z" fill="#263238"/>
<path d="M181.033 189.414C181.291 189.538 181.557 189.645 181.828 189.736C181.852 189.744 181.878 189.747 181.903 189.745C181.928 189.743 181.952 189.736 181.975 189.723C181.997 189.711 182.016 189.695 182.032 189.675C182.047 189.655 182.058 189.632 182.064 189.607C182.073 189.584 182.076 189.559 182.075 189.535C182.073 189.51 182.067 189.486 182.056 189.464C182.045 189.442 182.029 189.422 182.011 189.406C181.992 189.39 181.97 189.378 181.946 189.371C181.176 189.134 180.472 188.719 179.891 188.159C179.311 187.6 178.871 186.911 178.606 186.15C178.605 186.121 178.597 186.093 178.584 186.067C178.57 186.042 178.551 186.02 178.528 186.003C178.504 185.986 178.477 185.974 178.449 185.968C178.421 185.963 178.391 185.964 178.364 185.972C178.336 185.979 178.31 185.992 178.288 186.011C178.266 186.03 178.248 186.053 178.236 186.08C178.225 186.106 178.219 186.135 178.22 186.164C178.221 186.192 178.228 186.221 178.241 186.247C178.464 186.938 178.826 187.576 179.307 188.121C179.787 188.666 180.375 189.106 181.033 189.414Z" fill="#263238"/>
<path d="M180.98 177.7C181.039 177.734 181.105 177.752 181.173 177.752C181.241 177.752 181.308 177.734 181.366 177.7C181.759 177.419 182.213 177.234 182.69 177.159C183.168 177.084 183.656 177.123 184.116 177.271C184.208 177.3 184.307 177.294 184.395 177.254C184.482 177.214 184.552 177.142 184.589 177.054C184.627 176.965 184.63 176.865 184.598 176.774C184.566 176.683 184.502 176.608 184.417 176.562C183.838 176.366 183.221 176.31 182.616 176.397C182.012 176.485 181.436 176.714 180.937 177.067C180.854 177.125 180.796 177.214 180.776 177.314C180.756 177.414 180.775 177.517 180.829 177.604C180.871 177.647 180.923 177.68 180.98 177.7Z" fill="#263238"/>
<path d="M193.191 181.619C193.261 181.635 193.335 181.635 193.405 181.619C193.507 181.606 193.599 181.553 193.663 181.473C193.727 181.393 193.758 181.292 193.749 181.19C193.686 180.587 193.48 180.009 193.147 179.502C192.815 178.996 192.366 178.577 191.838 178.28C191.745 178.239 191.64 178.235 191.544 178.269C191.448 178.302 191.369 178.372 191.322 178.463C191.3 178.507 191.287 178.555 191.284 178.605C191.281 178.654 191.287 178.704 191.303 178.751C191.319 178.797 191.344 178.841 191.377 178.878C191.41 178.915 191.45 178.945 191.494 178.967C191.912 179.204 192.265 179.539 192.523 179.943C192.781 180.347 192.937 180.808 192.976 181.286C192.979 181.356 193.001 181.423 193.039 181.481C193.076 181.54 193.129 181.587 193.191 181.619Z" fill="#263238"/>
<path d="M173.859 172.536C174.364 173.036 175.002 173.38 175.697 173.527C176.393 173.673 177.115 173.616 177.779 173.363C180.078 172.439 181.248 166.223 187.284 169.895C187.986 169.783 188.705 169.877 189.355 170.164C190.005 170.452 190.558 170.921 190.946 171.516C192.418 173.663 190.742 180.76 194.276 180.03C197.809 179.3 197.283 178.183 197.283 178.183C197.283 178.183 196.274 178.72 195.737 178.183C196.281 177.794 196.69 177.244 196.908 176.611C197.125 175.978 197.14 175.293 196.95 174.651C196.95 174.651 196.037 175.574 195.49 175.338C196.294 172.461 196.193 169.406 195.2 166.588C193.589 161.445 181.238 161.617 181.238 161.617C181.238 161.617 179.895 158.922 174.224 160.296C168.554 161.671 165.514 168.145 166.169 171.119L173.859 172.536Z" fill="#263238"/>
<path d="M175.395 181.447C174.697 185.184 171.647 187.75 168.575 187.181C165.504 186.612 163.581 183.111 164.279 179.375C164.977 175.639 168.038 173.062 171.099 173.642C174.16 174.222 176.136 177.7 175.395 181.447Z" fill="black"/>
<path d="M170.573 175.714C172.828 167.382 176.458 161.477 188.272 162.315L187.574 161.456L181.13 160.296C181.13 160.296 169.391 159.921 166.728 175.714H170.573Z" fill="#263238"/>
<path opacity="0.3" d="M170.573 175.714C172.828 167.382 176.458 161.477 188.272 162.315L187.574 161.456L181.13 160.296C181.13 160.296 169.391 159.921 166.728 175.714H170.573Z" fill="white"/>
<path d="M172.978 180.846C172.388 184.013 169.81 186.214 167.211 185.699C164.612 185.184 162.979 182.253 163.57 179.085C164.161 175.918 166.792 173.717 169.348 174.232C171.904 174.748 173.569 177.679 172.978 180.846Z" fill="#263238"/>
<path opacity="0.4" d="M172.978 180.846C172.388 184.013 169.81 186.214 167.211 185.699C164.612 185.184 162.979 182.253 163.57 179.085C164.161 175.918 166.792 173.717 169.348 174.232C171.904 174.748 173.569 177.679 172.978 180.846Z" fill="white"/>
<path opacity="0.2" d="M216.465 377.636L206.219 377.41C206.133 377.404 206.046 377.416 205.965 377.443C205.883 377.471 205.807 377.514 205.743 377.571C205.678 377.628 205.625 377.697 205.587 377.775C205.549 377.852 205.526 377.936 205.521 378.022L204.844 386.128C204.838 386.338 204.874 386.548 204.949 386.744C205.025 386.94 205.138 387.12 205.282 387.272C205.427 387.425 205.6 387.547 205.792 387.633C205.984 387.719 206.191 387.766 206.401 387.771C209.989 387.771 211.696 387.632 216.207 387.696C218.978 387.75 224.445 388.115 228.247 387.589C232.049 387.062 231.469 383.294 229.772 383.219C225.852 382.929 220.557 380.266 218.033 378.194C217.585 377.843 217.034 377.647 216.465 377.636Z" fill="white"/>
<path d="M241.296 230.835L249.479 230.889L245.044 240.241C245.044 240.241 238.095 238.652 238.6 234.872L241.296 230.835Z" fill="#EBC0BB"/>
<path d="M254.742 235.055L250.715 242.613L245.044 240.251L249.479 230.9L254.742 235.055Z" fill="#EBC0BB"/>
<path d="M213.662 214.247L197.229 205.916C197.151 205.876 197.081 205.821 197.024 205.754C196.966 205.687 196.923 205.609 196.896 205.525C196.869 205.442 196.859 205.353 196.866 205.265C196.874 205.178 196.899 205.092 196.939 205.014L197.068 204.778C197.147 204.62 197.285 204.499 197.452 204.443C197.619 204.387 197.802 204.399 197.96 204.477L214.392 212.819L215.563 214.237L213.662 214.247Z" fill="#263238"/>
<path d="M195.715 214.849L201.235 208.804L205.199 218.37C205.199 218.37 199.367 222.45 196.864 219.573L195.715 214.849Z" fill="#EBC0BB"/>
<path d="M207.851 207.677L210.762 215.74L205.198 218.37L201.235 208.804L207.851 207.677Z" fill="#EBC0BB"/>
<path opacity="0.2" d="M165.514 227.614L145.516 229.912C142.274 225.912 139.768 221.368 138.116 216.491C139.604 212.444 141.501 208.559 143.776 204.896C148.438 204.423 154.151 205.025 158.232 209.33C160.59 211.749 162.447 214.609 163.696 217.747C164.946 220.884 165.564 224.238 165.514 227.614Z" fill="black"/>
<path d="M152.97 205.948C155.505 211.252 158.34 216.803 161.315 221.881C163.764 225.897 166.309 230.191 169.821 232.897C176.458 232.832 190.657 219.315 196.048 214.473L200.688 218.37C194.308 227.26 180.282 245.212 168.027 243.762C158.168 241.98 150.553 227.732 146.064 219.745C144.56 216.835 143.121 214.022 141.768 210.919L152.948 205.948H152.97Z" fill="#EBC0BB"/>
<path d="M147.331 200.021C140.737 202.308 138.363 213.174 145.903 227.614L163.087 219.852C163.087 219.852 158.34 208.933 155.773 204.928C153.206 200.923 147.331 200.021 147.331 200.021Z" fill="#263238"/>
<path d="M264.204 203.425L250.779 232.983C250.541 233.423 250.192 233.794 249.766 234.058C249.34 234.321 248.852 234.469 248.352 234.486H200.247C199.281 234.486 198.797 233.809 199.173 232.983L212.652 203.425C212.894 202.986 213.246 202.618 213.673 202.356C214.101 202.095 214.589 201.949 215.09 201.933H263.13C264.118 201.933 264.601 202.609 264.204 203.425Z" fill="#263238"/>
<path opacity="0.4" d="M264.204 203.436L250.779 232.983C250.541 233.423 250.192 233.794 249.766 234.058C249.34 234.321 248.852 234.469 248.352 234.486H200.247C199.281 234.486 198.797 233.809 199.173 232.983L212.652 203.436C212.89 202.995 213.239 202.624 213.665 202.361C214.091 202.097 214.579 201.949 215.079 201.933H263.13C264.118 201.933 264.601 202.609 264.204 203.436Z" fill="white"/>
<path opacity="0.4" d="M264.204 203.425L250.779 232.983C250.541 233.423 250.192 233.794 249.766 234.058C249.34 234.321 248.852 234.469 248.352 234.486H201.321C200.355 234.486 199.871 233.809 200.247 232.983L213.726 203.425C213.968 202.986 214.32 202.618 214.747 202.356C215.175 202.095 215.663 201.949 216.164 201.933H263.13C264.118 201.933 264.601 202.609 264.204 203.425Z" fill="white"/>
<path opacity="0.4" d="M236.452 218.177C235.901 219.338 235.056 220.335 234.002 221.07C232.947 221.804 231.718 222.251 230.437 222.364C228.161 222.364 227.215 220.496 228.225 218.177C228.778 217.016 229.625 216.018 230.682 215.284C231.738 214.55 232.968 214.104 234.25 213.99C236.516 213.99 237.504 215.869 236.452 218.177Z" fill="white"/>
<path opacity="0.4" d="M212.33 212.261L206.96 224.071C206.776 224.39 206.514 224.656 206.198 224.844C205.882 225.032 205.523 225.135 205.156 225.145H202.718L209.162 211.08H211.578C212.265 211.145 212.652 211.649 212.33 212.261Z" fill="black"/>
<path d="M227.162 238.233H211.449C211.128 238.233 210.813 238.147 210.537 237.984C210.26 237.822 210.032 237.589 209.875 237.309C209.719 237.029 209.64 236.712 209.646 236.391C209.653 236.071 209.745 235.757 209.913 235.484L218.194 221.892C218.254 221.799 218.337 221.723 218.435 221.673C218.533 221.622 218.642 221.597 218.752 221.602L219.569 221.656L220.729 221.72C220.824 221.724 220.917 221.75 221 221.797C221.083 221.844 221.154 221.911 221.206 221.99C221.259 222.07 221.292 222.161 221.302 222.256C221.312 222.351 221.3 222.447 221.266 222.536L216.69 235.259C216.62 235.459 216.599 235.674 216.628 235.885C216.658 236.095 216.738 236.296 216.861 236.469C216.984 236.643 217.147 236.784 217.336 236.882C217.525 236.979 217.734 237.03 217.947 237.03H225.712C225.879 237.03 226.043 237.069 226.192 237.144C226.341 237.218 226.471 237.326 226.571 237.46L227.162 238.233Z" fill="#263238"/>
<path opacity="0.2" d="M227.162 238.233H212.523C212.202 238.233 211.887 238.147 211.611 237.984C211.334 237.822 211.106 237.589 210.949 237.309C210.793 237.029 210.714 236.712 210.72 236.391C210.727 236.071 210.819 235.757 210.987 235.484L219.268 221.892C219.342 221.784 219.447 221.702 219.569 221.656L220.728 221.72C220.824 221.724 220.917 221.75 221 221.797C221.083 221.844 221.154 221.911 221.206 221.99C221.259 222.07 221.292 222.161 221.302 222.256C221.312 222.351 221.3 222.447 221.265 222.536L216.69 235.259C216.62 235.459 216.599 235.674 216.628 235.885C216.658 236.095 216.738 236.296 216.861 236.469C216.984 236.643 217.147 236.784 217.336 236.882C217.525 236.979 217.734 237.03 217.947 237.03H225.712C225.879 237.03 226.043 237.069 226.192 237.144C226.341 237.218 226.471 237.326 226.571 237.46L227.162 238.233Z" fill="white"/>
<path d="M250.79 238.233H235.077C234.756 238.233 234.441 238.147 234.165 237.984C233.888 237.822 233.66 237.589 233.503 237.309C233.347 237.029 233.268 236.712 233.274 236.391C233.281 236.071 233.373 235.757 233.541 235.484L241.822 221.892C241.882 221.799 241.965 221.723 242.063 221.673C242.16 221.622 242.27 221.597 242.38 221.602L243.197 221.656L244.356 221.72C244.452 221.724 244.545 221.75 244.628 221.797C244.711 221.844 244.782 221.911 244.834 221.99C244.887 222.07 244.92 222.161 244.93 222.256C244.94 222.351 244.928 222.447 244.893 222.536L240.318 235.259C240.248 235.459 240.227 235.674 240.256 235.885C240.286 236.095 240.366 236.296 240.489 236.469C240.612 236.643 240.775 236.784 240.964 236.882C241.152 236.979 241.362 237.03 241.575 237.03H249.34C249.507 237.03 249.671 237.069 249.82 237.144C249.969 237.218 250.099 237.326 250.199 237.46L250.79 238.233Z" fill="#263238"/>
<path opacity="0.2" d="M250.79 238.233H236.151C235.83 238.233 235.515 238.147 235.239 237.984C234.962 237.822 234.734 237.589 234.577 237.309C234.421 237.029 234.342 236.712 234.348 236.391C234.355 236.071 234.447 235.757 234.615 235.484L242.896 221.892C242.97 221.784 243.075 221.702 243.197 221.656L244.357 221.72C244.452 221.724 244.545 221.75 244.628 221.797C244.711 221.844 244.782 221.911 244.834 221.99C244.887 222.07 244.92 222.161 244.93 222.256C244.94 222.351 244.928 222.447 244.894 222.536L240.318 235.259C240.248 235.459 240.227 235.674 240.256 235.885C240.286 236.095 240.366 236.296 240.489 236.469C240.612 236.643 240.775 236.784 240.964 236.882C241.153 236.979 241.362 237.03 241.575 237.03H249.34C249.507 237.03 249.671 237.069 249.82 237.144C249.969 237.218 250.099 237.326 250.199 237.46L250.79 238.233Z" fill="white"/>
<path d="M270.122 232.585H286.232C286.517 232.585 286.79 232.698 286.991 232.9C287.193 233.101 287.306 233.374 287.306 233.659V238.211H269.048V233.659C269.048 233.374 269.161 233.101 269.362 232.9C269.564 232.698 269.837 232.585 270.122 232.585Z" fill="#263238"/>
<path opacity="0.2" d="M270.122 232.585H286.232C286.517 232.585 286.79 232.698 286.991 232.9C287.193 233.101 287.306 233.374 287.306 233.659V238.211H269.048V233.659C269.048 233.374 269.161 233.101 269.362 232.9C269.564 232.698 269.837 232.585 270.122 232.585Z" fill="white"/>
<path d="M284.266 211.853H272.098C271.635 211.853 271.26 212.228 271.26 212.691V235.742C271.26 236.204 271.635 236.579 272.098 236.579H284.266C284.729 236.579 285.104 236.204 285.104 235.742V212.691C285.104 212.228 284.729 211.853 284.266 211.853Z" fill="#263238"/>
<path d="M284.266 211.853H272.098C271.635 211.853 271.26 212.228 271.26 212.691V235.742C271.26 236.204 271.635 236.579 272.098 236.579H284.266C284.729 236.579 285.104 236.204 285.104 235.742V212.691C285.104 212.228 284.729 211.853 284.266 211.853Z" fill="#D46C4E"/>
<path opacity="0.2" d="M284.266 211.853H272.098C271.635 211.853 271.26 212.228 271.26 212.691V235.742C271.26 236.204 271.635 236.579 272.098 236.579H284.266C284.729 236.579 285.104 236.204 285.104 235.742V212.691C285.104 212.228 284.729 211.853 284.266 211.853Z" fill="black"/>
<path d="M284.202 213.539H272.141V234.872H284.202V213.539Z" fill="#263238"/>
<path d="M284.202 213.539H272.141V216.341H284.202V213.539Z" fill="#D46C4E"/>
<path opacity="0.2" d="M284.202 213.539H272.141V216.341H284.202V213.539Z" fill="white"/>
<path d="M284.202 230.953H272.141V234.872H284.202V230.953Z" fill="#D46C4E"/>
<path opacity="0.2" d="M284.202 230.953H272.141V234.872H284.202V230.953Z" fill="white"/>
<path d="M273.29 222.192H272.914V224.812H273.29V222.192Z" fill="#D46C4E"/>
<path d="M277.092 222.192H276.716V224.812H277.092V222.192Z" fill="#D46C4E"/>
<path d="M273.924 223.073H273.548V223.932H273.924V223.073Z" fill="#D46C4E"/>
<path d="M280.905 223.073H280.529V223.932H280.905V223.073Z" fill="#D46C4E"/>
<path d="M276.458 222.858H276.083V224.136H276.458V222.858Z" fill="#D46C4E"/>
<path d="M283.439 222.858H283.063V224.136H283.439V222.858Z" fill="#D46C4E"/>
<path d="M280.271 222.858H279.895V224.136H280.271V222.858Z" fill="#D46C4E"/>
<path d="M274.557 222.192H274.181V224.812H274.557V222.192Z" fill="#D46C4E"/>
<path d="M279.637 222.192H279.261V224.812H279.637V222.192Z" fill="#D46C4E"/>
<path d="M281.538 222.192H281.162V224.812H281.538V222.192Z" fill="#D46C4E"/>
<path d="M275.825 221.945H275.449V225.048H275.825V221.945Z" fill="#D46C4E"/>
<path d="M282.805 221.945H282.43V225.048H282.805V221.945Z" fill="#D46C4E"/>
<path d="M278.359 221.945H277.984V225.048H278.359V221.945Z" fill="#D46C4E"/>
<path d="M275.191 221.366H274.815V225.639H275.191V221.366Z" fill="#D46C4E"/>
<path d="M279.004 221.366H278.628V225.639H279.004V221.366Z" fill="#D46C4E"/>
<path d="M277.726 221.366H277.35V225.639H277.726V221.366Z" fill="#D46C4E"/>
<path d="M282.172 221.366H281.796V225.639H282.172V221.366Z" fill="#D46C4E"/>
<g opacity="0.5">
<path d="M273.29 222.192H272.914V224.812H273.29V222.192Z" fill="white"/>
<path d="M277.092 222.192H276.716V224.812H277.092V222.192Z" fill="white"/>
<path d="M273.923 223.073H273.548V223.932H273.923V223.073Z" fill="white"/>
<path d="M280.905 223.073H280.529V223.932H280.905V223.073Z" fill="white"/>
<path d="M276.458 222.858H276.083V224.136H276.458V222.858Z" fill="white"/>
<path d="M283.439 222.858H283.063V224.136H283.439V222.858Z" fill="white"/>
<path d="M280.271 222.858H279.895V224.136H280.271V222.858Z" fill="white"/>
<path d="M274.557 222.192H274.182V224.812H274.557V222.192Z" fill="white"/>
<path d="M279.637 222.192H279.261V224.812H279.637V222.192Z" fill="white"/>
<path d="M281.538 222.192H281.162V224.812H281.538V222.192Z" fill="white"/>
<path d="M275.825 221.945H275.449V225.048H275.825V221.945Z" fill="white"/>
<path d="M282.806 221.945H282.43V225.048H282.806V221.945Z" fill="white"/>
<path d="M278.359 221.945H277.984V225.048H278.359V221.945Z" fill="white"/>
<path d="M275.191 221.366H274.815V225.639H275.191V221.366Z" fill="white"/>
<path d="M279.004 221.366H278.628V225.639H279.004V221.366Z" fill="white"/>
<path d="M277.726 221.366H277.35V225.639H277.726V221.366Z" fill="white"/>
<path d="M282.172 221.366H281.796V225.639H282.172V221.366Z" fill="white"/>
</g>
<path d="M280.819 232.091V233.605L281.785 232.843L280.819 232.091Z" fill="white"/>
<path d="M282.065 232.091H281.839V233.605H282.065V232.091Z" fill="white"/>
<path d="M275.534 233.605V232.091L274.568 232.843L275.534 233.605Z" fill="white"/>
<path d="M274.289 233.605H274.514V232.092H274.289V233.605Z" fill="white"/>
<path d="M279.132 232.843C279.111 233.029 279.037 233.204 278.919 233.349C278.8 233.493 278.643 233.6 278.465 233.657C278.287 233.713 278.096 233.717 277.916 233.668C277.736 233.618 277.574 233.518 277.45 233.378C277.326 233.239 277.245 233.066 277.217 232.882C277.188 232.697 277.214 232.508 277.291 232.338C277.368 232.168 277.493 232.023 277.65 231.923C277.807 231.822 277.99 231.768 278.177 231.769C278.44 231.799 278.684 231.924 278.86 232.123C279.037 232.321 279.134 232.578 279.132 232.843Z" fill="white"/>
<path d="M277.833 233.412H278.059V232.295H277.833V233.412Z" fill="#D46C4E"/>
<path d="M278.295 233.412H278.52V232.295H278.295V233.412Z" fill="#D46C4E"/>
<path d="M157.191 387.878H219.697C220.025 387.878 220.339 387.748 220.571 387.517C220.802 387.285 220.933 386.971 220.933 386.644V382.661C220.93 382.335 220.798 382.024 220.567 381.794C220.336 381.565 220.023 381.437 219.697 381.437H160.413V253.865H218.688C219.281 253.865 219.851 253.63 220.271 253.212C220.692 252.793 220.93 252.225 220.933 251.632V247.423H157.191C156.336 247.423 155.517 247.763 154.912 248.367C154.308 248.971 153.969 249.79 153.969 250.644V384.658C153.969 385.512 154.308 386.331 154.912 386.935C155.517 387.539 156.336 387.878 157.191 387.878Z" fill="#263238"/>
<g opacity="0.4">
<path d="M157.191 387.878H219.697C220.025 387.878 220.339 387.748 220.571 387.517C220.802 387.285 220.933 386.971 220.933 386.644V382.661C220.93 382.335 220.798 382.024 220.567 381.794C220.336 381.565 220.023 381.437 219.697 381.437H160.413V253.865H218.688C219.281 253.865 219.851 253.63 220.271 253.212C220.692 252.793 220.93 252.225 220.933 251.632V247.423H157.191C156.336 247.423 155.517 247.763 154.912 248.367C154.308 248.971 153.969 249.79 153.969 250.644V384.658C153.969 385.512 154.308 386.331 154.912 386.935C155.517 387.539 156.336 387.878 157.191 387.878Z" fill="white"/>
</g>
<path d="M313.962 248.497L149.189 248.497C148.637 248.497 148.107 248.277 147.716 247.887C147.325 247.496 147.106 246.966 147.106 246.414V241.346L316.014 241.346V246.425C316.011 246.97 315.795 247.492 315.411 247.879C315.028 248.267 314.507 248.488 313.962 248.497Z" fill="#D46C4E"/>
<path opacity="0.2" d="M147.106 244.911L316.046 244.911V241.336L147.106 241.336V244.911Z" fill="black"/>
<path d="M143.562 242.259H319.59C320.124 242.259 320.636 242.048 321.014 241.672C321.393 241.295 321.607 240.785 321.609 240.251C321.609 239.716 321.397 239.203 321.018 238.824C320.639 238.445 320.126 238.233 319.59 238.233H143.562C143.026 238.233 142.513 238.445 142.134 238.824C141.755 239.203 141.542 239.716 141.542 240.251C141.545 240.785 141.759 241.295 142.138 241.672C142.516 242.048 143.028 242.259 143.562 242.259Z" fill="#D46C4E"/>
<path d="M186.56 184L186.81 186L187.04 187.835C187.051 187.929 186.989 188 186.894 188V188C186.797 188 186.671 187.938 186.584 187.887C186.511 187.844 186.445 187.79 186.381 187.735L186.06 187.455" stroke="#263238" stroke-width="0.385372" stroke-linecap="round" stroke-linejoin="round"/>
<path d="M97.111 366.115C96.9239 365.733 96.8334 365.31 96.8474 364.884C96.8615 364.458 96.9796 364.042 97.1915 363.673C97.4034 363.303 97.7026 362.991 98.063 362.764C98.4234 362.536 98.8341 362.401 99.259 362.368C98.8901 361.295 98.8547 360.135 99.1576 359.04C99.4605 357.946 100.087 356.969 100.956 356.238C101.17 356.046 101.442 355.929 101.729 355.905C102.037 355.935 102.327 356.063 102.556 356.27L107.454 359.781C107.85 360.023 108.184 360.354 108.431 360.747C109.43 362.68 105.821 365.171 107.357 366.76C107.787 367.221 108.431 367.318 109 367.651C110.16 368.381 110.3 369.981 110.847 371.237C111.395 372.493 113.285 373.481 114.005 372.31C113.479 371.108 115.079 370.067 116.411 369.905C117.743 369.744 119.096 369.68 119.826 368.445C121.684 370.077 125.862 365.536 125.765 363.7C126.502 363.832 127.18 364.19 127.704 364.725C128.227 365.26 128.571 365.945 128.687 366.685C128.898 368.2 128.949 369.733 128.837 371.258C128.837 374.222 129.847 377.131 129.793 380.105C129.793 382.414 128.858 384.98 126.743 385.903C125.711 386.273 124.614 386.423 123.521 386.343L99.4201 386.193C98.8403 386.237 98.2583 386.141 97.7232 385.914C96.6492 385.345 96.4129 383.917 96.3163 382.693C95.8795 377.46 95.4463 372.228 95.0167 366.996L97.111 366.115Z" fill="#D46C4E"/>
<path opacity="0.3" d="M97.111 366.115C96.9239 365.733 96.8334 365.31 96.8474 364.884C96.8615 364.458 96.9796 364.042 97.1915 363.673C97.4034 363.303 97.7026 362.991 98.063 362.764C98.4234 362.536 98.8341 362.401 99.259 362.368C98.8901 361.295 98.8547 360.135 99.1576 359.04C99.4605 357.946 100.087 356.969 100.956 356.238C101.17 356.046 101.442 355.929 101.729 355.905C102.037 355.935 102.327 356.063 102.556 356.27L107.454 359.781C107.85 360.023 108.184 360.354 108.431 360.747C109.43 362.68 105.821 365.171 107.357 366.76C107.787 367.221 108.431 367.318 109 367.651C110.16 368.381 110.3 369.981 110.847 371.237C111.395 372.493 113.285 373.481 114.005 372.31C113.479 371.108 115.079 370.067 116.411 369.905C117.743 369.744 119.096 369.68 119.826 368.445C121.684 370.077 125.862 365.536 125.765 363.7C126.502 363.832 127.18 364.19 127.704 364.725C128.227 365.26 128.571 365.945 128.687 366.685C128.898 368.2 128.949 369.733 128.837 371.258C128.837 374.222 129.847 377.131 129.793 380.105C129.793 382.414 128.858 384.98 126.743 385.903C125.711 386.273 124.614 386.423 123.521 386.343L99.4201 386.193C98.8403 386.237 98.2583 386.141 97.7232 385.914C96.6492 385.345 96.4129 383.917 96.3163 382.693C95.8795 377.46 95.4463 372.228 95.0167 366.996L97.111 366.115Z" fill="white"/>
<path d="M91.494 340.648L91.8055 344.428L92.0203 347.123L92.5895 354.144L92.9117 358.17L93.352 363.539L93.5346 365.847V366.534L93.7494 369.229L94.0501 372.944L94.2327 375.242L94.426 377.571L94.6516 380.277L94.8127 382.338L95.006 384.625L95.0812 385.624H129.449L129.524 384.625L129.707 382.328L129.879 380.277L130.094 377.571L130.287 375.242L130.469 372.944L130.77 369.229L130.996 366.534V365.847L131.178 363.539L131.608 358.17L131.941 354.134L132.51 347.123L132.725 344.428L133.036 340.648H91.494ZM93.438 342.409H94.222L93.5024 343.129L93.438 342.409ZM96.66 342.409H97.4762L100.902 345.834L97.0681 349.678L93.7172 346.328L93.6528 345.415L96.66 342.409ZM94.4046 354.81L97.0573 352.158L100.892 355.991L97.0573 359.824L94.6086 357.376L94.4046 354.81ZM129.954 357.376L127.505 359.824L123.671 355.991L127.505 352.158L130.158 354.81L129.954 357.376ZM102.137 347.08L105.972 350.913L102.137 354.756L98.2924 350.913L102.137 347.08ZM102.137 344.599L99.9894 342.452H104.382L102.137 344.599ZM107.217 352.115L111.052 355.948L107.217 359.781L103.383 355.948L107.217 352.115ZM112.287 364.859L108.474 361.069L112.297 357.236L116.142 361.069L112.287 364.859ZM117.367 362.272L121.201 366.105L117.377 369.938L113.532 366.115L117.367 362.272ZM111.052 366.115L107.217 369.959L103.383 366.115L107.217 362.283L111.052 366.115ZM108.474 350.913L112.297 347.08L116.142 350.913L112.297 354.756L108.474 350.913ZM117.377 352.158L121.212 355.991L117.377 359.824L113.543 355.991L117.377 352.158ZM118.623 350.913L122.468 347.08L126.292 350.913L122.436 354.756L118.623 350.913ZM126.292 361.069L122.436 364.902L118.591 361.069L122.436 357.236L126.292 361.069ZM122.436 367.393L126.259 371.226L122.436 375.059L118.591 371.226L122.436 367.393ZM121.179 376.304L117.345 380.137L113.511 376.304L117.356 372.461L121.179 376.304ZM112.265 375.059L108.474 371.226L112.297 367.393L116.142 371.226L112.265 375.059ZM111.03 376.304L107.196 380.137L103.362 376.304L107.196 372.461L111.03 376.304ZM105.95 381.372L103.469 383.863H100.784L98.2924 381.372L102.137 377.539L105.95 381.372ZM102.116 375.059L98.271 371.226L102.116 367.393L105.95 371.226L102.116 375.059ZM102.116 364.902L98.271 361.069L102.116 357.236L105.95 361.069L102.116 364.902ZM106.788 342.409H107.593L111.03 345.834L107.196 349.678L103.362 345.834L106.788 342.409ZM110.085 342.409H114.467L112.319 344.557L110.085 342.409ZM116.937 342.409H117.753L121.179 345.834L117.345 349.678L113.511 345.834L116.937 342.409ZM124.616 342.409L122.468 344.557L120.32 342.409H124.616ZM127.913 342.409L130.921 345.415L130.845 346.328L127.505 349.678L123.671 345.834L127.108 342.409H127.913ZM131.135 342.409L131.071 343.118L130.362 342.409H131.135ZM130.308 352.512L128.719 350.913L130.598 349.034L130.308 352.512ZM129.546 361.896L128.719 361.069L129.696 360.082L129.546 361.896ZM129.02 368.435L127.473 369.981L123.693 366.115L127.527 362.283L129.417 364.172L129.02 368.435ZM128.794 371.301L128.719 371.226L128.805 371.14V371.301H128.794ZM128.128 379.482L127.473 380.127L123.639 376.304L127.473 372.461L128.665 373.631L128.182 379.515L128.128 379.482ZM126.227 383.863L127.473 382.618L127.849 382.983L127.774 383.863H126.227ZM123.746 383.863H121.05L118.559 381.372L122.404 377.539L126.227 381.372L123.746 383.863ZM116.067 383.863L117.313 382.618L118.559 383.863H116.067ZM110.88 383.863L108.41 381.372L112.233 377.539L116.078 381.372L113.586 383.863H110.88ZM105.907 383.863L107.164 382.618L108.41 383.863H105.907ZM96.66 382.983L97.0251 382.618L98.271 383.863H96.7566L96.66 382.983ZM95.9296 373.631L97.0573 372.493L100.892 376.337L97.0573 380.159L96.4022 379.515L95.9296 373.631ZM95.7256 371.162L95.8222 371.258L95.7363 371.333V371.162H95.7256ZM95.1564 364.237L97.0573 362.347L100.892 366.115L97.0573 369.948L95.5 368.402L95.1564 364.237ZM94.8234 360.114L95.8222 361.102L94.9738 361.939L94.8234 360.114ZM93.932 349.055L95.8222 350.945L94.2112 352.555L93.932 349.055Z" fill="#D46C4E"/>
<g opacity="0.6">
<path d="M91.494 340.648L91.8055 344.428L92.0203 347.123L92.5895 354.144L92.9117 358.17L93.352 363.539L93.5346 365.847V366.534L93.7494 369.229L94.0501 372.944L94.2327 375.242L94.426 377.571L94.6516 380.277L94.8127 382.338L95.006 384.625L95.0812 385.624H129.449L129.524 384.625L129.707 382.328L129.879 380.277L130.094 377.571L130.287 375.242L130.469 372.944L130.77 369.229L130.996 366.534V365.847L131.178 363.539L131.608 358.17L131.941 354.134L132.51 347.123L132.725 344.428L133.036 340.648H91.494ZM93.438 342.409H94.222L93.5024 343.129L93.438 342.409ZM96.66 342.409H97.4762L100.902 345.834L97.0681 349.678L93.7172 346.328L93.6528 345.415L96.66 342.409ZM94.4046 354.81L97.0573 352.158L100.892 355.991L97.0573 359.824L94.6086 357.376L94.4046 354.81ZM129.954 357.376L127.505 359.824L123.671 355.991L127.505 352.158L130.158 354.81L129.954 357.376ZM102.137 347.08L105.972 350.913L102.137 354.756L98.2924 350.913L102.137 347.08ZM102.137 344.599L99.9894 342.452H104.382L102.137 344.599ZM107.217 352.115L111.052 355.948L107.217 359.781L103.383 355.948L107.217 352.115ZM112.287 364.859L108.474 361.069L112.297 357.236L116.142 361.069L112.287 364.859ZM117.367 362.272L121.201 366.105L117.377 369.938L113.532 366.115L117.367 362.272ZM111.052 366.115L107.217 369.959L103.383 366.115L107.217 362.283L111.052 366.115ZM108.474 350.913L112.297 347.08L116.142 350.913L112.297 354.756L108.474 350.913ZM117.377 352.158L121.212 355.991L117.377 359.824L113.543 355.991L117.377 352.158ZM118.623 350.913L122.468 347.08L126.292 350.913L122.436 354.756L118.623 350.913ZM126.292 361.069L122.436 364.902L118.591 361.069L122.436 357.236L126.292 361.069ZM122.436 367.393L126.259 371.226L122.436 375.059L118.591 371.226L122.436 367.393ZM121.179 376.304L117.345 380.137L113.511 376.304L117.356 372.461L121.179 376.304ZM112.265 375.059L108.474 371.226L112.297 367.393L116.142 371.226L112.265 375.059ZM111.03 376.304L107.196 380.137L103.362 376.304L107.196 372.461L111.03 376.304ZM105.95 381.372L103.469 383.863H100.784L98.2924 381.372L102.137 377.539L105.95 381.372ZM102.116 375.059L98.271 371.226L102.116 367.393L105.95 371.226L102.116 375.059ZM102.116 364.902L98.271 361.069L102.116 357.236L105.95 361.069L102.116 364.902ZM106.788 342.409H107.593L111.03 345.834L107.196 349.678L103.362 345.834L106.788 342.409ZM110.085 342.409H114.467L112.319 344.557L110.085 342.409ZM116.937 342.409H117.753L121.179 345.834L117.345 349.678L113.511 345.834L116.937 342.409ZM124.616 342.409L122.468 344.557L120.32 342.409H124.616ZM127.913 342.409L130.921 345.415L130.845 346.328L127.505 349.678L123.671 345.834L127.108 342.409H127.913ZM131.135 342.409L131.071 343.118L130.362 342.409H131.135ZM130.308 352.512L128.719 350.913L130.598 349.034L130.308 352.512ZM129.546 361.896L128.719 361.069L129.696 360.082L129.546 361.896ZM129.02 368.435L127.473 369.981L123.693 366.115L127.527 362.283L129.417 364.172L129.02 368.435ZM128.794 371.301L128.719 371.226L128.805 371.14V371.301H128.794ZM128.128 379.482L127.473 380.127L123.639 376.304L127.473 372.461L128.665 373.631L128.182 379.515L128.128 379.482ZM126.227 383.863L127.473 382.618L127.849 382.983L127.774 383.863H126.227ZM123.746 383.863H121.05L118.559 381.372L122.404 377.539L126.227 381.372L123.746 383.863ZM116.067 383.863L117.313 382.618L118.559 383.863H116.067ZM110.88 383.863L108.41 381.372L112.233 377.539L116.078 381.372L113.586 383.863H110.88ZM105.907 383.863L107.164 382.618L108.41 383.863H105.907ZM96.66 382.983L97.0251 382.618L98.271 383.863H96.7566L96.66 382.983ZM95.9296 373.631L97.0573 372.493L100.892 376.337L97.0573 380.159L96.4022 379.515L95.9296 373.631ZM95.7256 371.162L95.8222 371.258L95.7363 371.333V371.162H95.7256ZM95.1564 364.237L97.0573 362.347L100.892 366.115L97.0573 369.948L95.5 368.402L95.1564 364.237ZM94.8234 360.114L95.8222 361.102L94.9738 361.939L94.8234 360.114ZM93.932 349.055L95.8222 350.945L94.2112 352.555L93.932 349.055Z" fill="white"/>
</g>
<path d="M133.724 339.081H90.8604C89.8876 339.081 89.099 339.869 89.099 340.842V342.205C89.099 343.178 89.8876 343.966 90.8604 343.966H133.724C134.696 343.966 135.485 343.178 135.485 342.205V340.842C135.485 339.869 134.696 339.081 133.724 339.081Z" fill="#D46C4E"/>
<path d="M94.2005 387.868H130.373C131.346 387.868 132.134 387.079 132.134 386.107V384.743C132.134 383.771 131.346 382.983 130.373 382.983H94.2005C93.2277 382.983 92.4391 383.771 92.4391 384.743V386.107C92.4391 387.079 93.2277 387.868 94.2005 387.868Z" fill="#D46C4E"/>
</svg>
