<svg width="21" height="20" viewBox="0 0 21 20" fill="none" xmlns="http://www.w3.org/2000/svg">
<path d="M14.8788 0H6.1365C2.01234 0 0.503418 1.50215 0.503418 5.62462V14.3669C0.503418 18.4911 2.01234 20 6.1365 20H14.8788C18.9945 20 20.5034 18.4911 20.5034 14.3669V5.62462C20.5034 1.50046 19.0013 0 14.8788 0Z" fill="#837676"/>
<path fill-rule="evenodd" clip-rule="evenodd" d="M9.03936 12.068L8.79746 12.6059H8.25952L9.40813 9.99408H9.87333L11.0219 12.6059H10.4671L10.2336 12.068H9.03936ZM9.23051 11.5943H10.0323L9.62973 10.6606L9.23051 11.5943ZM17.7495 9.99577H18.2807V12.6076H17.7495V9.99577ZM15.6688 12.134H17.1236V12.6076H15.1461V9.99577H17.0661V10.4779H15.6688V11.009H16.6347V11.4912H15.6688V12.1357V12.134ZM14.165 9.99577H14.7198L13.8114 12.6144H13.3631L12.7677 10.8957L12.1722 12.6144H11.7375L10.8206 9.99577H11.3924L11.9709 11.7957L12.5579 9.99577H12.9927L13.5881 11.7957L14.165 9.99577ZM7.4577 9.99577H7.98887V11.4759C7.98887 12.2236 7.5778 12.6567 6.85379 12.6567C6.12978 12.6567 5.73563 12.2304 5.73563 11.4928V9.99916H6.2668V11.4793C6.2668 11.9191 6.47656 12.1543 6.86225 12.1543C7.24794 12.1543 7.4577 11.9208 7.4577 11.4962V9.99577ZM4.46861 9.99577H4.99977V12.6144H4.46861V11.5453H3.27094V12.6144H2.73977V9.99577H3.27094V11.048H4.46861V9.99577ZM10.5094 6.66836C8.6672 6.66836 7.18196 5.17466 7.18196 3.34095H7.64716C7.64716 4.91584 8.93448 6.1947 10.5094 6.1947C12.0843 6.1947 13.3716 4.91584 13.3716 3.34095H13.8368C13.8368 5.17128 12.3431 6.66836 10.5094 6.66836Z" fill="#263E35"/>
</svg>
