<svg width="30" height="30" viewBox="0 0 30 30" fill="none" xmlns="http://www.w3.org/2000/svg">
<g id="Behance">
<path d="M19.14 13.785C18.9311 13.7841 18.7243 13.8269 18.533 13.9106C18.3416 13.9943 18.1698 14.117 18.0286 14.2709C17.8874 14.4249 17.7799 14.6066 17.7129 14.8044C17.646 15.0023 17.6212 15.212 17.64 15.42H20.73C20.7499 15.2042 20.7229 14.9866 20.6507 14.7822C20.5784 14.5778 20.4628 14.3915 20.3117 14.2361C20.1606 14.0807 19.9776 13.96 19.7753 13.8821C19.573 13.8042 19.3563 13.7711 19.14 13.785ZM11.235 15.45H9.38997V18.36H10.89C12.39 18.36 13.05 17.865 13.05 16.86C13.05 15.855 12.36 15.45 11.235 15.45ZM12.54 12.78C12.54 11.985 12.015 11.505 11.115 11.505H9.38997V14.115H10.665C12 14.115 12.54 13.635 12.54 12.78Z" fill="#AB573F"/>
<path d="M15 0C12.0333 0 9.13319 0.879734 6.66645 2.52796C4.19971 4.17618 2.27713 6.51885 1.14181 9.25974C0.00649929 12.0006 -0.290551 15.0166 0.288227 17.9263C0.867006 20.8361 2.29562 23.5088 4.3934 25.6066C6.49119 27.7044 9.16393 29.133 12.0736 29.7118C14.9834 30.2905 17.9994 29.9935 20.7403 28.8582C23.4811 27.7229 25.8238 25.8003 27.472 23.3335C29.1203 20.8668 30 17.9667 30 15C30 13.0302 29.612 11.0796 28.8582 9.25974C28.1044 7.43986 26.9995 5.78627 25.6066 4.3934C24.2137 3.00052 22.5601 1.89563 20.7403 1.14181C18.9204 0.387986 16.9698 0 15 0ZM11.55 19.8H7.5V10.05H11.55C13.305 10.05 14.46 10.965 14.46 12.45C14.4807 12.9489 14.323 13.4388 14.0151 13.8319C13.7072 14.225 13.2693 14.4956 12.78 14.595C13.0901 14.6022 13.3955 14.6726 13.6774 14.8019C13.9594 14.9311 14.212 15.1166 14.4198 15.3469C14.6276 15.5771 14.7863 15.8474 14.886 16.1411C14.9858 16.4348 15.0246 16.7458 15 17.055C15 18.795 13.5 19.8 11.55 19.8ZM16.875 10.8H21.375V11.55H16.875V10.8ZM22.5 16.575H17.55V16.785C17.5242 17.0129 17.5476 17.2437 17.6185 17.4619C17.6895 17.68 17.8063 17.8804 17.9613 18.0496C18.1162 18.2187 18.3056 18.3527 18.5167 18.4425C18.7278 18.5323 18.9557 18.5757 19.185 18.57C19.507 18.62 19.8362 18.5519 20.1119 18.3782C20.3875 18.2045 20.5911 17.937 20.685 17.625H22.5C22.3384 18.345 21.917 18.9802 21.3165 19.4092C20.7161 19.8381 19.9785 20.0306 19.245 19.95C18.7762 19.9973 18.3027 19.9414 17.8578 19.786C17.413 19.6307 17.0075 19.3798 16.6701 19.0509C16.3326 18.722 16.0714 18.3232 15.9046 17.8825C15.7379 17.4418 15.6697 16.9699 15.705 16.5V15.84C15.6731 15.3847 15.7401 14.9279 15.9014 14.5009C16.0626 14.0739 16.3143 13.6869 16.6392 13.3663C16.964 13.0457 17.3544 12.7992 17.7834 12.6436C18.2125 12.488 18.6702 12.4271 19.125 12.465C19.5783 12.4359 20.0326 12.5043 20.4573 12.6656C20.882 12.8269 21.2672 13.0772 21.587 13.3999C21.9068 13.7225 22.1537 14.1099 22.3112 14.536C22.4687 14.9621 22.5331 15.4169 22.5 15.87V16.575Z" fill="#AB573F"/>
</g>
</svg>
