<svg width="20" height="20" viewBox="0 0 20 20" fill="none" xmlns="http://www.w3.org/2000/svg">
<g id="BehanceLink">
<path d="M12.76 9.19C12.6207 9.18943 12.4829 9.21796 12.3553 9.27374C12.2277 9.32953 12.1132 9.41135 12.019 9.51396C11.9249 9.61657 11.8532 9.73771 11.8086 9.86962C11.764 10.0015 11.7474 10.1413 11.76 10.28H13.82C13.8333 10.1361 13.8152 9.99105 13.7671 9.8548C13.719 9.71855 13.6419 9.59435 13.5411 9.49076C13.4404 9.38717 13.3184 9.30664 13.1835 9.25471C13.0487 9.20279 12.9042 9.18071 12.76 9.19ZM7.48998 10.3H6.25998V12.24H7.25998C8.25998 12.24 8.69998 11.91 8.69998 11.24C8.69998 10.57 8.23998 10.3 7.48998 10.3ZM8.35998 8.52C8.35998 7.99 8.00998 7.67 7.40998 7.67H6.25998V9.41H7.10998C7.99998 9.41 8.35998 9.09 8.35998 8.52Z" fill="#837676"/>
<path d="M10 0C8.02219 0 6.08879 0.58649 4.4443 1.6853C2.79981 2.78412 1.51809 4.3459 0.761209 6.17316C0.00433286 8.00042 -0.1937 10.0111 0.192152 11.9509C0.578004 13.8907 1.53041 15.6725 2.92894 17.0711C4.32746 18.4696 6.10929 19.422 8.0491 19.8078C9.98891 20.1937 11.9996 19.9957 13.8268 19.2388C15.6541 18.4819 17.2159 17.2002 18.3147 15.5557C19.4135 13.9112 20 11.9778 20 10C20 8.68678 19.7413 7.38642 19.2388 6.17316C18.7362 4.95991 17.9997 3.85752 17.0711 2.92893C16.1425 2.00035 15.0401 1.26375 13.8268 0.761204C12.6136 0.258658 11.3132 0 10 0ZM7.7 13.2H5V6.7H7.7C8.87 6.7 9.64 7.31 9.64 8.3C9.6538 8.63259 9.54864 8.95922 9.34339 9.22128C9.13813 9.48335 8.84622 9.66371 8.52 9.73C8.72674 9.73479 8.93032 9.78171 9.11829 9.8679C9.30626 9.95409 9.47468 10.0777 9.61322 10.2312C9.75176 10.3848 9.85752 10.5649 9.92402 10.7607C9.99053 10.9565 10.0164 11.1639 10 11.37C10 12.53 9 13.2 7.7 13.2ZM11.25 7.2H14.25V7.7H11.25V7.2ZM15 11.05H11.7V11.19C11.6828 11.342 11.6984 11.4958 11.7457 11.6413C11.793 11.7867 11.8709 11.9203 11.9742 12.0331C12.0775 12.1458 12.2037 12.2351 12.3445 12.295C12.4852 12.3548 12.6371 12.3838 12.79 12.38C13.0047 12.4133 13.2241 12.3679 13.4079 12.2521C13.5917 12.1364 13.7274 11.958 13.79 11.75H15C14.8923 12.23 14.6114 12.6535 14.211 12.9394C13.8107 13.2254 13.319 13.3538 12.83 13.3C12.5175 13.3316 12.2018 13.2943 11.9052 13.1907C11.6086 13.0871 11.3384 12.9199 11.1134 12.7006C10.8884 12.4814 10.7142 12.2155 10.6031 11.9217C10.4919 11.6278 10.4465 11.3133 10.47 11V10.56C10.4488 10.2565 10.4934 9.95193 10.6009 9.66728C10.7084 9.38263 10.8762 9.1246 11.0928 8.91087C11.3093 8.69715 11.5696 8.53279 11.8556 8.42908C12.1417 8.32536 12.4468 8.28474 12.75 8.31C13.0522 8.29062 13.3551 8.33622 13.6382 8.44373C13.9213 8.55124 14.1781 8.71815 14.3913 8.93324C14.6045 9.14832 14.7691 9.40659 14.8741 9.69065C14.9791 9.9747 15.022 10.278 15 10.58V11.05Z" fill="#837676"/>
</g>
</svg>
