<svg width="53" height="54" viewBox="0 0 53 54" fill="none" xmlns="http://www.w3.org/2000/svg">
<path d="M36.048 16.2063C34.313 14.6626 32.2297 13.5625 29.9765 13.0002C27.7233 12.438 25.3673 12.4303 23.1105 12.9778C23.5089 13.511 26.1281 17.0735 28.4894 21.4153C33.6163 19.4934 35.7843 16.5754 36.048 16.2063ZM28.9523 29.3606C20.8253 32.1907 17.9015 37.8333 17.6437 38.3606C20.0871 40.2649 23.1574 41.4016 26.4913 41.4016C28.4894 41.4016 30.3937 40.9973 32.1222 40.259C31.9054 38.9934 31.0734 34.5872 29.046 29.3254L28.9523 29.3606ZM31.7472 28.6633C33.6339 33.843 34.4015 38.0618 34.548 38.9407C37.7824 36.7551 40.0851 33.2922 40.7238 29.2786C40.2316 29.1262 36.2648 27.9426 31.7472 28.6633ZM26.4913 0.719971C11.9953 0.719971 0.241348 12.4739 0.241348 26.97C0.241348 41.4661 11.9953 53.22 26.4913 53.22C40.9874 53.22 52.7413 41.4661 52.7413 26.97C52.7413 12.4739 40.9874 0.719971 26.4913 0.719971ZM26.4913 43.845C17.1867 43.845 9.61635 36.2747 9.61635 26.97C9.61635 17.6653 17.1867 10.095 26.4913 10.095C35.796 10.095 43.3663 17.6653 43.3663 26.97C43.3663 36.2747 35.796 43.845 26.4913 43.845ZM29.6027 23.5598C29.9367 24.2454 30.2589 24.9426 30.5578 25.6458C30.6632 25.8918 30.7687 26.1379 30.8683 26.3899C35.6613 25.7864 40.4308 26.7532 40.9054 26.8528C40.8761 23.4485 39.6574 20.3254 37.6535 17.8704C37.3429 18.2864 34.9288 21.386 29.6027 23.5598ZM25.7062 22.2825C23.3156 18.0344 20.7433 14.4661 20.3624 13.9446C16.3312 15.8489 13.3136 19.5637 12.382 24.0344C13.0265 24.0461 18.9679 24.0754 25.7062 22.2825ZM27.4992 27.1165C27.6867 27.0579 27.8742 26.9993 28.0675 26.9465C27.7042 26.1262 27.3117 25.3059 26.9015 24.5032C19.7062 26.6594 12.716 26.5657 12.089 26.554C12.0831 26.7004 12.0831 26.8469 12.0831 26.9934C12.0831 30.6965 13.4835 34.0774 15.7863 36.6321C16.1085 36.0696 20.0636 29.5188 27.4992 27.1165Z" fill="#2B2D6E"/>
</svg>
