<svg width="40" height="40" viewBox="0 0 40 40" fill="none" xmlns="http://www.w3.org/2000/svg">
<g id="Email">
<path d="M20.3932 18.35L30.3132 12.1H10.4732L20.3932 18.35Z" fill="#AB573F"/>
<path d="M20.3932 20.85L10.4732 14.6V27.1H30.3132V14.6L20.3932 20.85Z" fill="#AB573F"/>
<path fill-rule="evenodd" clip-rule="evenodd" d="M19.9932 40C31.0389 40 39.9932 31.0457 39.9932 20C39.9932 8.95431 31.0389 0 19.9932 0C8.94747 0 -0.00683594 8.95431 -0.00683594 20C-0.00683594 31.0457 8.94747 40 19.9932 40ZM30.3132 9.6C31.6772 9.6 32.7932 10.725 32.7932 12.1V27.1C32.7932 28.475 31.6772 29.6 30.3132 29.6H10.4732C9.10916 29.6 7.99316 28.475 7.99316 27.1V12.1C7.99316 10.725 9.10916 9.6 10.4732 9.6H30.3132Z" fill="#AB573F"/>
</g>
</svg>
