<svg width="51" height="51" viewBox="0 0 51 51" fill="none" xmlns="http://www.w3.org/2000/svg">
<path fill-rule="evenodd" clip-rule="evenodd" d="M25.2413 50.72C39.0485 50.72 50.2413 39.5271 50.2413 25.72C50.2413 11.9129 39.0485 0.719971 25.2413 0.719971C11.4342 0.719971 0.241348 11.9129 0.241348 25.72C0.241348 39.5271 11.4342 50.72 25.2413 50.72ZM38.1413 12.72C39.8463 12.72 41.2413 14.1262 41.2413 15.845V34.595C41.2413 36.3137 39.8463 37.72 38.1413 37.72H13.3413C11.6363 37.72 10.2413 36.3137 10.2413 34.595V15.845C10.2413 14.1262 11.6363 12.72 13.3413 12.72H38.1413ZM25.7413 23.6575L38.1413 15.845H13.3413L25.7413 23.6575ZM25.7413 26.7825L13.3413 18.97V34.595H38.1413V18.97L25.7413 26.7825Z" fill="#2B2D6E"/>
</svg>
