<svg width="51" height="50" viewBox="0 0 51 50" fill="none" xmlns="http://www.w3.org/2000/svg">
<g id="git" clip-path="url(#clip0_222_310)">
<path id="Vector" d="M49.392 22.8039L27.8623 1.27498C26.6233 0.0351319 24.6123 0.0351319 23.3713 1.27498L18.901 5.74607L24.5721 11.4172C25.8905 10.9722 27.4014 11.2707 28.4518 12.3211C29.5076 13.3781 29.8037 14.9019 29.3479 16.2246L34.8135 21.6906C36.1358 21.2347 37.6619 21.5293 38.7174 22.5871C40.194 24.0625 40.194 26.4543 38.7174 27.9304C38.3665 28.2815 37.9499 28.56 37.4913 28.75C37.0328 28.94 36.5413 29.0378 36.045 29.0378C35.5486 29.0378 35.0571 28.94 34.5986 28.75C34.14 28.56 33.7234 28.2815 33.3725 27.9304C32.8453 27.4029 32.4859 26.7313 32.3396 26C32.1933 25.2687 32.2666 24.5104 32.5502 23.8207L27.4534 18.7238L27.4526 32.1383C27.8224 32.3204 28.16 32.5616 28.4522 32.8523C29.928 34.3277 29.928 36.7187 28.4522 38.1972C26.976 39.6726 24.5834 39.6726 23.1088 38.1972C21.633 36.7191 21.633 34.3281 23.1088 32.8523C23.4624 32.4982 23.8829 32.218 24.3459 32.0281V18.4894C23.8826 18.3001 23.4619 18.0197 23.1088 17.6648C21.9909 16.5476 21.7217 14.907 22.2951 13.5336L16.7041 7.94255L1.94163 22.7043C1.34605 23.3 1.01147 24.108 1.01147 24.9504C1.01147 25.7928 1.34605 26.6007 1.94163 27.1965L23.4717 48.7254C24.7116 49.9652 26.7217 49.9652 27.9635 48.7254L49.3924 27.2965C49.9879 26.7005 50.3223 25.8925 50.3222 25.0501C50.3222 24.2077 49.9876 23.3997 49.392 22.8039Z" fill="#F34F29"/>
</g>
<defs>
<clipPath id="clip0_222_310">
<rect width="50" height="50" fill="white" transform="translate(0.666748)"/>
</clipPath>
</defs>
</svg>
