<svg width="52" height="51" viewBox="0 0 52 51" fill="none" xmlns="http://www.w3.org/2000/svg">
<path d="M25.6207 0.719971C22.2561 0.719971 18.9245 1.38267 15.8161 2.67023C12.7076 3.95779 9.88322 5.84499 7.50412 8.22409C2.69931 13.0289 0 19.5456 0 26.3406C0 37.665 7.35313 47.2727 17.5245 50.6803C18.8056 50.8853 19.2155 50.091 19.2155 49.3993V45.0694C12.1186 46.6066 10.607 41.6362 10.607 41.6362C9.42841 38.6642 7.76307 37.8699 7.76307 37.8699C5.43158 36.2815 7.94241 36.3327 7.94241 36.3327C10.5045 36.5121 11.8624 38.9716 11.8624 38.9716C14.0914 42.866 17.8576 41.7131 19.318 41.0982C19.5486 39.4328 20.2147 38.3055 20.9321 37.665C15.2443 37.0245 9.27468 34.8211 9.27468 25.0596C9.27468 22.2157 10.2483 19.9355 11.9136 18.1164C11.6574 17.4759 10.7607 14.8113 12.1698 11.3526C12.1698 11.3526 14.322 10.6608 19.2155 13.9659C21.2395 13.4022 23.4429 13.1204 25.6207 13.1204C27.7984 13.1204 30.0018 13.4022 32.0258 13.9659C36.9194 10.6608 39.0715 11.3526 39.0715 11.3526C40.4807 14.8113 39.5839 17.4759 39.3277 18.1164C40.9931 19.9355 41.9667 22.2157 41.9667 25.0596C41.9667 34.8467 35.9714 36.9988 30.258 37.6394C31.1804 38.4336 32.0258 39.9965 32.0258 42.3792V49.3993C32.0258 50.091 32.4358 50.9109 33.7424 50.6803C43.9138 47.2471 51.2414 37.665 51.2414 26.3406C51.2414 22.9761 50.5787 19.6445 49.2911 16.536C48.0035 13.4276 46.1163 10.6032 43.7372 8.22409C41.3581 5.84499 38.5337 3.95779 35.4253 2.67023C32.3168 1.38267 28.9852 0.719971 25.6207 0.719971Z" fill="#2B2D6E"/>
</svg>
