<svg width="30" height="30" viewBox="0 0 30 30" fill="none" xmlns="http://www.w3.org/2000/svg">
<path id="GitHub" d="M15.3596 0.714287C13.437 0.714287 11.5332 1.09297 9.75699 1.82872C7.98073 2.56447 6.36679 3.64287 5.00731 5.00236C2.2617 7.74796 0.719238 11.4718 0.719238 15.3547C0.719238 21.8257 4.92103 27.3159 10.7333 29.263C11.4653 29.3802 11.6995 28.9263 11.6995 28.531V26.0568C7.64414 26.9352 6.78036 24.095 6.78036 24.095C6.1069 22.3967 5.15527 21.9428 5.15527 21.9428C3.823 21.0351 5.25776 21.0644 5.25776 21.0644C6.72179 21.1669 7.49774 22.5724 7.49774 22.5724C8.77145 24.7977 10.9236 24.1389 11.7581 23.7875C11.8898 22.8359 12.2705 22.1917 12.6804 21.8257C9.43027 21.4597 6.01906 20.2006 6.01906 14.6227C6.01906 12.9976 6.57539 11.6946 7.52702 10.6551C7.38061 10.2891 6.8682 8.7665 7.67342 6.79005C7.67342 6.79005 8.90321 6.39476 11.6995 8.28337C12.8561 7.96128 14.1152 7.80023 15.3596 7.80023C16.6041 7.80023 17.8631 7.96128 19.0197 8.28337C21.816 6.39476 23.0458 6.79005 23.0458 6.79005C23.851 8.7665 23.3386 10.2891 23.1922 10.6551C24.1438 11.6946 24.7002 12.9976 24.7002 14.6227C24.7002 20.2153 21.2743 21.4451 18.0095 21.8111C18.5366 22.2649 19.0197 23.158 19.0197 24.5196V28.531C19.0197 28.9263 19.254 29.3948 20.0006 29.263C25.8129 27.3012 30 21.8257 30 15.3547C30 13.4321 29.6213 11.5283 28.8856 9.75204C28.1498 7.97579 27.0714 6.36184 25.7119 5.00236C24.3524 3.64287 22.7385 2.56447 20.9623 1.82872C19.186 1.09297 17.2822 0.714287 15.3596 0.714287Z" fill="#AB573F"/>
</svg>
