<svg width="21" height="20" viewBox="0 0 21 20" fill="none" xmlns="http://www.w3.org/2000/svg">
<path id="GitHubLink" d="M10.7517 0C9.40586 0 8.07322 0.265079 6.82984 0.780103C5.58647 1.29513 4.45671 2.05001 3.50507 3.00165C1.58314 4.92357 0.503418 7.53026 0.503418 10.2483C0.503418 14.778 3.44467 18.6211 7.51323 19.9841C8.02565 20.0661 8.18962 19.7484 8.18962 19.4717V17.7398C5.35085 18.3547 4.7462 16.3665 4.7462 16.3665C4.27478 15.1777 3.60864 14.86 3.60864 14.86C2.67605 14.2246 3.68038 14.2451 3.68038 14.2451C4.70521 14.3168 5.24837 15.3007 5.24837 15.3007C6.13997 16.8584 7.64646 16.3972 8.23061 16.1513C8.32285 15.4851 8.5893 15.0342 8.87625 14.778C6.60114 14.5218 4.21329 13.6404 4.21329 9.73586C4.21329 8.5983 4.60273 7.6862 5.26886 6.95858C5.16638 6.70237 4.80769 5.63655 5.37135 4.25303C5.37135 4.25303 6.2322 3.97633 8.18962 5.29836C8.99923 5.07289 9.88058 4.96016 10.7517 4.96016C11.6228 4.96016 12.5041 5.07289 13.3138 5.29836C15.2712 3.97633 16.132 4.25303 16.132 4.25303C16.6957 5.63655 16.337 6.70237 16.2345 6.95858C16.9006 7.6862 17.2901 8.5983 17.2901 9.73586C17.2901 13.6507 14.892 14.5115 12.6066 14.7678C12.9756 15.0855 13.3138 15.7106 13.3138 16.6637V19.4717C13.3138 19.7484 13.4777 20.0764 14.0004 19.9841C18.0689 18.6109 21 14.778 21 10.2483C21 8.90245 20.7349 7.5698 20.2199 6.32643C19.7048 5.08305 18.9499 3.95329 17.9983 3.00165C17.0467 2.05001 15.9169 1.29513 14.6735 0.780103C13.4302 0.265079 12.0975 0 10.7517 0Z" fill="#837676"/>
</svg>
