<svg width="50" height="38" viewBox="0 0 50 38" fill="none" xmlns="http://www.w3.org/2000/svg">
<g id="gradle" clip-path="url(#clip0_222_316)">
<path id="Vector" d="M47.281 2.96502C44.2603 -0.0568368 39.3884 -0.141206 36.2648 2.77441C36.1906 2.84444 36.131 2.92847 36.0894 3.02166C36.0478 3.11484 36.025 3.21532 36.0224 3.31733C36.0236 3.52241 36.1043 3.71904 36.2476 3.86573L37.2348 4.88753C37.3636 5.01576 37.5343 5.09333 37.7155 5.10606C37.8968 5.1188 38.0766 5.06583 38.2221 4.95687C39.0052 4.36587 39.9603 4.04753 40.9414 4.05049C41.8415 4.04655 42.7224 4.31035 43.4721 4.80835C44.2218 5.30634 44.8065 6.01604 45.1519 6.84721C45.4972 7.67838 45.5876 8.59347 45.4115 9.47614C45.2355 10.3588 44.8009 11.1692 44.1631 11.8042C37.8701 18.0973 29.4696 0.465195 10.4055 9.53525C10.0812 9.68685 9.79179 9.90399 9.55553 10.173C9.31928 10.442 9.1413 10.757 9.03281 11.0981C8.92432 11.4393 8.88767 11.7993 8.92518 12.1553C8.96268 12.5113 9.07352 12.8557 9.25072 13.1668L12.5186 18.819C13.2282 20.0427 14.7876 20.4718 16.0231 19.7831L16.1039 19.7371L16.0405 19.7831L17.4896 18.9691C19.1047 17.9663 20.6308 16.8267 22.051 15.5627C22.1965 15.438 22.3818 15.3695 22.5734 15.3695C22.765 15.3695 22.9503 15.438 23.0958 15.5627C23.1834 15.6314 23.2544 15.719 23.3034 15.819C23.3524 15.919 23.3782 16.0287 23.3788 16.14C23.3809 16.2484 23.3598 16.356 23.317 16.4556C23.2742 16.5552 23.2106 16.6445 23.1306 16.7175C21.6348 18.0452 20.0255 19.2392 18.3212 20.2856H18.2751L16.826 21.0938C16.2134 21.4409 15.5208 21.622 14.8167 21.6191C14.0895 21.6192 13.3748 21.429 12.7438 21.0674C12.1128 20.7058 11.5874 20.1855 11.2197 19.558L8.13068 14.2175C2.19556 18.4092 -1.40711 26.4862 0.527123 36.7343C0.561495 36.9055 0.653663 37.0598 0.788196 37.1712C0.922729 37.2826 1.09146 37.3445 1.26613 37.3463H4.78815C4.97117 37.3463 5.14788 37.2794 5.28502 37.1582C5.42217 37.037 5.51029 36.8698 5.53282 36.6882C5.8576 34.1102 8.04983 32.1768 10.6483 32.1768C13.2465 32.1768 15.4389 34.1102 15.7635 36.6882C15.7874 36.8703 15.8768 37.0375 16.0149 37.1586C16.153 37.2797 16.3304 37.3464 16.5141 37.3463H19.9435C20.1266 37.3463 20.3033 37.2795 20.4405 37.1582C20.5777 37.037 20.6658 36.8699 20.6884 36.6882C21.0235 34.1171 23.2138 32.1938 25.8066 32.1938C28.3993 32.1938 30.5896 34.1171 30.9247 36.688C30.9473 36.8697 31.0354 37.0368 31.1726 37.158C31.3098 37.2793 31.4866 37.3461 31.6696 37.3461H35.0586C35.4688 37.3461 35.8027 37.0173 35.8092 36.6073C35.89 31.8325 37.1774 26.3477 40.8494 23.5995C53.5684 14.0847 50.2255 5.92691 47.281 2.96502ZM34.3079 17.3585L31.8829 16.14C31.8819 15.8793 31.9479 15.6226 32.0745 15.3946C32.2011 15.1666 32.3841 14.9748 32.6059 14.8377C32.8278 14.7007 33.0811 14.6228 33.3416 14.6116C33.6022 14.6004 33.8613 14.6562 34.0941 14.7737C34.3269 14.8912 34.5257 15.0665 34.6714 15.2828C34.8171 15.4991 34.9049 15.7492 34.9263 16.0091C34.9478 16.269 34.9022 16.53 34.7939 16.7673C34.6856 17.0046 34.5183 17.2101 34.3079 17.3642V17.3585Z" fill="#02303A"/>
</g>
<defs>
<clipPath id="clip0_222_316">
<rect width="50" height="36.7161" fill="white" transform="translate(0 0.641968)"/>
</clipPath>
</defs>
</svg>
