<svg width="50" height="50" viewBox="0 0 50 50" fill="none" xmlns="http://www.w3.org/2000/svg">
<g id="js">
<path id="Vector" d="M3.125 3.125H46.875V46.875H3.125V3.125Z" fill="#F5DE19"/>
<path id="Vector_2" d="M32.5141 37.3047C32.8869 38.0619 33.466 38.6983 34.1848 39.1406C34.9036 39.5829 35.7327 39.8131 36.5766 39.8047C38.2797 39.8047 39.3688 38.9531 39.3688 37.7734C39.3688 36.3672 38.25 35.8641 36.375 35.0438L35.3469 34.6031C32.3782 33.3391 30.4094 31.7563 30.4094 28.4094C30.4094 25.3266 32.7532 22.9781 36.4297 22.9781C37.6199 22.8922 38.809 23.1586 39.8488 23.744C40.8886 24.3295 41.7329 25.2081 42.2766 26.2703L39.0625 28.325C38.8532 27.7983 38.4887 27.3477 38.0174 27.0329C37.5461 26.7182 36.9902 26.5541 36.4235 26.5625C36.1762 26.5377 35.9265 26.5648 35.6903 26.6419C35.4541 26.7189 35.2365 26.8444 35.0514 27.0102C34.8664 27.176 34.7179 27.3785 34.6154 27.6049C34.5129 27.8313 34.4588 28.0765 34.4563 28.325C34.4563 29.5578 35.2204 30.0578 36.9844 30.825L38.0125 31.2656C41.5063 32.7641 43.4813 34.2906 43.4813 37.7234C43.4813 41.425 40.5735 43.4531 36.6688 43.4531C35.1474 43.5501 33.6305 43.2046 32.301 42.4586C30.9716 41.7125 29.8865 40.5976 29.1766 39.2484L32.5141 37.3047ZM17.9907 37.6609C18.636 38.8063 19.2235 39.775 20.636 39.775C21.986 39.775 22.8391 39.2469 22.8391 37.1922V23.2125H26.95V37.2469C26.95 41.5031 24.45 43.4406 20.811 43.4406C19.5247 43.5109 18.2472 43.1904 17.1464 42.5211C16.0457 41.8518 15.1733 40.865 14.6438 39.6906L17.9907 37.6609Z" fill="black"/>
</g>
</svg>
