<svg width="709" height="512" viewBox="0 0 709 512" fill="none" xmlns="http://www.w3.org/2000/svg">
<path d="M501.893 71.0268H207.27C200.167 71.0268 193.354 73.852 188.331 78.8809C183.308 83.9099 180.486 90.7306 180.486 97.8425V339.184C180.486 346.296 183.308 353.117 188.331 358.146C193.354 363.175 200.167 366 207.27 366H501.893C508.996 366 515.809 363.175 520.832 358.146C525.854 353.117 528.676 346.296 528.676 339.184V97.8425C528.676 90.7306 525.854 83.9099 520.832 78.8809C515.809 73.852 508.996 71.0268 501.893 71.0268ZM295.657 248.011C298.498 250.144 300.377 253.321 300.879 256.841C301.381 260.361 300.466 263.937 298.335 266.782C296.204 269.627 293.032 271.507 289.516 272.01C286 272.513 282.428 271.597 279.587 269.463L226.019 229.24C224.356 227.991 223.006 226.371 222.076 224.51C221.146 222.648 220.662 220.595 220.662 218.513C220.662 216.432 221.146 214.379 222.076 212.517C223.006 210.655 224.356 209.036 226.019 207.787L279.587 167.563C282.428 165.43 286 164.514 289.516 165.017C293.032 165.52 296.204 167.4 298.335 170.245C300.466 173.09 301.381 176.666 300.879 180.186C300.377 183.706 298.498 186.882 295.657 189.016L256.368 218.513L295.657 248.011ZM394.238 128.345L340.67 316.056C340.214 317.779 339.419 319.393 338.332 320.805C337.244 322.216 335.887 323.397 334.339 324.277C332.791 325.157 331.083 325.719 329.315 325.931C327.547 326.142 325.755 325.999 324.043 325.508C322.331 325.018 320.734 324.191 319.345 323.075C317.957 321.96 316.804 320.578 315.955 319.011C315.106 317.445 314.578 315.724 314.401 313.95C314.224 312.177 314.402 310.385 314.924 308.681L368.492 120.971C369.522 117.615 371.825 114.797 374.908 113.122C377.99 111.448 381.606 111.051 384.977 112.017C388.349 112.982 391.208 115.234 392.94 118.287C394.671 121.34 395.137 124.952 394.238 128.345ZM483.144 229.24L429.576 269.463C426.735 271.597 423.163 272.513 419.647 272.01C416.131 271.507 412.958 269.627 410.827 266.782C408.696 263.937 407.781 260.361 408.284 256.841C408.786 253.321 410.664 250.144 413.506 248.011L452.794 218.513L413.506 189.016C412.099 187.96 410.914 186.636 410.018 185.121C409.122 183.606 408.532 181.929 408.284 180.186C408.035 178.443 408.132 176.668 408.568 174.962C409.004 173.257 409.772 171.654 410.827 170.245C411.883 168.836 413.205 167.65 414.718 166.753C416.231 165.856 417.906 165.266 419.647 165.017C421.388 164.768 423.161 164.864 424.865 165.301C426.568 165.738 428.169 166.507 429.576 167.563L483.144 207.787C484.807 209.036 486.157 210.655 487.087 212.517C488.017 214.379 488.501 216.432 488.501 218.513C488.501 220.595 488.017 222.648 487.087 224.51C486.157 226.371 484.807 227.991 483.144 229.24Z" fill="#2E3132"/>
<rect x="209.133" y="391" width="24.8096" height="24.8096" rx="5.3" fill="#2E3132"/>
<path d="M62.1718 512C53.3467 512 45.1595 510.565 37.6103 507.694C30.1674 504.823 23.6814 500.782 18.1524 495.572C12.7298 490.362 8.4767 484.249 5.39322 477.231C2.41607 470.213 0.92749 462.558 0.92749 454.264C0.92749 445.971 2.41607 438.315 5.39322 431.298C8.4767 424.28 12.7829 418.166 18.3119 412.956C23.8409 407.746 30.3269 403.706 37.7698 400.835C45.2126 397.964 53.2935 396.529 62.0123 396.529C70.8374 396.529 78.9183 397.964 86.2548 400.835C93.6977 403.706 100.13 407.746 105.553 412.956C111.082 418.166 115.388 424.28 118.472 431.298C121.555 438.209 123.097 445.865 123.097 454.264C123.097 462.558 121.555 470.267 118.472 477.391C115.388 484.408 111.082 490.522 105.553 495.732C100.13 500.836 93.6977 504.823 86.2548 507.694C78.9183 510.565 70.8906 512 62.1718 512ZM62.0123 489.99C67.0097 489.99 71.5817 489.14 75.7285 487.438C79.9815 485.737 83.703 483.292 86.8928 480.102C90.0826 476.912 92.5281 473.137 94.2293 468.778C96.0369 464.419 96.9407 459.581 96.9407 454.264C96.9407 448.948 96.0369 444.11 94.2293 439.751C92.5281 435.391 90.0826 431.617 86.8928 428.427C83.8093 425.237 80.141 422.792 75.888 421.09C71.6349 419.389 67.0097 418.539 62.0123 418.539C57.0149 418.539 52.3897 419.389 48.1366 421.09C43.9899 422.792 40.3216 425.237 37.1318 428.427C33.942 431.617 31.4433 435.391 29.6358 439.751C27.9345 444.11 27.0839 448.948 27.0839 454.264C27.0839 459.474 27.9345 464.312 29.6358 468.778C31.4433 473.137 33.8888 476.912 36.9723 480.102C40.1621 483.292 43.8836 485.737 48.1366 487.438C52.3897 489.14 57.0149 489.99 62.0123 489.99Z" fill="#2E3132"/>
<path d="M140.761 510.086V424.28H164.525V448.523L161.175 441.505C163.727 435.445 167.821 430.873 173.456 427.789C179.092 424.599 185.95 423.004 194.03 423.004V445.971C192.967 445.865 192.01 445.811 191.16 445.811C190.309 445.705 189.405 445.652 188.448 445.652C181.643 445.652 176.114 447.619 171.861 451.553C167.715 455.381 165.641 461.388 165.641 469.576V510.086H140.761Z" fill="#2E3132"/>
<path d="M208.98 510.086V424.28H233.861V510.086H208.98Z" fill="#2E3132"/>
<path d="M366.841 423.004C373.646 423.004 379.653 424.387 384.863 427.151C390.18 429.809 394.326 433.956 397.303 439.591C400.387 445.12 401.929 452.244 401.929 460.963V510.086H377.048V464.791C377.048 457.88 375.613 452.776 372.742 449.48C369.871 446.184 365.831 444.536 360.621 444.536C357.005 444.536 353.763 445.386 350.892 447.087C348.021 448.682 345.788 451.128 344.193 454.424C342.598 457.72 341.801 461.92 341.801 467.024V510.086H316.92V464.791C316.92 457.88 315.485 452.776 312.614 449.48C309.85 446.184 305.862 444.536 300.652 444.536C297.037 444.536 293.794 445.386 290.923 447.087C288.052 448.682 285.82 451.128 284.225 454.424C282.63 457.72 281.832 461.92 281.832 467.024V510.086H256.952V424.28H280.716V447.725L276.25 440.867C279.227 435.019 283.427 430.607 288.85 427.63C294.379 424.546 300.652 423.004 307.67 423.004C315.538 423.004 322.396 425.025 328.244 429.065C334.198 432.999 338.132 439.06 340.046 447.247L331.274 444.855C334.145 438.156 338.717 432.84 344.991 428.905C351.37 424.971 358.654 423.004 366.841 423.004Z" fill="#2E3132"/>
<path d="M465.682 511.362C456.538 511.362 448.404 509.448 441.28 505.62C434.263 501.793 428.681 496.583 424.534 489.99C420.493 483.292 418.473 475.689 418.473 467.183C418.473 458.571 420.493 450.968 424.534 444.376C428.681 437.677 434.263 432.467 441.28 428.746C448.404 424.918 456.538 423.004 465.682 423.004C474.72 423.004 482.801 424.918 489.925 428.746C497.049 432.467 502.631 437.624 506.671 444.217C510.712 450.809 512.732 458.464 512.732 467.183C512.732 475.689 510.712 483.292 506.671 489.99C502.631 496.583 497.049 501.793 489.925 505.62C482.801 509.448 474.72 511.362 465.682 511.362ZM465.682 490.947C469.829 490.947 473.551 489.99 476.847 488.076C480.143 486.163 482.748 483.451 484.662 479.942C486.576 476.327 487.533 472.074 487.533 467.183C487.533 462.186 486.576 457.933 484.662 454.424C482.748 450.915 480.143 448.204 476.847 446.29C473.551 444.376 469.829 443.419 465.682 443.419C461.536 443.419 457.814 444.376 454.518 446.29C451.222 448.204 448.564 450.915 446.544 454.424C444.63 457.933 443.673 462.186 443.673 467.183C443.673 472.074 444.63 476.327 446.544 479.942C448.564 483.451 451.222 486.163 454.518 488.076C457.814 489.99 461.536 490.947 465.682 490.947Z" fill="#2E3132"/>
<path d="M565.567 511.362C558.443 511.362 552.063 509.98 546.428 507.215C540.899 504.451 536.593 500.251 533.509 494.616C530.426 488.874 528.884 481.59 528.884 472.765V424.28H553.765V469.097C553.765 476.221 555.253 481.484 558.23 484.887C561.314 488.183 565.62 489.831 571.149 489.831C574.977 489.831 578.379 489.033 581.357 487.438C584.334 485.737 586.673 483.185 588.374 479.783C590.075 476.274 590.926 471.915 590.926 466.705V424.28H615.806V510.086H592.202V486.481L596.508 493.34C593.637 499.294 589.384 503.813 583.749 506.896C578.22 509.873 572.159 511.362 565.567 511.362Z" fill="#2E3132"/>
<path d="M667.724 511.362C660.388 511.362 653.317 510.511 646.512 508.81C639.813 507.003 634.497 504.77 630.563 502.112L638.857 484.249C642.791 486.694 647.416 488.714 652.732 490.309C658.155 491.798 663.471 492.542 668.681 492.542C674.423 492.542 678.463 491.851 680.802 490.469C683.248 489.086 684.471 487.173 684.471 484.727C684.471 482.707 683.514 481.218 681.6 480.261C679.792 479.198 677.347 478.401 674.263 477.869C671.18 477.337 667.777 476.806 664.056 476.274C660.441 475.742 656.773 475.051 653.051 474.201C649.33 473.244 645.927 471.862 642.844 470.054C639.76 468.246 637.262 465.801 635.348 462.717C633.54 459.634 632.636 455.647 632.636 450.756C632.636 445.333 634.178 440.548 637.262 436.402C640.451 432.255 645.023 429.012 650.978 426.673C656.932 424.227 664.056 423.004 672.349 423.004C678.197 423.004 684.152 423.642 690.212 424.918C696.273 426.194 701.324 428.055 705.364 430.5L697.07 448.204C692.924 445.758 688.724 444.11 684.471 443.26C680.324 442.303 676.284 441.824 672.349 441.824C666.82 441.824 662.78 442.568 660.228 444.057C657.676 445.546 656.4 447.46 656.4 449.799C656.4 451.925 657.304 453.52 659.112 454.583C661.026 455.647 663.524 456.497 666.608 457.135C669.691 457.773 673.041 458.358 676.656 458.89C680.377 459.315 684.099 460.006 687.82 460.963C691.542 461.92 694.891 463.302 697.868 465.11C700.951 466.811 703.45 469.203 705.364 472.287C707.278 475.264 708.235 479.198 708.235 484.089C708.235 489.405 706.64 494.137 703.45 498.284C700.26 502.324 695.635 505.514 689.574 507.853C683.62 510.192 676.337 511.362 667.724 511.362Z" fill="#2E3132"/>
<path d="M521.449 0L512.083 20.443L491.714 29.7352L512.083 39.1018L521.449 59.4704L530.741 39.1018L551.184 29.7352L530.741 20.443M447.111 22.3014L428.527 63.1873L387.641 81.7719L428.527 100.356L447.111 141.242L465.696 100.356L506.581 81.7719L465.696 63.1873M521.449 104.073L512.083 124.442L491.714 133.809L512.083 143.101L521.449 163.544L530.741 143.101L551.184 133.809L530.741 124.442" fill="#565494"/>
</svg>
