<svg width="84" height="60" viewBox="0 0 84 60" fill="none" xmlns="http://www.w3.org/2000/svg">
<g clip-path="url(#clip0_7_14)">
<path d="M58.8155 8.32346H24.2894C23.4571 8.32346 22.6587 8.65453 22.07 9.24386C21.4814 9.83319 21.1507 10.6325 21.1507 11.4659V39.7481C21.1507 40.5816 21.4814 41.3809 22.07 41.9702C22.6587 42.5596 23.4571 42.8906 24.2894 42.8906H58.8155C59.648 42.8906 60.4462 42.5596 61.0349 41.9702C61.6235 41.3809 61.9542 40.5816 61.9542 39.7481V11.4659C61.9542 10.6325 61.6235 9.83319 61.0349 9.24386C60.4462 8.65453 59.648 8.32346 58.8155 8.32346ZM34.6473 29.0638C34.9802 29.3138 35.2004 29.6861 35.2593 30.0986C35.3181 30.5111 35.2109 30.9301 34.9611 31.2635C34.7114 31.5969 34.3397 31.8172 33.9276 31.8762C33.5155 31.9351 33.097 31.8278 32.764 31.5777L26.4866 26.8641C26.2917 26.7177 26.1335 26.5279 26.0245 26.3098C25.9155 26.0916 25.8588 25.851 25.8588 25.607C25.8588 25.3631 25.9155 25.1225 26.0245 24.9043C26.1335 24.6861 26.2917 24.4964 26.4866 24.35L32.764 19.6363C33.097 19.3863 33.5155 19.279 33.9276 19.3379C34.3397 19.3969 34.7114 19.6172 34.9611 19.9506C35.2109 20.284 35.3181 20.703 35.2593 21.1156C35.2004 21.528 34.9802 21.9002 34.6473 22.1503L30.0431 25.607L34.6473 29.0638ZM46.1998 15.0404L39.9223 37.0378C39.8688 37.2397 39.7757 37.4289 39.6483 37.5943C39.5208 37.7597 39.3617 37.8981 39.1803 38.0012C38.9988 38.1043 38.7987 38.1702 38.5916 38.195C38.3844 38.2198 38.1743 38.203 37.9738 38.1455C37.7732 38.088 37.586 37.9911 37.4232 37.8604C37.2606 37.7297 37.1255 37.5677 37.026 37.3841C36.9265 37.2006 36.8646 36.9989 36.8439 36.791C36.8231 36.5832 36.844 36.3732 36.9052 36.1736L43.1826 14.1763C43.3034 13.783 43.5732 13.4528 43.9345 13.2565C44.2957 13.0603 44.7194 13.0138 45.1145 13.127C45.5096 13.2401 45.8447 13.504 46.0475 13.8618C46.2505 14.2195 46.3051 14.6428 46.1998 15.0404ZM56.6184 26.8641L50.3409 31.5777C50.008 31.8278 49.5894 31.9351 49.1774 31.8762C48.7653 31.8172 48.3935 31.5969 48.1438 31.2635C47.8941 30.9301 47.7868 30.5111 47.8457 30.0986C47.9046 29.6861 48.1247 29.3138 48.4577 29.0638L53.0618 25.607L48.4577 22.1503C48.2928 22.0266 48.1539 21.8714 48.0489 21.6939C47.9439 21.5163 47.8748 21.3198 47.8457 21.1156C47.8166 20.9113 47.8278 20.7033 47.8791 20.5034C47.9301 20.3036 48.0201 20.1157 48.1438 19.9506C48.2674 19.7855 48.4223 19.6465 48.5998 19.5414C48.7771 19.4363 48.9734 19.3671 49.1774 19.3379C49.3814 19.3088 49.5892 19.32 49.7887 19.3712C49.9884 19.4224 50.176 19.5125 50.3409 19.6363L56.6184 24.35C56.8133 24.4964 56.9715 24.6861 57.0805 24.9043C57.1894 25.1225 57.2461 25.3631 57.2461 25.607C57.2461 25.851 57.1894 26.0916 57.0805 26.3098C56.9715 26.5279 56.8133 26.7177 56.6184 26.8641Z" fill="white"/>
<path d="M26.7941 45.8203H25.1289C24.7859 45.8203 24.5078 46.0984 24.5078 46.4414V48.1066C24.5078 48.4496 24.7859 48.7277 25.1289 48.7277H26.7941C27.1371 48.7277 27.4152 48.4496 27.4152 48.1066V46.4414C27.4152 46.0984 27.1371 45.8203 26.7941 45.8203Z" fill="white"/>
<path d="M7.28577 60C6.25158 60 5.29214 59.8318 4.40747 59.4954C3.53525 59.1589 2.77519 58.6854 2.12726 58.0748C1.49178 57.4643 0.993376 56.7479 0.632031 55.9255C0.283146 55.1031 0.108704 54.206 0.108704 53.2341C0.108704 52.2622 0.283146 51.365 0.632031 50.5427C0.993376 49.7203 1.49802 49.0038 2.14595 48.3933C2.79388 47.7827 3.55394 47.3093 4.42616 46.9728C5.29837 46.6364 6.24534 46.4682 7.26708 46.4682C8.30128 46.4682 9.24825 46.6364 10.108 46.9728C10.9802 47.3093 11.7341 47.7827 12.3695 48.3933C13.0174 49.0038 13.5221 49.7203 13.8834 50.5427C14.2447 51.3526 14.4254 52.2498 14.4254 53.2341C14.4254 54.206 14.2447 55.1094 13.8834 55.9442C13.5221 56.7666 13.0174 57.483 12.3695 58.0936C11.7341 58.6917 10.9802 59.1589 10.108 59.4954C9.24825 59.8318 8.3075 60 7.28577 60ZM7.26708 57.4207C7.85271 57.4207 8.38849 57.3211 8.87444 57.1216C9.37285 56.9223 9.80896 56.6358 10.1828 56.2619C10.5566 55.8881 10.8431 55.4457 11.0425 54.9349C11.2543 54.4241 11.3602 53.8571 11.3602 53.2341C11.3602 52.6111 11.2543 52.0441 11.0425 51.5333C10.8431 51.0224 10.5566 50.5801 10.1828 50.2063C9.82141 49.8325 9.39155 49.5459 8.89314 49.3465C8.39473 49.1471 7.85271 49.0475 7.26708 49.0475C6.68146 49.0475 6.13943 49.1471 5.64103 49.3465C5.15508 49.5459 4.7252 49.8325 4.35139 50.2063C3.97759 50.5801 3.68477 51.0224 3.47296 51.5333C3.27359 52.0441 3.17391 52.6111 3.17391 53.2341C3.17391 53.8446 3.27359 54.4116 3.47296 54.9349C3.68477 55.4457 3.97137 55.8881 4.3327 56.2619C4.70651 56.6358 5.14262 56.9223 5.64103 57.1216C6.13943 57.3211 6.68146 57.4207 7.26708 57.4207Z" fill="white"/>
<path d="M16.4954 59.7757V49.7203H19.2803V52.5613L18.8878 51.7389C19.1867 51.0287 19.6665 50.4929 20.3269 50.1315C20.9873 49.7577 21.791 49.5708 22.738 49.5708V52.2622C22.6133 52.2498 22.5012 52.2435 22.4016 52.2435C22.3018 52.231 22.1959 52.2248 22.0837 52.2248C21.2863 52.2248 20.6384 52.4553 20.14 52.9164C19.6541 53.365 19.411 54.0689 19.411 55.0284V59.7757H16.4954Z" fill="white"/>
<path d="M24.4898 59.7757V49.7203H27.4056V59.7757H24.4898Z" fill="white"/>
<path d="M42.9892 49.5708C43.7867 49.5708 44.4906 49.7328 45.1011 50.0567C45.7242 50.3682 46.2101 50.8542 46.5591 51.5146C46.9204 52.1625 47.1011 52.9973 47.1011 54.0191V59.7757H44.1853V54.4677C44.1853 53.6578 44.0172 53.0597 43.6807 52.6734C43.3443 52.2872 42.8708 52.0941 42.2603 52.0941C41.8367 52.0941 41.4566 52.1937 41.1202 52.393C40.7837 52.5799 40.522 52.8666 40.3351 53.2528C40.1482 53.6391 40.0548 54.1312 40.0548 54.7294V59.7757H37.1391V54.4677C37.1391 53.6578 36.9709 53.0597 36.6345 52.6734C36.3106 52.2872 35.8432 52.0941 35.2327 52.0941C34.809 52.0941 34.429 52.1937 34.0925 52.393C33.7562 52.5799 33.4945 52.8666 33.3076 53.2528C33.1207 53.6391 33.0272 54.1312 33.0272 54.7294V59.7757H30.1116V49.7203H32.8964V52.4678L32.3731 51.6641C32.7219 50.9788 33.2141 50.4617 33.8496 50.1129C34.4976 49.7515 35.2327 49.5708 36.0551 49.5708C36.9771 49.5708 37.7808 49.8076 38.4661 50.281C39.1638 50.7421 39.625 51.4523 39.8491 52.4117L38.8213 52.1314C39.1576 51.3464 39.6934 50.7234 40.4286 50.2623C41.1762 49.8013 42.0298 49.5708 42.9892 49.5708Z" fill="white"/>
<path d="M54.5722 59.9252C53.5005 59.9252 52.5473 59.7009 51.7125 59.2523C50.8902 58.8039 50.236 58.1933 49.7501 57.4207C49.2766 56.6358 49.0398 55.7448 49.0398 54.748C49.0398 53.7388 49.2766 52.8478 49.7501 52.0753C50.236 51.2903 50.8902 50.6797 51.7125 50.2437C52.5473 49.7951 53.5005 49.5708 54.5722 49.5708C55.6312 49.5708 56.5782 49.7951 57.4131 50.2437C58.2479 50.6797 58.9021 51.2841 59.3756 52.0567C59.8491 52.8292 60.0858 53.7262 60.0858 54.748C60.0858 55.7448 59.8491 56.6358 59.3756 57.4207C58.9021 58.1933 58.2479 58.8039 57.4131 59.2523C56.5782 59.7009 55.6312 59.9252 54.5722 59.9252ZM54.5722 57.5328C55.0581 57.5328 55.4942 57.4207 55.8805 57.1964C56.2667 56.9722 56.572 56.6544 56.7963 56.2432C57.0206 55.8196 57.1328 55.3212 57.1328 54.748C57.1328 54.1624 57.0206 53.664 56.7963 53.2528C56.572 52.8416 56.2667 52.5239 55.8805 52.2996C55.4942 52.0753 55.0581 51.9632 54.5722 51.9632C54.0862 51.9632 53.6501 52.0753 53.2638 52.2996C52.8776 52.5239 52.5661 52.8416 52.3294 53.2528C52.1051 53.664 51.9929 54.1624 51.9929 54.748C51.9929 55.3212 52.1051 55.8196 52.3294 56.2432C52.5661 56.6544 52.8776 56.9722 53.2638 57.1964C53.6501 57.4207 54.0862 57.5328 54.5722 57.5328Z" fill="white"/>
<path d="M66.2774 59.9252C65.4425 59.9252 64.695 59.7633 64.0345 59.4393C63.3866 59.1153 62.882 58.6232 62.5207 57.9628C62.1593 57.2899 61.9786 56.4363 61.9786 55.4021V49.7203H64.8943V54.9723C64.8943 55.8071 65.0687 56.4239 65.4177 56.8227C65.779 57.2089 66.2836 57.4021 66.9315 57.4021C67.3801 57.4021 67.7788 57.3085 68.1278 57.1216C68.4766 56.9223 68.7507 56.6232 68.9501 56.2246C69.1494 55.8134 69.2491 55.3025 69.2491 54.692V49.7203H72.1649V59.7757H69.3987V57.0095L69.9033 57.8133C69.5668 58.511 69.0684 59.0406 68.4081 59.4019C67.7602 59.7507 67.0499 59.9252 66.2774 59.9252Z" fill="white"/>
<path d="M78.2489 59.9252C77.3892 59.9252 76.5606 59.8255 75.7631 59.6262C74.9782 59.4144 74.3551 59.1527 73.8941 58.8412L74.8661 56.7479C75.3271 57.0344 75.8691 57.2712 76.492 57.4581C77.1275 57.6326 77.7505 57.7198 78.3611 57.7198C79.034 57.7198 79.5074 57.6388 79.7816 57.4768C80.0681 57.3148 80.2115 57.0906 80.2115 56.8039C80.2115 56.5672 80.0993 56.3927 79.875 56.2806C79.6631 56.156 79.3766 56.0626 79.0153 56.0003C78.6539 55.9379 78.2552 55.8757 77.8191 55.8133C77.3954 55.751 76.9656 55.67 76.5294 55.5704C76.0934 55.4583 75.6946 55.2963 75.3333 55.0844C74.9719 54.8726 74.6791 54.586 74.4549 54.2246C74.243 53.8633 74.1372 53.3961 74.1372 52.823C74.1372 52.1875 74.3177 51.6267 74.6791 51.1408C75.053 50.6549 75.5888 50.2748 76.2865 50.0007C76.9842 49.7141 77.8191 49.5708 78.791 49.5708C79.4763 49.5708 80.1741 49.6455 80.8843 49.7951C81.5945 49.9446 82.1864 50.1627 82.6598 50.4492L81.688 52.5239C81.202 52.2373 80.7098 52.0441 80.2115 51.9445C79.7255 51.8324 79.252 51.7762 78.791 51.7762C78.1431 51.7762 77.6695 51.8634 77.3705 52.0379C77.0715 52.2124 76.922 52.4367 76.922 52.7108C76.922 52.96 77.0278 53.1469 77.2397 53.2714C77.464 53.3961 77.7567 53.4957 78.1181 53.5705C78.4794 53.6453 78.872 53.7138 79.2956 53.7762C79.7317 53.826 80.1679 53.9069 80.6039 54.0191C81.0401 54.1312 81.4325 54.2932 81.7814 54.5051C82.1428 54.7044 82.4356 54.9847 82.6598 55.3461C82.8841 55.695 82.9963 56.156 82.9963 56.7292C82.9963 57.3521 82.8094 57.9067 82.4356 58.3926C82.0617 58.8661 81.5197 59.2399 80.8096 59.514C80.1117 59.7881 79.2582 59.9252 78.2489 59.9252Z" fill="white"/>
<path d="M61.1073 0L60.0097 2.39566L57.6227 3.48459L60.0097 4.58224L61.1073 6.96919L62.1962 4.58224L64.5919 3.48459L62.1962 2.39566M52.3958 2.61345L50.218 7.40476L45.4267 9.58264L50.218 11.7605L52.3958 16.5518L54.5738 11.7605L59.365 9.58264L54.5738 7.40476M61.1073 12.1961L60.0097 14.583L57.6227 15.6806L60.0097 16.7696L61.1073 19.1653L62.1962 16.7696L64.5919 15.6806L62.1962 14.583" fill="#C3C1FF"/>
</g>
<defs>
<clipPath id="clip0_7_14">
<rect width="83.0859" height="60" fill="white"/>
</clipPath>
</defs>
</svg>
