<svg width="123" height="40" viewBox="0 0 123 40" fill="none" xmlns="http://www.w3.org/2000/svg">
<path d="M37.4718 5.99736H3.50963C2.69078 5.99736 1.90547 6.32303 1.32646 6.90273C0.747444 7.48244 0.422157 8.26868 0.422157 9.08851V36.9089C0.422157 37.7287 0.747444 38.5149 1.32646 39.0946C1.90547 39.6743 2.69078 40 3.50963 40H37.4718C38.2907 40 39.076 39.6743 39.655 39.0946C40.234 38.5149 40.5593 37.7287 40.5593 36.9089V9.08851C40.5593 8.26868 40.234 7.48244 39.655 6.90273C39.076 6.32303 38.2907 5.99736 37.4718 5.99736ZM13.6983 26.399C14.0258 26.6449 14.2424 27.011 14.3003 27.4168C14.3582 27.8226 14.2527 28.2348 14.007 28.5628C13.7614 28.8907 13.3957 29.1075 12.9904 29.1655C12.5851 29.2234 12.1733 29.1178 11.8458 28.8719L5.67086 24.2351C5.47914 24.0912 5.32352 23.9045 5.21634 23.6899C5.10917 23.4753 5.05337 23.2386 5.05337 22.9987C5.05337 22.7587 5.10917 22.5221 5.21634 22.3075C5.32352 22.0929 5.47914 21.9062 5.67086 21.7622L11.8458 17.1255C12.1733 16.8796 12.5851 16.7739 12.9904 16.8319C13.3957 16.8899 13.7614 17.1067 14.007 17.4346C14.2527 17.7625 14.3582 18.1747 14.3003 18.5805C14.2424 18.9863 14.0258 19.3525 13.6983 19.5984L9.16936 22.9987L13.6983 26.399ZM25.0621 12.6047L18.8872 34.2427C18.8346 34.4414 18.7429 34.6275 18.6176 34.7902C18.4923 34.9529 18.3358 35.089 18.1573 35.1904C17.9788 35.2919 17.7819 35.3567 17.5782 35.3811C17.3744 35.4055 17.1678 35.3889 16.9704 35.3324C16.7731 35.2759 16.589 35.1805 16.429 35.0519C16.2689 34.9233 16.136 34.7641 16.0382 34.5835C15.9403 34.4029 15.8794 34.2045 15.859 34.0001C15.8386 33.7956 15.8591 33.5891 15.9193 33.3927L22.0943 11.7546C22.213 11.3677 22.4785 11.0429 22.8338 10.8499C23.1892 10.6568 23.6059 10.6111 23.9946 10.7224C24.3833 10.8337 24.7128 11.0933 24.9124 11.4452C25.112 11.7972 25.1658 12.2135 25.0621 12.6047ZM35.3106 24.2351L29.1357 28.8719C28.8081 29.1178 28.3964 29.2234 27.9911 29.1655C27.5858 29.1075 27.2201 28.8907 26.9744 28.5628C26.7288 28.2348 26.6233 27.8226 26.6812 27.4168C26.7391 27.011 26.9556 26.6449 27.2832 26.399L31.8121 22.9987L27.2832 19.5984C27.121 19.4766 26.9844 19.3241 26.8811 19.1494C26.7778 18.9748 26.7099 18.7815 26.6812 18.5805C26.6525 18.3796 26.6637 18.175 26.714 17.9784C26.7643 17.7818 26.8528 17.597 26.9744 17.4346C27.0961 17.2722 27.2485 17.1354 27.4229 17.032C27.5973 16.9286 27.7904 16.8606 27.9911 16.8319C28.1918 16.8032 28.3962 16.8144 28.5925 16.8647C28.7889 16.9151 28.9735 17.0037 29.1357 17.1255L35.3106 21.7622C35.5023 21.9062 35.6579 22.0929 35.7651 22.3075C35.8723 22.5221 35.9281 22.7587 35.9281 22.9987C35.9281 23.2386 35.8723 23.4753 35.7651 23.6899C35.6579 23.9045 35.5023 24.0912 35.3106 24.2351Z" fill="white"/>
<path d="M56.4612 15.5142C57.0829 15.5142 57.8888 16.2477 58.8788 17.7145C59.5368 18.8977 59.8657 20.114 59.8657 21.3636C59.8657 23.6876 58.8335 25.6434 56.769 27.231C55.4772 28.0761 54.113 28.4987 52.6763 28.4987C50.5696 28.4987 48.7315 27.6204 47.162 25.8638C46.0935 24.4331 45.5593 22.9964 45.5593 21.5537C45.5593 21.0708 45.8642 20.6935 46.4738 20.4219C46.6127 20.3917 46.7153 20.3766 46.7817 20.3766H46.827C47.4246 20.3766 47.8411 20.7116 48.0765 21.3817C48.155 22.2147 48.2667 22.7489 48.4115 22.9844C48.816 24.0951 49.5826 24.9341 50.7114 25.5016C51.3332 25.7913 51.9308 25.9362 52.5043 25.9362H52.8665C54.285 25.9362 55.5074 25.2722 56.5336 23.9442C57.0407 23.1051 57.2942 22.3143 57.2942 21.5718V21.1463C57.2942 19.8243 56.6634 18.626 55.4018 17.5515C55.2448 17.2859 55.1664 17.0535 55.1664 16.8543V16.7366C55.1664 16.1692 55.5104 15.7708 56.1986 15.5414C56.3374 15.5233 56.425 15.5142 56.4612 15.5142ZM65.697 15.5052H66.041C67.6649 15.5052 68.8239 16.3261 69.5181 17.9681C69.6871 18.4872 69.7716 18.9671 69.7716 19.4078C69.7716 20.6452 69.2434 21.6594 68.187 22.4501C67.855 22.6192 67.689 22.7188 67.689 22.7489C69.011 25.5016 69.6901 26.9533 69.7263 27.1043C69.7565 27.219 69.7716 27.3035 69.7716 27.3578C69.7716 27.883 69.4637 28.2572 68.848 28.4806L68.5945 28.4987C68.0331 28.4987 67.5894 28.0339 67.2634 27.1043L65.3167 23.0568H63.0802V24.0166C63.0802 24.6082 62.7602 25.0006 62.1204 25.1937H61.9302C61.4111 25.1937 61.0459 24.9009 60.8346 24.3154C60.8044 24.1766 60.7893 24.0347 60.7893 23.8898V19.453C60.7893 18.783 61.0881 18.3544 61.6857 18.1673L61.903 18.1401H61.9664C62.4312 18.1401 62.7814 18.4057 63.0168 18.9369C63.059 19.0878 63.0802 19.2176 63.0802 19.3263V20.7569H66.195C66.9254 20.7569 67.354 20.3706 67.4807 19.5979V19.2991C67.4807 18.5989 67.1518 18.1129 66.4938 17.8413C66.3851 17.8111 66.2855 17.796 66.195 17.796H65.9143C65.2684 17.796 64.8398 17.5606 64.6285 17.0898C64.5742 16.9328 64.538 16.7849 64.5199 16.6461C64.5199 16.1692 64.7855 15.81 65.3167 15.5686C65.4676 15.5263 65.5943 15.5052 65.697 15.5052ZM61.9302 26.2078C62.3648 26.2078 62.715 26.4342 62.9806 26.8869C63.047 27.068 63.0802 27.234 63.0802 27.385C63.0802 27.8679 62.7964 28.224 62.229 28.4534C62.0902 28.4836 61.9815 28.4987 61.903 28.4987C61.4141 28.4987 61.0579 28.2059 60.8346 27.6204L60.7893 27.3578C60.7893 26.893 61.0459 26.5368 61.559 26.2893C61.6918 26.2531 61.8155 26.226 61.9302 26.2078ZM71.8451 15.5233H71.8632C72.4065 15.5233 72.7838 15.8191 72.9951 16.4107C73.0252 16.5555 73.0403 16.7004 73.0403 16.8453V27.1767C73.0403 27.8588 72.7415 28.2844 72.1439 28.4534C72.0836 28.4836 71.99 28.4987 71.8632 28.4987H71.8451C71.3743 28.4987 71.0181 28.2301 70.7767 27.6928C70.7344 27.5419 70.7133 27.4121 70.7133 27.3035V16.7185C70.7133 16.1632 71.003 15.7798 71.5825 15.5686C71.6851 15.5384 71.7727 15.5233 71.8451 15.5233ZM75.1139 15.5414C75.6209 15.5414 76.0797 15.8976 76.4902 16.6099L79.9853 21.2549C82.6413 17.7176 84.0207 15.8976 84.1233 15.7949C84.3768 15.6259 84.6243 15.5414 84.8658 15.5414C85.4332 15.5414 85.8226 15.8583 86.0338 16.4921C86.0519 16.5948 86.061 16.6763 86.061 16.7366C86.061 17.0988 85.6475 17.7779 84.8205 18.7739C82.6776 21.6835 81.3314 23.4794 80.7821 24.1615C80.6372 24.3184 80.3716 24.4241 79.9853 24.4784C79.5024 24.4784 79.0436 24.1192 78.609 23.4009L76.3362 20.3947H76.3091V27.3216C76.3091 27.8347 76.0314 28.2059 75.476 28.4353C75.3553 28.4776 75.2436 28.4987 75.141 28.4987H75.0958C74.5464 28.4987 74.1601 28.1818 73.9367 27.5479C73.9247 27.4453 73.9186 27.3638 73.9186 27.3035V16.7366C73.9186 16.1692 74.2356 15.7798 74.8694 15.5686C74.972 15.5505 75.0535 15.5414 75.1139 15.5414ZM97.8049 15.5142C98.4267 15.5142 99.2326 16.2477 100.223 17.7145C100.881 18.8977 101.21 20.114 101.21 21.3636C101.21 23.6876 100.177 25.6434 98.1128 27.231C96.821 28.0761 95.4568 28.4987 94.0201 28.4987C91.9134 28.4987 90.0752 27.6204 88.5058 25.8638C87.4373 24.4331 86.9031 22.9964 86.9031 21.5537C86.9031 21.0708 87.2079 20.6935 87.8176 20.4219C87.9564 20.3917 88.0591 20.3766 88.1255 20.3766H88.1707C88.7684 20.3766 89.1849 20.7116 89.4203 21.3817C89.4988 22.2147 89.6104 22.7489 89.7553 22.9844C90.1598 24.0951 90.9264 24.9341 92.0552 25.5016C92.677 25.7913 93.2746 25.9362 93.848 25.9362H94.2102C95.6288 25.9362 96.8512 25.2722 97.8774 23.9442C98.3844 23.1051 98.638 22.3143 98.638 21.5718V21.1463C98.638 19.8243 98.0072 18.626 96.7455 17.5515C96.5886 17.2859 96.5101 17.0535 96.5101 16.8543V16.7366C96.5101 16.1692 96.8542 15.7708 97.5424 15.5414C97.6812 15.5233 97.7687 15.5142 97.8049 15.5142ZM111.007 15.5233C111.109 15.5233 111.218 15.5444 111.333 15.5867C111.87 15.81 112.139 16.1662 112.139 16.6551V16.7004C112.139 16.7728 112.126 16.8604 112.102 16.963C111.897 17.5425 111.526 17.8322 110.989 17.8322C110.928 17.8322 110.847 17.8262 110.744 17.8141C110.134 17.5968 109.83 17.2316 109.83 16.7185V16.637C109.83 16.5827 109.839 16.5163 109.857 16.4378C110.062 15.8281 110.439 15.5233 110.989 15.5233H111.007ZM103.555 15.5414C104.164 15.7406 104.469 16.1632 104.469 16.8091V23.8355C104.469 24.2098 104.563 24.578 104.75 24.9402C105.281 25.7732 106.075 26.1897 107.131 26.1897C107.928 26.1897 108.595 25.9422 109.132 25.4472C109.597 25.079 109.83 24.4029 109.83 23.419V21.9974C109.83 21.937 109.839 21.8586 109.857 21.762C110.086 21.1523 110.463 20.8475 110.989 20.8475C111.14 20.8595 111.248 20.8807 111.315 20.9108C111.864 21.1282 112.139 21.4994 112.139 22.0246V23.6997C112.139 24.744 111.849 25.6827 111.269 26.5157C110.201 27.8377 108.828 28.4987 107.149 28.4987H107.104C106.633 28.4987 106.075 28.4112 105.429 28.2361C103.232 27.4151 102.133 25.8366 102.133 23.5005V16.791C102.133 16.6582 102.148 16.5344 102.178 16.4197C102.396 15.8221 102.758 15.5233 103.265 15.5233H103.328L103.555 15.5414ZM117.182 15.5323H117.426C118.561 15.5323 119.615 15.9519 120.587 16.791C121.353 17.5938 121.737 18.4993 121.737 19.5074C121.737 20.0265 121.45 20.3917 120.876 20.603C120.75 20.6151 120.674 20.6301 120.65 20.6483C120.239 20.6483 119.907 20.44 119.654 20.0235C119.582 19.8907 119.527 19.5768 119.491 19.0818C119.322 18.5868 119.053 18.2488 118.685 18.0677C118.269 17.8322 117.804 17.7145 117.291 17.7145C116.307 17.7145 115.646 18.1009 115.308 18.8735C115.241 19.0667 115.208 19.2991 115.208 19.5707V19.6522C115.208 19.9239 115.462 20.1925 115.969 20.4581C116.24 20.7358 116.376 21.0165 116.376 21.3002C116.376 21.759 116.123 22.103 115.616 22.3324C115.507 22.3747 115.404 22.3958 115.308 22.3958H115.262C114.81 22.3958 114.233 22.0185 113.533 21.264C113.177 20.7086 112.999 20.1502 112.999 19.5889C112.999 18.1582 113.617 17.0264 114.855 16.1933C115.628 15.7527 116.403 15.5323 117.182 15.5323ZM117.716 21.0557H117.798C118.293 21.0557 118.637 21.3515 118.83 21.9431C118.848 22.0397 118.857 22.1151 118.857 22.1694C118.857 22.6644 118.561 23.0146 117.97 23.2198C117.873 23.2319 117.798 23.2379 117.743 23.2379C117.242 23.2379 116.892 22.9512 116.693 22.3777C116.675 22.3053 116.666 22.2419 116.666 22.1876V22.1061C116.666 21.6352 116.935 21.3002 117.472 21.101C117.568 21.0708 117.65 21.0557 117.716 21.0557ZM120.134 22.1061C120.647 22.1061 121.106 22.5196 121.51 23.3466C121.661 23.7329 121.737 24.0981 121.737 24.4422C121.737 25.7521 121.193 26.8236 120.107 27.6566C119.268 28.218 118.368 28.4987 117.408 28.4987H117.327C115.848 28.4987 114.647 27.9131 113.723 26.7421C113.24 26.0237 112.999 25.2631 112.999 24.4603C112.999 23.9894 113.246 23.6393 113.741 23.4099C113.868 23.3677 113.986 23.3405 114.094 23.3284C114.601 23.3284 114.958 23.6091 115.163 24.1705C115.205 24.6957 115.268 25.0458 115.353 25.2209C115.757 25.9513 116.43 26.3165 117.372 26.3165C118.398 26.3165 119.093 25.897 119.455 25.0579C119.509 24.8587 119.536 24.6655 119.536 24.4784V24.3788C119.536 24.252 119.412 24.0377 119.165 23.7359C119.068 23.5427 119.02 23.3647 119.02 23.2017C119.02 22.7188 119.289 22.3747 119.826 22.1694C119.886 22.1453 119.989 22.1242 120.134 22.1061Z" fill="white"/>
<path d="M43.2834 1.52588e-05L42.2037 2.35655L39.8557 3.4277L42.2037 4.50743L43.2834 6.85539L44.3546 4.50743L46.7111 3.4277L44.3546 2.35655M34.7142 2.57078L32.5719 7.28385L27.8588 9.42616L32.5719 11.5685L34.7142 16.2815L36.8565 11.5685L41.5696 9.42616L36.8565 7.28385M43.2834 11.9969L42.2037 14.3449L39.8557 15.4246L42.2037 16.4958L43.2834 18.8523L44.3546 16.4958L46.7111 15.4246L44.3546 14.3449" fill="#D46C4E"/>
</svg>
