<svg width="500" height="500" viewBox="0 0 500 500" fill="none" xmlns="http://www.w3.org/2000/svg">
<path d="M424.57 219.77C426.1 178.35 411.22 136.43 378.42 116.48C362.23 106.63 343.3 100.86 324.36 101.71C304.04 102.62 284.91 110.89 265.75 117.71C246.59 124.53 225.84 129.98 206.09 125.14C191.8 121.64 179.23 112.99 165.09 109.05C109.38 93.54 60.87 156.75 88.13 207C94.82 219.32 105.13 229.2 113.8 240.23C122.47 251.26 129.74 264.58 128.57 278.55C127.57 290.12 121.01 300.42 118.28 311.7C113.06 333.31 123.42 357.08 141.33 370.25C159.24 383.42 183.4 386.49 205 381.07C226.6 375.65 245.6 362.39 260.57 345.97C268.57 337.17 276.41 326.89 287.92 323.9C298.97 321.04 310.36 325.7 321.57 327.84C331.934 329.757 342.58 329.54 352.857 327.201C363.134 324.863 372.826 320.452 381.34 314.24C408.39 294.23 423.19 257.2 424.57 219.77Z" fill="#92E3A9"/>
<path opacity="0.7" d="M424.57 219.77C426.1 178.35 411.22 136.43 378.42 116.48C362.23 106.63 343.3 100.86 324.36 101.71C304.04 102.62 284.91 110.89 265.75 117.71C246.59 124.53 225.84 129.98 206.09 125.14C191.8 121.64 179.23 112.99 165.09 109.05C109.38 93.54 60.87 156.75 88.13 207C94.82 219.32 105.13 229.2 113.8 240.23C122.47 251.26 129.74 264.58 128.57 278.55C127.57 290.12 121.01 300.42 118.28 311.7C113.06 333.31 123.42 357.08 141.33 370.25C159.24 383.42 183.4 386.49 205 381.07C226.6 375.65 245.6 362.39 260.57 345.97C268.57 337.17 276.41 326.89 287.92 323.9C298.97 321.04 310.36 325.7 321.57 327.84C331.934 329.757 342.58 329.54 352.857 327.201C363.134 324.863 372.826 320.452 381.34 314.24C408.39 294.23 423.19 257.2 424.57 219.77Z" fill="white"/>
<path d="M246.39 449.2C321.064 449.2 381.6 437.094 381.6 422.16C381.6 407.226 321.064 395.12 246.39 395.12C171.716 395.12 111.18 407.226 111.18 422.16C111.18 437.094 171.716 449.2 246.39 449.2Z" fill="#92E3A9"/>
<path opacity="0.5" d="M246.39 449.2C321.064 449.2 381.6 437.094 381.6 422.16C381.6 407.226 321.064 395.12 246.39 395.12C171.716 395.12 111.18 407.226 111.18 422.16C111.18 437.094 171.716 449.2 246.39 449.2Z" fill="white"/>
<path d="M389.93 62.45H292.44C289.11 62.45 286.41 65.1497 286.41 68.48V175.95C286.41 179.28 289.11 181.98 292.44 181.98H389.93C393.26 181.98 395.96 179.28 395.96 175.95V68.48C395.96 65.1497 393.26 62.45 389.93 62.45Z" fill="white" stroke="#263E35" stroke-linecap="round" stroke-linejoin="round"/>
<path d="M292.44 62.45H389.92C391.511 62.45 393.037 63.0821 394.163 64.2074C395.288 65.3326 395.92 66.8587 395.92 68.45V74.71H286.41V68.48C286.406 67.687 286.559 66.9011 286.861 66.1677C287.163 65.4343 287.607 64.768 288.167 64.2073C288.728 63.6465 289.394 63.2025 290.128 62.9009C290.861 62.5993 291.647 62.446 292.44 62.45Z" fill="#263E35" stroke="#263E35" stroke-linecap="round" stroke-linejoin="round"/>
<path d="M292.38 126.27H336.46" stroke="#263E35" stroke-linecap="round" stroke-linejoin="round"/>
<path d="M292.38 131.96H336.46" stroke="#263E35" stroke-linecap="round" stroke-linejoin="round"/>
<path d="M292.38 137.65H336.46" stroke="#263E35" stroke-linecap="round" stroke-linejoin="round"/>
<path d="M292.38 143.34H336.46" stroke="#263E35" stroke-linecap="round" stroke-linejoin="round"/>
<path d="M292.38 149.03H336.46" stroke="#263E35" stroke-linecap="round" stroke-linejoin="round"/>
<path d="M292.38 154.73H336.46" stroke="#263E35" stroke-linecap="round" stroke-linejoin="round"/>
<path d="M292.38 160.42H336.46" stroke="#263E35" stroke-linecap="round" stroke-linejoin="round"/>
<path d="M292.38 166.11H336.46" stroke="#263E35" stroke-linecap="round" stroke-linejoin="round"/>
<path d="M292.38 171.8H336.46" stroke="#263E35" stroke-linecap="round" stroke-linejoin="round"/>
<path d="M344.21 126.27H388.29" stroke="#263E35" stroke-linecap="round" stroke-linejoin="round"/>
<path d="M344.21 131.96H388.29" stroke="#263E35" stroke-linecap="round" stroke-linejoin="round"/>
<path d="M344.21 137.65H388.29" stroke="#263E35" stroke-linecap="round" stroke-linejoin="round"/>
<path d="M344.21 143.34H388.29" stroke="#263E35" stroke-linecap="round" stroke-linejoin="round"/>
<path d="M344.21 149.03H388.29" stroke="#263E35" stroke-linecap="round" stroke-linejoin="round"/>
<path d="M344.21 154.73H388.29" stroke="#263E35" stroke-linecap="round" stroke-linejoin="round"/>
<path d="M344.21 160.42H388.29" stroke="#263E35" stroke-linecap="round" stroke-linejoin="round"/>
<path d="M344.21 166.11H388.29" stroke="#263E35" stroke-linecap="round" stroke-linejoin="round"/>
<path d="M344.21 171.8H388.29" stroke="#263E35" stroke-linecap="round" stroke-linejoin="round"/>
<path d="M388.6 79.13H343.24V120.13H388.6V79.13Z" fill="#92E3A9" stroke="#263E35" stroke-width="2" stroke-linecap="round" stroke-linejoin="round"/>
<path d="M388.6 96.27C387.079 96.3566 385.567 96.5674 384.08 96.9C377.19 98.4 375.39 108.29 367.6 108.29C360.7 108.29 360.11 99 350.22 97.8C347.814 97.421 345.35 97.8575 343.22 99.04V120.13H388.6V96.27Z" fill="#263E35" stroke="#263E35" stroke-linecap="round" stroke-linejoin="round"/>
<path d="M358.31 88.51C358.312 89.5195 358.014 90.5069 357.455 91.3472C356.895 92.1874 356.099 92.8426 355.166 93.2299C354.234 93.6171 353.208 93.7189 352.217 93.5225C351.227 93.326 350.318 92.8401 349.604 92.1262C348.89 91.4124 348.404 90.5027 348.207 89.5125C348.011 88.5223 348.113 87.496 348.5 86.5637C348.887 85.6314 349.543 84.835 350.383 84.2753C351.223 83.7157 352.21 83.418 353.22 83.42C354.57 83.42 355.865 83.9563 356.819 84.9108C357.774 85.8654 358.31 87.16 358.31 88.51Z" fill="white" stroke="#263E35" stroke-linecap="round" stroke-linejoin="round"/>
<path d="M390.67 66.04H289.7V69.93H390.67V66.04Z" fill="white" stroke="#263E35" stroke-linecap="round" stroke-linejoin="round"/>
<path d="M384.37 205.83H340.66C338.941 205.83 337.293 206.513 336.078 207.728C334.863 208.943 334.18 210.591 334.18 212.31V235.69C334.18 237.409 334.863 239.057 336.078 240.272C337.293 241.487 338.941 242.17 340.66 242.17H342C340.64 245.17 338 249.77 333.83 252.5C333.83 252.5 342.7 251.88 351.94 242.17H384.35C386.069 242.17 387.717 241.487 388.932 240.272C390.147 239.057 390.83 237.409 390.83 235.69V212.31C390.83 210.595 390.15 208.95 388.939 207.735C387.728 206.52 386.085 205.835 384.37 205.83Z" fill="#263E35" stroke="#263E35" stroke-linecap="round" stroke-linejoin="round"/>
<path d="M355 223.17C355.002 222.509 354.807 221.861 354.441 221.311C354.075 220.76 353.553 220.33 352.943 220.076C352.332 219.822 351.66 219.755 351.011 219.884C350.362 220.012 349.766 220.331 349.298 220.798C348.831 221.266 348.512 221.862 348.384 222.511C348.255 223.16 348.322 223.832 348.576 224.443C348.83 225.053 349.26 225.575 349.811 225.941C350.361 226.308 351.009 226.502 351.67 226.5C352.552 226.497 353.398 226.146 354.022 225.522C354.646 224.898 354.997 224.052 355 223.17Z" fill="#92E3A9" stroke="#263E35" stroke-linecap="round" stroke-linejoin="round"/>
<path d="M366.33 223.17C366.33 222.511 366.135 221.868 365.769 221.32C365.403 220.772 364.883 220.346 364.274 220.093C363.666 219.841 362.996 219.775 362.35 219.904C361.704 220.032 361.111 220.35 360.645 220.815C360.18 221.281 359.862 221.874 359.734 222.52C359.605 223.166 359.671 223.836 359.923 224.444C360.175 225.053 360.602 225.573 361.15 225.939C361.698 226.305 362.341 226.5 363 226.5C363.882 226.497 364.728 226.146 365.352 225.522C365.976 224.898 366.327 224.052 366.33 223.17Z" fill="#92E3A9" stroke="#263E35" stroke-linecap="round" stroke-linejoin="round"/>
<path d="M377.67 223.17C377.672 222.509 377.478 221.862 377.112 221.312C376.746 220.761 376.225 220.331 375.615 220.077C375.005 219.823 374.333 219.755 373.685 219.883C373.036 220.011 372.44 220.328 371.972 220.795C371.504 221.261 371.185 221.857 371.055 222.505C370.925 223.153 370.991 223.825 371.243 224.436C371.496 225.047 371.924 225.569 372.473 225.936C373.023 226.304 373.669 226.5 374.33 226.5C375.213 226.497 376.06 226.146 376.685 225.522C377.311 224.899 377.665 224.053 377.67 223.17Z" fill="#92E3A9" stroke="#263E35" stroke-linecap="round" stroke-linejoin="round"/>
<path d="M144 76.63H216C217.713 76.63 219.356 77.3106 220.568 78.5221C221.779 79.7336 222.46 81.3767 222.46 83.09V133H137.57V83.09C137.57 81.3819 138.246 79.7433 139.451 78.5327C140.656 77.322 142.292 76.6379 144 76.63Z" fill="#92E3A9" stroke="#263E35" stroke-linecap="round" stroke-linejoin="round"/>
<path d="M222.42 124.95H137.57V132.97H222.42V124.95Z" fill="#263E35" stroke="#263E35" stroke-linecap="round" stroke-linejoin="round"/>
<path d="M218.54 127.69H141.46V130.23H218.54V127.69Z" fill="white" stroke="#263E35" stroke-linecap="round" stroke-linejoin="round"/>
<path d="M180 113.93C186.473 113.93 191.72 108.683 191.72 102.21C191.72 95.7372 186.473 90.49 180 90.49C173.527 90.49 168.28 95.7372 168.28 102.21C168.28 108.683 173.527 113.93 180 113.93Z" fill="#263E35" stroke="#263E35" stroke-linecap="round" stroke-linejoin="round"/>
<path d="M174.71 94.92L187.36 102.22L174.71 109.52V94.92Z" fill="white" stroke="#263E35" stroke-linecap="round" stroke-linejoin="round"/>
<path d="M185.72 153.5H105.19C103.633 153.5 102.37 154.763 102.37 156.32V187.01C102.37 188.567 103.633 189.83 105.19 189.83H185.72C187.277 189.83 188.54 188.567 188.54 187.01V156.32C188.54 154.763 187.277 153.5 185.72 153.5Z" fill="#263E35" stroke="#263E35" stroke-linecap="round" stroke-linejoin="round"/>
<path d="M112.63 158.45L113.05 159.15C111.15 160.21 109.38 162.07 109.38 164.25C109.356 164.624 109.406 165 109.529 165.355C109.652 165.709 109.844 166.036 110.094 166.315C110.345 166.595 110.649 166.821 110.988 166.982C111.327 167.142 111.695 167.234 112.07 167.25C112.35 167.25 112.54 167.11 112.54 166.83C112.54 166.55 112.4 166.46 112.12 166.41C111.742 166.308 111.413 166.075 111.192 165.752C110.97 165.43 110.87 165.039 110.91 164.65C110.917 164.34 110.988 164.034 111.117 163.751C111.246 163.469 111.431 163.216 111.661 163.007C111.891 162.798 112.162 162.639 112.455 162.538C112.749 162.437 113.06 162.397 113.37 162.42C113.707 162.421 114.04 162.49 114.35 162.622C114.66 162.754 114.94 162.947 115.174 163.19C115.408 163.432 115.591 163.719 115.713 164.033C115.834 164.348 115.891 164.683 115.88 165.02C115.875 165.443 115.785 165.861 115.615 166.249C115.445 166.636 115.199 166.986 114.891 167.276C114.583 167.566 114.219 167.792 113.822 167.938C113.425 168.085 113.003 168.15 112.58 168.13C112.054 168.164 111.528 168.087 111.034 167.905C110.539 167.722 110.089 167.438 109.712 167.07C109.335 166.702 109.039 166.26 108.844 165.77C108.649 165.281 108.559 164.756 108.58 164.23C108.55 161.7 110.5 159.66 112.63 158.45ZM121.22 158.45L121.64 159.15C119.73 160.21 117.97 162.07 117.97 164.25C117.944 164.625 117.994 165.001 118.116 165.356C118.238 165.711 118.43 166.039 118.681 166.318C118.932 166.598 119.236 166.824 119.576 166.985C119.916 167.145 120.285 167.235 120.66 167.25C120.94 167.25 121.13 167.11 121.13 166.83C121.13 166.55 120.99 166.46 120.71 166.41C120.332 166.308 120.003 166.075 119.782 165.752C119.56 165.43 119.46 165.039 119.5 164.65C119.506 164.339 119.575 164.033 119.704 163.749C119.833 163.466 120.018 163.213 120.248 163.004C120.479 162.795 120.749 162.635 121.044 162.535C121.338 162.434 121.65 162.395 121.96 162.42C122.297 162.421 122.63 162.49 122.94 162.622C123.25 162.754 123.53 162.947 123.764 163.19C123.998 163.432 124.181 163.719 124.303 164.033C124.424 164.348 124.481 164.683 124.47 165.02C124.464 165.443 124.373 165.86 124.202 166.247C124.032 166.634 123.785 166.983 123.478 167.273C123.17 167.563 122.807 167.788 122.411 167.935C122.014 168.083 121.592 168.149 121.17 168.13C120.645 168.162 120.119 168.085 119.625 167.901C119.132 167.718 118.682 167.434 118.306 167.067C117.929 166.699 117.633 166.257 117.438 165.768C117.242 165.28 117.151 164.756 117.17 164.23C117.13 161.7 119.08 159.66 121.22 158.45Z" fill="#92E3A9"/>
<path d="M129.44 165.85H178.48" stroke="white" stroke-linecap="round" stroke-linejoin="round"/>
<path d="M129.44 170.06H178.48" stroke="white" stroke-linecap="round" stroke-linejoin="round"/>
<path d="M129.44 174.27H178.48" stroke="white" stroke-linecap="round" stroke-linejoin="round"/>
<path d="M129.44 178.49H178.48" stroke="white" stroke-linecap="round" stroke-linejoin="round"/>
<path d="M169.803 246.16C179.925 244.507 186.791 234.963 185.139 224.841C183.487 214.719 173.942 207.852 163.82 209.505C153.698 211.157 146.832 220.701 148.484 230.823C150.136 240.945 159.681 247.812 169.803 246.16Z" fill="#263E35" stroke="#263E35" stroke-linecap="round" stroke-linejoin="round"/>
<path d="M178.59 238.193C184.301 231.691 183.659 221.79 177.157 216.079C170.654 210.368 160.753 211.01 155.042 217.513C149.332 224.016 149.974 233.917 156.476 239.627C162.979 245.338 172.88 244.696 178.59 238.193Z" fill="white" stroke="#263E35" stroke-linecap="round" stroke-linejoin="round"/>
<path d="M166.82 216.5V227.83H174.48" stroke="#263E35" stroke-width="2" stroke-linecap="round" stroke-linejoin="round"/>
<path d="M165.63 279.83L165.14 401.06C165.14 401.442 165.292 401.808 165.562 402.078C165.832 402.348 166.198 402.5 166.58 402.5C166.952 402.5 167.31 402.355 167.577 402.095C167.844 401.836 168 401.482 168.01 401.11L171.47 280L165.63 279.83Z" fill="white" stroke="#263E35" stroke-linecap="round" stroke-linejoin="round"/>
<path d="M157.47 308.17L157 433.5C156.999 433.689 157.035 433.877 157.107 434.053C157.179 434.228 157.285 434.387 157.419 434.521C157.553 434.655 157.712 434.761 157.887 434.833C158.063 434.905 158.251 434.941 158.44 434.94C158.812 434.94 159.169 434.797 159.438 434.54C159.706 434.282 159.865 433.931 159.88 433.56L163.33 308.33L157.47 308.17Z" fill="white" stroke="#263E35" stroke-linecap="round" stroke-linejoin="round"/>
<path d="M333.23 279.83L333.72 401.06C333.721 401.249 333.685 401.436 333.614 401.61C333.543 401.785 333.438 401.944 333.305 402.078C333.172 402.211 333.014 402.318 332.84 402.39C332.665 402.463 332.479 402.5 332.29 402.5C331.917 402.5 331.558 402.355 331.289 402.096C331.02 401.837 330.863 401.483 330.85 401.11L327.4 280L333.23 279.83Z" fill="white" stroke="#263E35" stroke-linecap="round" stroke-linejoin="round"/>
<path d="M341.4 308.17L341.89 433.5C341.891 433.689 341.855 433.877 341.783 434.053C341.711 434.228 341.605 434.387 341.471 434.521C341.337 434.655 341.178 434.761 341.003 434.833C340.827 434.905 340.64 434.941 340.45 434.94C340.079 434.94 339.723 434.796 339.456 434.539C339.189 434.282 339.033 433.931 339.02 433.56L335.56 308.33L341.4 308.17Z" fill="white" stroke="#263E35" stroke-linecap="round" stroke-linejoin="round"/>
<path d="M346.46 301.39L342.86 298.15L334.54 280.15C334.145 279.331 333.526 278.641 332.754 278.162C331.982 277.682 331.089 277.431 330.18 277.44H168.58C167.669 277.43 166.775 277.679 166.001 278.159C165.227 278.639 164.605 279.33 164.21 280.15L153.84 302.57L152.13 301.94V307.07L152.21 307.01C152.312 307.694 152.659 308.318 153.187 308.766C153.715 309.213 154.388 309.452 155.08 309.44H343.67C344.399 309.457 345.105 309.19 345.641 308.695C346.176 308.201 346.499 307.518 346.54 306.79L346.46 301.39Z" fill="#263E35" stroke="#263E35" stroke-linecap="round" stroke-linejoin="round"/>
<path d="M343.67 304.75H155.08C154.613 304.769 154.149 304.668 153.731 304.458C153.314 304.249 152.956 303.936 152.692 303.55C152.428 303.164 152.267 302.718 152.223 302.253C152.179 301.787 152.253 301.319 152.44 300.89L164.21 275.46C164.603 274.638 165.224 273.946 165.999 273.466C166.773 272.985 167.669 272.737 168.58 272.75H330.18C331.089 272.739 331.983 272.988 332.756 273.468C333.528 273.949 334.147 274.64 334.54 275.46L346.31 300.89C346.497 301.319 346.571 301.787 346.527 302.253C346.483 302.718 346.322 303.164 346.058 303.55C345.794 303.936 345.436 304.249 345.019 304.458C344.601 304.668 344.137 304.769 343.67 304.75Z" fill="white" stroke="#263E35" stroke-linecap="round" stroke-linejoin="round"/>
<g style="mix-blend-mode:multiply" opacity="0.5">
<path d="M164.63 287.67C164.63 287.67 160.36 290.6 163.03 291.67C165.7 292.74 196.39 291.94 200.13 290.87C203.87 289.8 208.13 279.93 208.13 278.33C208.13 276.73 202.75 275.58 200.77 275.49C198.79 275.4 172.63 276.99 172.63 276.99L164.63 287.67Z" fill="#92E3A9"/>
</g>
<g style="mix-blend-mode:multiply" opacity="0.5">
<path d="M317.29 292.74C323.332 292.74 328.23 290.707 328.23 288.2C328.23 285.693 323.332 283.66 317.29 283.66C311.248 283.66 306.35 285.693 306.35 288.2C306.35 290.707 311.248 292.74 317.29 292.74Z" fill="#92E3A9"/>
</g>
<g style="mix-blend-mode:multiply" opacity="0.5">
<path d="M247.64 298.35C269.306 298.35 286.87 295.064 286.87 291.01C286.87 286.956 269.306 283.67 247.64 283.67C225.974 283.67 208.41 286.956 208.41 291.01C208.41 295.064 225.974 298.35 247.64 298.35Z" fill="#92E3A9"/>
</g>
<path d="M309.29 270.34C309.29 270.34 308.57 267.47 306.18 268.43C303.79 269.39 304.03 275.73 304.5 279.32C304.97 282.91 308.21 281.23 308.21 281.23V279.08C308.21 279.08 307.02 280.03 306.42 278.72C305.82 277.41 305.94 270.82 306.54 270.94C307.14 271.06 308.33 273.09 308.33 273.09C308.33 273.09 308.69 272.86 309.29 270.34Z" fill="#92E3A9" stroke="#263E35" stroke-linecap="round" stroke-linejoin="round"/>
<path d="M307.57 270.82V286.54C307.57 288.39 311.82 289.89 317.07 289.89C322.32 289.89 326.56 288.39 326.56 286.54V270.82H307.57Z" fill="#92E3A9" stroke="#263E35" stroke-linecap="round" stroke-linejoin="round"/>
<path d="M326.56 270.82C326.56 272.42 322.31 273.71 317.07 273.71C311.83 273.71 307.57 272.42 307.57 270.82C307.57 269.22 311.82 267.93 317.07 267.93C322.32 267.93 326.56 269.23 326.56 270.82Z" fill="white" stroke="#263E35" stroke-linecap="round" stroke-linejoin="round"/>
<path d="M325.32 270.82C325.32 272.21 321.62 273.33 317.07 273.33C312.52 273.33 308.81 272.21 308.81 270.82C308.81 269.43 312.51 268.31 317.07 268.31C321.63 268.31 325.32 269.43 325.32 270.82Z" fill="white" stroke="#263E35" stroke-linecap="round" stroke-linejoin="round"/>
<path d="M310.7 272.42C314.857 273.633 319.273 273.633 323.43 272.42C319.273 271.207 314.857 271.207 310.7 272.42Z" fill="#263E35" stroke="#263E35" stroke-linecap="round" stroke-linejoin="round"/>
<path d="M163.45 278L163.57 283.38L199.82 283.74V277.52L163.45 278Z" fill="white" stroke="#263E35" stroke-linecap="round" stroke-linejoin="round"/>
<path d="M199.82 283.74L205.09 272.38V269.03L199.58 278.6L199.82 283.74Z" fill="white" stroke="#263E35" stroke-linecap="round" stroke-linejoin="round"/>
<path d="M163.45 282.9L163.57 288.29L199.82 288.65V282.43L163.45 282.9Z" fill="white" stroke="#263E35" stroke-linecap="round" stroke-linejoin="round"/>
<path d="M199.82 288.65L205.09 277.28V273.93L199.58 283.5L199.82 288.65Z" fill="white" stroke="#263E35" stroke-linecap="round" stroke-linejoin="round"/>
<path d="M177.45 264.36C177.45 264.36 178.29 262.69 177.09 261.97C175.89 261.25 174.58 262.97 173.86 263.52C173.14 264.07 158.07 274.05 157.59 275.61C157.11 277.17 157.59 280.61 160.82 280.99C164.05 281.37 166.92 279.2 168.36 278.84C169.8 278.48 170.36 278.36 170.36 278.36L180.29 264.96L177.45 264.36Z" fill="white" stroke="#263E35" stroke-linecap="round" stroke-linejoin="round"/>
<path d="M160.82 281C164.05 281.36 166.92 279.21 168.36 278.85C169.8 278.49 170.36 278.37 170.36 278.37L170.72 277.88L161.39 275.98C160.883 275.502 160.231 275.207 159.537 275.142C158.843 275.077 158.147 275.245 157.56 275.62C157.11 277.16 157.59 280.63 160.82 281Z" fill="white" stroke="#263E35" stroke-linecap="round" stroke-linejoin="round"/>
<path d="M161.42 276H189.42C198.16 276 200.79 275.52 200.79 275.52L206.17 264.39C206.17 264.39 189.17 265.47 183.92 265.11C181.751 265.047 179.59 264.807 177.46 264.39L161.42 276Z" fill="white" stroke="#263E35" stroke-linecap="round" stroke-linejoin="round"/>
<path d="M161.42 276L161.9 278.15C161.9 278.15 184.63 278.27 190.61 278.27C196.59 278.27 201.14 278.51 201.14 278.51L200.78 275.51L161.42 276Z" fill="white" stroke="#263E35" stroke-linecap="round" stroke-linejoin="round"/>
<path d="M201.14 278.48L206.16 266.99V264.36L200.78 275.49L201.14 278.48Z" fill="white" stroke="#263E35" stroke-linecap="round" stroke-linejoin="round"/>
<path d="M281.9 291.92H213.35C213.198 291.921 213.048 291.893 212.907 291.835C212.766 291.778 212.638 291.694 212.53 291.587C212.423 291.48 212.337 291.353 212.278 291.212C212.22 291.072 212.19 290.922 212.19 290.77C212.19 290.618 212.22 290.468 212.278 290.328C212.337 290.187 212.423 290.06 212.53 289.953C212.638 289.846 212.766 289.762 212.907 289.705C213.048 289.647 213.198 289.619 213.35 289.62H281.9C282.051 289.619 282.202 289.648 282.342 289.705C282.482 289.762 282.609 289.847 282.716 289.954C282.823 290.061 282.908 290.188 282.965 290.328C283.022 290.468 283.051 290.619 283.05 290.77C283.051 290.921 283.022 291.072 282.965 291.212C282.908 291.352 282.823 291.479 282.716 291.586C282.609 291.693 282.482 291.778 282.342 291.835C282.202 291.893 282.051 291.921 281.9 291.92Z" fill="white" stroke="#263E35" stroke-linecap="round" stroke-linejoin="round"/>
<path d="M282.48 289.6H212.76C212.505 289.6 212.259 289.503 212.073 289.329C211.887 289.154 211.775 288.915 211.76 288.66L207.97 243.11C207.953 242.969 207.966 242.826 208.009 242.69C208.051 242.555 208.122 242.43 208.217 242.324C208.311 242.218 208.428 242.133 208.557 242.076C208.687 242.018 208.828 241.989 208.97 241.99H286.28C286.422 241.989 286.563 242.018 286.693 242.076C286.822 242.133 286.939 242.218 287.033 242.324C287.128 242.43 287.199 242.555 287.241 242.69C287.284 242.826 287.297 242.969 287.28 243.11L283.49 288.66C283.475 288.916 283.361 289.157 283.173 289.332C282.985 289.507 282.737 289.603 282.48 289.6Z" fill="white" stroke="#263E35" stroke-linecap="round" stroke-linejoin="round"/>
<path d="M254.2 266.58C254.2 269.3 251.25 271.5 247.62 271.5C243.99 271.5 241.03 269.3 241.03 266.58C241.03 263.86 243.98 261.67 247.62 261.67C251.26 261.67 254.2 263.87 254.2 266.58Z" fill="white" stroke="#263E35" stroke-linecap="round" stroke-linejoin="round"/>
<path d="M322.33 231C323.399 230.166 324.151 228.991 324.46 227.67C324.685 226.68 324.661 225.649 324.39 224.67" stroke="#263E35" stroke-linecap="round" stroke-linejoin="round"/>
<path d="M314.35 266.66C314.35 266.66 321 262.66 318.83 258.09C316.66 253.52 309.32 250.49 309.32 243.37C309.32 237.23 315.85 234.96 320.11 232.5" stroke="#263E35" stroke-linecap="round" stroke-linejoin="round"/>
<path d="M320.49 266.53C320.49 266.53 324.2 264.06 324.2 260.14C324.2 257.51 321.39 255.79 317.68 251.56" stroke="#263E35" stroke-linecap="round" stroke-linejoin="round"/>
<path d="M315.63 249C315.63 249 313.2 247.09 314.99 243.5" stroke="#263E35" stroke-linecap="round" stroke-linejoin="round"/>
<path d="M305.17 92.6963C305.807 92.6963 306.633 93.4478 307.647 94.9507C308.321 96.1629 308.658 97.4092 308.658 98.6895C308.658 101.071 307.601 103.075 305.485 104.701C304.162 105.567 302.764 106 301.292 106C299.133 106 297.25 105.1 295.642 103.3C294.547 101.834 294 100.362 294 98.8843C294 98.3895 294.312 98.0029 294.937 97.7246C295.079 97.6937 295.184 97.6782 295.252 97.6782H295.299C295.911 97.6782 296.338 98.0215 296.579 98.708C296.66 99.5615 296.774 100.109 296.922 100.35C297.337 101.488 298.122 102.348 299.279 102.929C299.916 103.226 300.528 103.375 301.116 103.375H301.487C302.94 103.375 304.193 102.694 305.244 101.333C305.764 100.474 306.023 99.6636 306.023 98.9028V98.4668C306.023 97.1123 305.377 95.8846 304.084 94.7837C303.924 94.5116 303.843 94.2734 303.843 94.0693V93.9487C303.843 93.3674 304.196 92.9591 304.901 92.7241C305.043 92.7056 305.133 92.6963 305.17 92.6963Z" fill="#92E3A9"/>
<path d="M314.633 92.687H314.985C316.649 92.687 317.837 93.5282 318.548 95.2104C318.721 95.7424 318.808 96.234 318.808 96.6855C318.808 97.9535 318.266 98.9925 317.184 99.8027C316.844 99.9759 316.674 100.078 316.674 100.109C318.028 102.929 318.724 104.417 318.761 104.571C318.792 104.689 318.808 104.775 318.808 104.831C318.808 105.369 318.492 105.753 317.861 105.981L317.602 106C317.026 106 316.572 105.524 316.238 104.571L314.243 100.424H311.952V101.408C311.952 102.014 311.624 102.416 310.968 102.614H310.773C310.242 102.614 309.867 102.314 309.651 101.714C309.62 101.572 309.604 101.426 309.604 101.278V96.7319C309.604 96.0454 309.911 95.6063 310.523 95.4146L310.746 95.3867H310.811C311.287 95.3867 311.646 95.6589 311.887 96.2031C311.93 96.3577 311.952 96.4907 311.952 96.6021V98.0679H315.143C315.891 98.0679 316.331 97.672 316.46 96.8804V96.5742C316.46 95.8568 316.123 95.3589 315.449 95.0806C315.338 95.0496 315.236 95.0342 315.143 95.0342H314.855C314.194 95.0342 313.755 94.793 313.538 94.3105C313.482 94.1497 313.445 93.9982 313.427 93.856C313.427 93.3674 313.699 92.9993 314.243 92.752C314.398 92.7087 314.528 92.687 314.633 92.687ZM310.773 103.653C311.219 103.653 311.577 103.885 311.85 104.349C311.918 104.534 311.952 104.704 311.952 104.859C311.952 105.354 311.661 105.719 311.08 105.954C310.937 105.985 310.826 106 310.746 106C310.245 106 309.88 105.7 309.651 105.1L309.604 104.831C309.604 104.355 309.867 103.99 310.393 103.736C310.529 103.699 310.656 103.671 310.773 103.653Z" fill="#92E3A9"/>
<path d="M320.997 92.7241C321.517 92.7241 321.987 93.089 322.407 93.8188L325.988 98.5781C328.71 94.9538 330.123 93.089 330.228 92.9839C330.488 92.8107 330.741 92.7241 330.989 92.7241C331.57 92.7241 331.969 93.0488 332.186 93.6982C332.204 93.8034 332.213 93.8869 332.213 93.9487C332.213 94.3198 331.79 95.0156 330.942 96.0361C328.747 99.0173 327.368 100.857 326.805 101.556C326.656 101.717 326.384 101.825 325.988 101.881C325.493 101.881 325.023 101.513 324.578 100.777L322.25 97.6968H322.222V104.794C322.222 105.32 321.937 105.7 321.368 105.935C321.244 105.978 321.13 106 321.025 106H320.979C320.416 106 320.02 105.675 319.791 105.026C319.779 104.921 319.772 104.837 319.772 104.775V93.9487C319.772 93.3674 320.097 92.9684 320.747 92.752C320.852 92.7334 320.935 92.7241 320.997 92.7241Z" fill="#92E3A9"/>
</svg>
