<svg width="20" height="20" viewBox="0 0 20 20" fill="none" xmlns="http://www.w3.org/2000/svg">
<rect width="20" height="20" rx="10" fill="#837676"/>
<path d="M3.81779 5.04761L5.76127 5.04804C5.78286 5.04808 5.80406 5.05379 5.82274 5.06462C5.84142 5.07545 5.85692 5.091 5.86768 5.10972C5.87844 5.12843 5.88409 5.14965 5.88404 5.17124C5.884 5.19283 5.87828 5.21403 5.86744 5.23271L4.89025 6.91258C4.87943 6.93126 4.86387 6.94676 4.84515 6.95752C4.82643 6.96827 4.80521 6.97391 4.78362 6.97387C4.76203 6.97383 4.74084 6.9681 4.72216 6.95726C4.70349 6.94643 4.688 6.93087 4.67724 6.91215L3.71117 5.23184C3.70043 5.21314 3.69479 5.19195 3.69482 5.17038C3.69486 5.14882 3.70056 5.12765 3.71136 5.10898C3.72216 5.09032 3.73768 5.07482 3.75636 5.06405C3.77504 5.05328 3.79622 5.04761 3.81779 5.04761Z" fill="#263E35"/>
<path d="M7.55541 5.11371L9.49562 5.11502C9.51729 5.11508 9.53857 5.12085 9.55732 5.13174C9.57607 5.14262 9.59162 5.15825 9.60242 5.17705C9.61322 5.19584 9.61889 5.21715 9.61886 5.23883C9.61882 5.2605 9.61309 5.28179 9.60223 5.30055L8.62744 6.97803C8.61655 6.9968 8.60091 7.01237 8.5821 7.02318C8.56329 7.03398 8.54196 7.03965 8.52026 7.03961C8.49857 7.03956 8.47726 7.03381 8.45849 7.02292C8.43972 7.01204 8.42415 6.9964 8.41334 6.97759L7.44814 5.29903C7.43731 5.28022 7.43162 5.2589 7.43164 5.2372C7.43166 5.2155 7.4374 5.19418 7.44827 5.1754C7.45914 5.15662 7.47477 5.14103 7.49357 5.1302C7.51238 5.11937 7.53371 5.11368 7.55541 5.11371Z" fill="#263E35"/>
<path d="M11.4109 5.21747L13.3535 5.21878C13.375 5.21883 13.3961 5.22454 13.4148 5.23534C13.4334 5.24615 13.4489 5.26166 13.4596 5.28033C13.4703 5.29899 13.476 5.32015 13.4759 5.34169C13.4759 5.36322 13.4702 5.38437 13.4594 5.40301L12.4833 7.08244C12.4725 7.10102 12.457 7.11643 12.4383 7.12713C12.4197 7.13782 12.3985 7.14343 12.377 7.14338C12.3555 7.14334 12.3344 7.13765 12.3158 7.12688C12.2972 7.1161 12.2817 7.10063 12.271 7.08201L11.3045 5.40148C11.2937 5.38282 11.2881 5.36165 11.2881 5.34011C11.2881 5.31858 11.2938 5.29742 11.3046 5.27877C11.3154 5.26013 11.3309 5.24465 11.3495 5.23389C11.3682 5.22313 11.3893 5.21746 11.4109 5.21747Z" fill="#263E35"/>
<path d="M5.27714 7.07951L6.25586 5.39375C6.2665 5.37543 6.28177 5.36021 6.30013 5.34964C6.3185 5.33906 6.33932 5.3335 6.36051 5.3335C6.3817 5.3335 6.40253 5.33906 6.42089 5.34964C6.43926 5.36021 6.45452 5.37543 6.46516 5.39375L7.44388 7.07951C7.45458 7.09791 7.46023 7.1188 7.46028 7.14007C7.46033 7.16135 7.45476 7.18226 7.44415 7.2007C7.43354 7.21914 7.41825 7.23446 7.39983 7.24511C7.38141 7.25575 7.3605 7.26136 7.33923 7.26135H5.38179C5.36052 7.26136 5.33962 7.25575 5.32119 7.24511C5.30277 7.23446 5.28748 7.21914 5.27687 7.2007C5.26626 7.18226 5.26069 7.16135 5.26074 7.14007C5.26079 7.1188 5.26645 7.09791 5.27714 7.07951Z" fill="#263E35"/>
<path d="M8.95889 7.14265L9.93434 5.46234C9.94513 5.44374 9.96061 5.4283 9.97925 5.41757C9.99788 5.40683 10.019 5.40118 10.0405 5.40118C10.062 5.40118 10.0831 5.40683 10.1018 5.41757C10.1204 5.4283 10.1359 5.44374 10.1467 5.46234L11.1221 7.14265C11.1329 7.16131 11.1386 7.18247 11.1386 7.20402C11.1387 7.22558 11.133 7.24675 11.1222 7.26543C11.1115 7.2841 11.096 7.29961 11.0773 7.3104C11.0587 7.32119 11.0375 7.32687 11.016 7.32688H9.06507C9.04352 7.32687 9.02235 7.32119 9.00369 7.3104C8.98503 7.29961 8.96954 7.2841 8.95878 7.26543C8.94802 7.24675 8.94236 7.22558 8.94238 7.20402C8.9424 7.18247 8.9481 7.16131 8.95889 7.14265Z" fill="#263E35"/>
<path d="M12.8438 7.15241L13.8188 5.47341C13.8297 5.45472 13.8453 5.43921 13.864 5.42844C13.8827 5.41766 13.904 5.41199 13.9256 5.41199C13.9472 5.41199 13.9685 5.41766 13.9872 5.42844C14.006 5.43921 14.0216 5.45472 14.0324 5.47341L15.0075 7.15241C15.0183 7.17119 15.0241 7.1925 15.0241 7.21419C15.0241 7.23589 15.0184 7.25721 15.0076 7.27601C14.9968 7.29481 14.9812 7.31044 14.9624 7.32131C14.9436 7.33218 14.9223 7.33792 14.9006 7.33795H12.9506C12.9289 7.33792 12.9076 7.33218 12.8888 7.32131C12.87 7.31044 12.8545 7.29481 12.8436 7.27601C12.8328 7.25721 12.8271 7.23589 12.8271 7.21419C12.8272 7.1925 12.8329 7.17119 12.8438 7.15241Z" fill="#263E35"/>
<path d="M7.24903 7.7748L6.27293 9.45489C6.26235 9.47313 6.24717 9.48827 6.2289 9.49879C6.21063 9.50932 6.18991 9.51486 6.16883 9.51486C6.14774 9.51486 6.12703 9.50932 6.10875 9.49879C6.09048 9.48827 6.0753 9.47313 6.06472 9.45489L5.08949 7.77501C5.07888 7.75671 5.07327 7.73594 5.07324 7.71478C5.07321 7.69363 5.07876 7.67284 5.08933 7.65451C5.0999 7.63618 5.11511 7.62096 5.13344 7.61039C5.15176 7.59981 5.17255 7.59425 5.19371 7.59427L7.14503 7.59406C7.16617 7.59407 7.18693 7.59966 7.20523 7.61025C7.22352 7.62084 7.23871 7.63606 7.24925 7.65438C7.25979 7.6727 7.26532 7.69348 7.26528 7.71462C7.26525 7.73576 7.25964 7.75651 7.24903 7.7748Z" fill="#263E35"/>
<path d="M11.1253 7.8391L10.1485 9.52224C10.138 9.54035 10.1229 9.55537 10.1048 9.56582C10.0867 9.57627 10.0661 9.58176 10.0452 9.58176C10.0242 9.58176 10.0037 9.57627 9.98555 9.56582C9.96741 9.55537 9.95234 9.54035 9.94183 9.52224L8.96486 7.8391C8.95433 7.82094 8.94876 7.80033 8.94873 7.77933C8.9487 7.75834 8.9542 7.73771 8.96467 7.71952C8.97515 7.70132 8.99024 7.68621 9.00841 7.67571C9.02659 7.6652 9.04721 7.65967 9.06821 7.65967H11.0219C11.0429 7.65967 11.0635 7.6652 11.0817 7.67571C11.0999 7.68621 11.115 7.70132 11.1255 7.71952C11.1359 7.73771 11.1414 7.75834 11.1414 7.77933C11.1414 7.80033 11.1358 7.82094 11.1253 7.8391Z" fill="#263E35"/>
<path d="M15.0094 7.8595L14.0324 9.54242C14.022 9.56039 14.0071 9.57531 13.9891 9.58569C13.9711 9.59606 13.9507 9.60152 13.93 9.60152C13.9092 9.60152 13.8888 9.59606 13.8708 9.58569C13.8528 9.57531 13.8379 9.56039 13.8275 9.54242L12.8505 7.85906C12.8401 7.84107 12.8345 7.82065 12.8345 7.79984C12.8344 7.77904 12.8399 7.75858 12.8502 7.74055C12.8606 7.72251 12.8755 7.70752 12.8935 7.69709C12.9115 7.68667 12.932 7.68117 12.9528 7.68115L14.9069 7.68181C14.9277 7.6818 14.9482 7.68728 14.9662 7.69768C14.9842 7.70808 14.9991 7.72304 15.0095 7.74105C15.0199 7.75906 15.0253 7.77949 15.0253 7.80029C15.0253 7.82108 15.0198 7.8415 15.0094 7.8595Z" fill="#263E35"/>
<path d="M6.54584 9.62333L7.52216 7.94149C7.53293 7.92294 7.54839 7.90754 7.56699 7.89683C7.58558 7.88613 7.60666 7.88049 7.62812 7.88049C7.64957 7.88049 7.67065 7.88613 7.68925 7.89683C7.70784 7.90754 7.7233 7.92294 7.73408 7.94149L8.7104 9.62333C8.72121 9.64196 8.72691 9.66312 8.72694 9.68467C8.72696 9.70621 8.7213 9.72739 8.71054 9.74605C8.69977 9.76471 8.68427 9.7802 8.6656 9.79096C8.64694 9.80172 8.62576 9.80737 8.60422 9.80734H6.65202C6.63047 9.80737 6.6093 9.80172 6.59063 9.79096C6.57196 9.7802 6.55647 9.76471 6.5457 9.74605C6.53493 9.72739 6.52927 9.70621 6.5293 9.68467C6.52932 9.66312 6.53503 9.64196 6.54584 9.62333Z" fill="#263E35"/>
<path d="M10.4233 9.68858L11.3989 8.00784C11.4097 7.98928 11.4252 7.97388 11.4438 7.96318C11.4624 7.95247 11.4834 7.94684 11.5049 7.94684C11.5264 7.94684 11.5474 7.95247 11.566 7.96318C11.5846 7.97388 11.6001 7.98928 11.6109 8.00784L12.5865 9.68858C12.5973 9.7072 12.603 9.72834 12.6031 9.74987C12.6031 9.7714 12.5975 9.79255 12.5867 9.81121C12.576 9.82986 12.5605 9.84536 12.5419 9.85614C12.5232 9.86691 12.5021 9.87259 12.4806 9.87259H10.5292C10.5077 9.87259 10.4866 9.86691 10.4679 9.85614C10.4493 9.84536 10.4338 9.82986 10.4231 9.81121C10.4123 9.79255 10.4067 9.7714 10.4067 9.74987C10.4068 9.72834 10.4125 9.7072 10.4233 9.68858Z" fill="#263E35"/>
<path d="M14.3091 9.69792L15.2839 8.01848C15.2948 7.99974 15.3103 7.98418 15.3291 7.97336C15.3478 7.96254 15.3691 7.95685 15.3908 7.95685C15.4124 7.95685 15.4337 7.96254 15.4524 7.97336C15.4712 7.98418 15.4868 7.99974 15.4976 8.01848L16.4724 9.69792C16.4833 9.71667 16.489 9.73795 16.489 9.75962C16.4891 9.78129 16.4834 9.80259 16.4726 9.82138C16.4618 9.84016 16.4462 9.85577 16.4275 9.86663C16.4087 9.87749 16.3874 9.88322 16.3658 9.88324H14.4158C14.3941 9.88322 14.3728 9.87749 14.354 9.86663C14.3353 9.85577 14.3197 9.84016 14.3089 9.82138C14.2981 9.80259 14.2924 9.78129 14.2925 9.75962C14.2925 9.73795 14.2983 9.71667 14.3091 9.69792Z" fill="#263E35"/>
<path d="M8.72243 10.3203L7.74655 12.0013C7.736 12.0195 7.72084 12.0347 7.70258 12.0452C7.68433 12.0557 7.66362 12.0613 7.64255 12.0613C7.62148 12.0613 7.60077 12.0557 7.58252 12.0452C7.56426 12.0347 7.5491 12.0195 7.53855 12.0013L6.56267 10.3201C6.55205 10.3018 6.54643 10.2811 6.54639 10.26C6.54634 10.2388 6.55188 10.2181 6.56242 10.1998C6.57297 10.1814 6.58817 10.1662 6.60647 10.1557C6.62477 10.1451 6.64554 10.1396 6.66667 10.1396L8.61843 10.1398C8.63956 10.1398 8.66033 10.1453 8.67863 10.1559C8.69693 10.1665 8.71213 10.1817 8.72268 10.2C8.73322 10.2183 8.73876 10.239 8.73871 10.2602C8.73867 10.2813 8.73305 10.3021 8.72243 10.3203Z" fill="#263E35"/>
<path d="M12.5995 10.3842L11.6219 12.068C11.6114 12.086 11.5964 12.101 11.5783 12.1114C11.5602 12.1218 11.5397 12.1273 11.5188 12.1273C11.4979 12.1273 11.4774 12.1218 11.4593 12.1114C11.4412 12.101 11.4262 12.086 11.4157 12.068L10.438 10.3842C10.4275 10.366 10.4219 10.3455 10.4219 10.3245C10.4218 10.3035 10.4273 10.2829 10.4378 10.2647C10.4482 10.2466 10.4633 10.2315 10.4814 10.221C10.4996 10.2105 10.5202 10.205 10.5412 10.205H12.4964C12.5174 10.205 12.538 10.2105 12.5561 10.221C12.5743 10.2315 12.5894 10.2466 12.5998 10.2647C12.6103 10.2829 12.6158 10.3035 12.6157 10.3245C12.6157 10.3455 12.6101 10.366 12.5995 10.3842Z" fill="#263E35"/>
<path d="M16.4836 10.4053L15.5067 12.0876C15.4962 12.1055 15.4812 12.1204 15.4632 12.1308C15.4452 12.1412 15.4248 12.1466 15.404 12.1466C15.3832 12.1466 15.3628 12.1412 15.3448 12.1308C15.3267 12.1204 15.3117 12.1055 15.3013 12.0876L14.3252 10.4053C14.3147 10.3873 14.3091 10.3667 14.3091 10.3459C14.309 10.325 14.3145 10.3044 14.3249 10.2863C14.3353 10.2682 14.3503 10.2532 14.3684 10.2427C14.3865 10.2323 14.407 10.2268 14.4279 10.2267H16.3807C16.4016 10.2267 16.4222 10.2322 16.4403 10.2426C16.4584 10.2531 16.4734 10.2681 16.4839 10.2862C16.4943 10.3044 16.4998 10.3249 16.4998 10.3458C16.4997 10.3667 16.4942 10.3872 16.4836 10.4053Z" fill="#263E35"/>
<path d="M6.28088 10.5054C6.59963 11.0561 6.92623 11.6033 7.23757 12.1582C7.30472 12.2779 7.23714 12.352 7.1133 12.3529C6.49047 12.3574 5.86779 12.3572 5.24526 12.3524C5.18218 12.3519 5.13813 12.341 5.11313 12.3197C5.05296 12.2683 5.07585 12.1796 5.11401 12.1137C5.42622 11.5753 5.73872 11.0369 6.05151 10.4984C6.10667 10.4029 6.22899 10.4157 6.28088 10.5054Z" fill="#263E35"/>
<path d="M8.96032 12.2303L9.93206 10.5565C9.94302 10.5376 9.95875 10.5219 9.97769 10.511C9.99664 10.5001 10.0181 10.4943 10.04 10.4943C10.0618 10.4943 10.0833 10.5001 10.1023 10.511C10.1212 10.5219 10.1369 10.5376 10.1479 10.5565L11.1196 12.2303C11.1307 12.2493 11.1365 12.2708 11.1366 12.2928C11.1367 12.3147 11.1309 12.3363 11.12 12.3553C11.109 12.3743 11.0933 12.3901 11.0742 12.4011C11.0552 12.4121 11.0337 12.4178 11.0117 12.4178H9.06824C9.04629 12.4178 9.02473 12.4121 9.00572 12.4011C8.98671 12.3901 8.97093 12.3743 8.95998 12.3553C8.94904 12.3363 8.9433 12.3147 8.94336 12.2928C8.94342 12.2708 8.94927 12.2493 8.96032 12.2303Z" fill="#263E35"/>
<path d="M12.8784 12.1938C13.1823 11.6686 13.4877 11.1445 13.7917 10.619C13.8706 10.4828 13.9744 10.4745 14.0544 10.6125C14.3712 11.1587 14.6883 11.7048 15.0054 12.2509C15.0399 12.3102 15.0248 12.3905 14.9646 12.4225C14.9437 12.4337 14.9076 12.4393 14.8563 12.4393C13.9118 12.4402 13.2826 12.4402 12.9688 12.4395C12.8112 12.4393 12.8206 12.2939 12.8784 12.1938Z" fill="#263E35"/>
<path d="M7.24951 12.8644L6.27232 14.5475C6.2618 14.5657 6.24669 14.5807 6.22852 14.5912C6.21034 14.6017 6.18973 14.6072 6.16875 14.6072C6.14778 14.6072 6.12717 14.6017 6.10899 14.5912C6.09081 14.5807 6.07571 14.5657 6.06519 14.5475L5.088 12.8644C5.07742 12.8462 5.07182 12.8255 5.07178 12.8045C5.07173 12.7834 5.07724 12.7627 5.08774 12.7445C5.09825 12.7262 5.11337 12.7111 5.1316 12.7006C5.14983 12.69 5.17051 12.6845 5.19157 12.6845H7.14594C7.167 12.6845 7.18768 12.69 7.20591 12.7006C7.22413 12.7111 7.23926 12.7262 7.24977 12.7445C7.26027 12.7627 7.26578 12.7834 7.26573 12.8045C7.26569 12.8255 7.26009 12.8462 7.24951 12.8644Z" fill="#263E35"/>
<path d="M11.1256 12.9305L10.149 14.6129C10.1385 14.6311 10.1234 14.6462 10.1051 14.6567C10.0869 14.6673 10.0663 14.6728 10.0452 14.6728C10.0242 14.6728 10.0036 14.6673 9.98534 14.6567C9.96712 14.6462 9.95199 14.6311 9.94146 14.6129L8.96492 12.9305C8.95435 12.9122 8.94876 12.8915 8.94873 12.8705C8.9487 12.8494 8.95422 12.8287 8.96475 12.8104C8.97527 12.7921 8.99042 12.777 9.00867 12.7664C9.02692 12.7559 9.04763 12.7504 9.0687 12.7504H11.0218C11.0428 12.7504 11.0636 12.7559 11.0818 12.7664C11.1001 12.777 11.1152 12.7921 11.1257 12.8104C11.1363 12.8287 11.1418 12.8494 11.1417 12.8705C11.1417 12.8915 11.1361 12.9122 11.1256 12.9305Z" fill="#263E35"/>
<path d="M15.0095 12.9509L14.0332 14.633C14.0227 14.651 14.0077 14.6659 13.9896 14.6763C13.9716 14.6867 13.9511 14.6922 13.9303 14.6922C13.9094 14.6922 13.889 14.6867 13.8709 14.6763C13.8528 14.6659 13.8378 14.651 13.8274 14.633L12.851 12.9509C12.8405 12.9328 12.835 12.9123 12.835 12.8913C12.8349 12.8704 12.8404 12.8498 12.8509 12.8317C12.8613 12.8136 12.8764 12.7985 12.8945 12.7881C12.9127 12.7776 12.9332 12.7721 12.9542 12.7722H14.9064C14.9273 12.7721 14.9479 12.7776 14.966 12.7881C14.9841 12.7985 14.9992 12.8136 15.0096 12.8317C15.0201 12.8498 15.0256 12.8704 15.0256 12.8913C15.0255 12.9123 15.02 12.9328 15.0095 12.9509Z" fill="#263E35"/>
<path d="M3.51683 14.7487L4.48857 13.0741C4.49953 13.0551 4.51527 13.0394 4.53421 13.0285C4.55315 13.0176 4.57463 13.0118 4.5965 13.0118C4.61836 13.0118 4.63984 13.0176 4.65878 13.0285C4.67772 13.0394 4.69346 13.0551 4.70442 13.0741L5.67616 14.7487C5.68715 14.7677 5.69296 14.7892 5.69299 14.8111C5.69302 14.833 5.68728 14.8545 5.67633 14.8735C5.66539 14.8925 5.64964 14.9083 5.63066 14.9193C5.61168 14.9302 5.59015 14.936 5.56823 14.936H3.62476C3.60284 14.936 3.58131 14.9302 3.56233 14.9193C3.54335 14.9083 3.5276 14.8925 3.51666 14.8735C3.50571 14.8545 3.49997 14.833 3.5 14.8111C3.50003 14.7892 3.50584 14.7677 3.51683 14.7487Z" fill="#263E35"/>
<path d="M7.42087 14.7666C7.72916 14.2346 8.03636 13.702 8.34682 13.1713C8.41507 13.0549 8.52495 13.0431 8.59494 13.1639C8.91093 13.7087 9.22794 14.2527 9.54596 14.796C9.56311 14.8255 9.57191 14.8635 9.57234 14.91C9.5724 14.9156 9.57136 14.9211 9.56928 14.9262C9.56721 14.9313 9.56413 14.936 9.56024 14.9399C9.55635 14.9439 9.55171 14.947 9.5466 14.9491C9.5415 14.9512 9.53602 14.9523 9.53048 14.9523H7.42654C7.4174 14.9523 7.40853 14.9492 7.40143 14.9434C7.39432 14.9377 7.38941 14.9297 7.38751 14.9207C7.37552 14.8643 7.38991 14.8198 7.42087 14.7666Z" fill="#263E35"/>
<path d="M11.4223 14.7704C11.7227 14.252 12.0249 13.7342 12.3245 13.2153C12.3585 13.1564 12.3868 13.1196 12.4095 13.1049C12.4878 13.0541 12.5558 13.1093 12.5976 13.1812C12.9168 13.7315 13.236 14.2816 13.5552 14.8315C13.5747 14.865 13.5765 14.9023 13.5607 14.9433C13.5583 14.9494 13.5538 14.9525 13.5471 14.9525H11.4105C11.396 14.9525 11.3877 14.9453 11.3859 14.9309C11.3767 14.8666 11.388 14.8295 11.4223 14.7704Z" fill="#263E35"/>
</svg>
