<svg width="250" height="414" viewBox="0 0 250 414" fill="none" xmlns="http://www.w3.org/2000/svg">
<g clip-path="url(#clip0_20_10)">
<path d="M129.058 149.572C121.23 149.572 114.884 143.23 114.884 135.406C114.884 127.583 121.23 121.241 129.058 121.241C136.886 121.241 143.231 127.583 143.231 135.406C143.231 143.23 136.886 149.572 129.058 149.572Z" fill="#FBC0A4"/>
<path d="M141.634 210.182C135.045 209.423 130.319 203.468 131.079 196.883C131.839 190.298 137.797 185.575 144.386 186.334C150.976 187.094 155.701 193.048 154.941 199.634C154.181 206.219 148.223 210.942 141.634 210.182Z" fill="#FBC0A4"/>
<path d="M143.173 134.208C146.096 157.583 152.932 189.303 154.335 194.276L131.666 202.224C131.666 202.224 115.878 156.941 114.914 136.242L143.173 134.208Z" fill="#FBC0A4"/>
<path d="M144.225 183.588C146.716 183.138 149.225 182.764 151.721 182.302C151.721 182.302 145.102 149.642 143.173 134.208C142.816 130.532 141.036 127.141 138.213 124.759C135.389 122.377 131.745 121.192 128.059 121.457C124.374 121.723 120.938 123.417 118.485 126.18C116.032 128.942 114.757 132.553 114.931 136.242C115.516 148.514 119.34 167.062 122.72 187.527C128.684 186.919 138.32 184.657 144.225 183.588Z" fill="#1E1C2E"/>
<path d="M131.583 201.958C129.529 195.654 132.976 188.88 139.283 186.828C145.59 184.775 152.368 188.22 154.422 194.523C156.476 200.827 153.029 207.601 146.722 209.653C140.415 211.706 133.637 208.261 131.583 201.958Z" fill="#FBC0A4"/>
<path d="M179.548 154.188C180.414 153.311 181.52 152.71 182.728 152.461C183.935 152.212 185.19 152.327 186.332 152.791C187.474 153.255 188.453 154.047 189.145 155.067C189.837 156.086 190.211 157.289 190.219 158.521C190.227 159.753 189.869 160.96 189.191 161.989C188.513 163.018 187.544 163.823 186.408 164.302C185.272 164.781 184.02 164.912 182.809 164.679C181.598 164.447 180.484 163.86 179.606 162.995C178.432 161.834 177.766 160.254 177.755 158.603C177.745 156.953 178.389 155.365 179.548 154.188Z" fill="#FBC0A4"/>
<path d="M179.548 154.188C174.432 160.377 163.65 166.635 151.762 175.483C140.314 184.003 134.449 189.817 134.449 189.817L151.552 206.682C151.552 206.682 185.009 168.371 189.301 161.802L179.548 154.188Z" fill="#FBC0A4"/>
<path d="M181.589 152.832C182.724 152.355 183.975 152.224 185.184 152.457C186.394 152.69 187.507 153.276 188.383 154.141C189.259 155.006 189.859 156.111 190.106 157.317C190.354 158.523 190.238 159.775 189.773 160.915C189.309 162.055 188.517 163.032 187.497 163.722C186.477 164.412 185.275 164.784 184.044 164.791C182.812 164.799 181.606 164.441 180.578 163.763C179.55 163.086 178.746 162.119 178.267 160.984C177.628 159.463 177.618 157.75 178.241 156.222C178.863 154.693 180.067 153.474 181.589 152.832Z" fill="#FBC0A4"/>
<path d="M211.994 149.32C211.409 148.736 210.503 148.537 209.976 147.894C209.339 147.111 209.567 145.925 210.093 145.06C210.62 144.195 211.391 143.5 211.883 142.618C212.374 141.735 212.502 140.508 211.783 139.801C211.064 139.094 209.637 139.216 208.971 138.369C208.386 137.645 208.661 136.563 209.099 135.739C209.538 134.915 210.128 134.103 210.111 133.168C210.111 131.415 207.772 130.427 206.1 131.041C203.977 131.824 202.241 133.449 200.481 134.816C199.44 135.628 196.908 138.13 195.499 137.417C195.177 137.221 194.901 136.96 194.688 136.649C194.476 136.339 194.331 135.987 194.265 135.617C194.14 134.878 194.056 134.133 194.014 133.384C193.743 131.198 192.647 129.197 190.95 127.792C190.672 127.513 190.333 127.301 189.96 127.175C189.586 127.048 189.189 127.009 188.798 127.061C188.408 127.206 188.071 127.464 187.83 127.803C187.589 128.142 187.456 128.545 187.447 128.961C187.443 129.789 187.578 130.613 187.845 131.398C189.004 136.039 188.61 140.933 186.722 145.329C185.214 148.66 181.822 151.395 179.548 154.188L185.395 164.625C192.476 161.119 199.107 158.781 204.802 156.181C206.971 155.187 209.93 154.247 211.619 152.493C212.461 151.652 212.777 150.191 211.994 149.32Z" fill="#FBC0A4"/>
<path d="M197.224 387.487L198.13 398.333L201.948 405.399L213.993 401.401L215.695 393.355L214.999 380.855L197.224 387.487Z" fill="#403433"/>
<path d="M246.34 405.913C242.194 403.967 229.336 400.233 219.794 393.384C219.295 393.017 218.726 392.756 218.123 392.615C217.52 392.475 216.895 392.458 216.285 392.566L215.631 392.688C215.426 394.488 214.702 396.189 213.548 397.586C212.393 398.982 210.858 400.013 209.129 400.554C205.036 401.939 198.107 398.333 198.107 398.333L198.925 413.72H248.509C248.797 413.546 249.046 413.313 249.239 413.038C249.432 412.762 249.566 412.449 249.632 412.119C249.632 412.119 251.626 408.391 246.34 405.913Z" fill="#403433"/>
<path d="M177.291 278.882L188.769 393.296C188.769 393.296 207.48 396.247 220.133 391.344L212.192 275.849L177.291 278.882Z" fill="#19348B"/>
<path d="M177.529 280.617C175.749 271.113 182.015 261.966 191.525 260.188C201.035 258.409 210.187 264.672 211.967 274.176C213.747 283.68 207.48 292.827 197.97 294.606C188.46 296.384 179.308 290.122 177.529 280.617Z" fill="#19348B"/>
<path d="M48.4727 269.485H161.188V413.714H48.4727V269.485Z" fill="#744EFF"/>
<path d="M-1.14441e-05 269.485H48.4844V413.714H-1.14441e-05V269.485Z" fill="#7466FF"/>
<path d="M141.378 128.072C142.829 130.47 143.536 133.243 143.409 136.042C143.283 138.841 142.329 141.54 140.667 143.797C139.006 146.054 136.713 147.768 134.077 148.722C131.441 149.676 128.581 149.828 125.859 149.157C123.137 148.487 120.675 147.025 118.785 144.956C116.894 142.887 115.66 140.305 115.238 137.535C114.816 134.765 115.226 131.932 116.415 129.395C117.604 126.858 119.519 124.73 121.919 123.281C125.135 121.338 128.992 120.751 132.641 121.65C136.29 122.548 139.433 124.858 141.378 128.072Z" fill="#1E1C2E"/>
<path d="M37.9888 153.049C30.161 153.049 23.8154 146.707 23.8154 138.883C23.8154 131.06 30.161 124.718 37.9888 124.718C45.8166 124.718 52.1623 131.06 52.1623 138.883C52.1623 146.707 45.8166 153.049 37.9888 153.049Z" fill="#1E1C2E"/>
<path d="M40.6317 147.1C34.7261 187.965 34.7261 236.205 34.7261 236.205C34.7261 236.205 83.2573 235.568 119.428 228.807L118.726 193.055L127.403 134.121L139.016 125.151C128.824 115.701 93.0162 103.184 82.9825 104.768C67.1952 107.257 27.9844 125.77 26.8091 130.2L40.6317 147.1Z" fill="#1E1C2E"/>
<path d="M73.1885 108.776L69.6276 74.2341L95.969 87.6397L95.7176 88.9019L94.9867 106.275C94.7762 111.248 94.9867 116.268 89.7535 117.104C83.497 118.109 73.7791 114.497 73.1885 108.776Z" fill="#FBC0A4"/>
<path d="M95.2615 99.6836L95.7176 88.9019L95.969 87.6397L69.6276 74.2341L71.3058 90.5323C76.0127 97.5974 85.3096 99.7128 95.2615 99.6836Z" fill="#F69D7D"/>
<path d="M113.528 59.9403C113.411 51.7124 113.908 39.873 110.604 31.2652C109.154 27.4843 106.956 24.3345 103.652 22.3885C100.039 19.7881 95.0101 18.1051 87.4614 17.5032C71.5981 16.2409 61.2896 22.1781 54.39 32.4982C49.2504 40.1944 51.4665 50.2807 52.4897 53.9213C49.5661 54.1901 45.4732 55.9549 46.4087 63.9842C47.8354 76.2561 56.7172 76.4957 59.3425 77.0216C59.3425 77.0216 64.2308 98.8655 91.1919 96.7734C118.153 94.6813 113.727 73.7666 113.528 59.9403Z" fill="#FBC0A4"/>
<path d="M114.417 32.9131C121.638 26.7246 125.912 18.0642 123.322 8.048C119.41 9.80112 115.721 11.2562 111.797 13.021C115.89 9.32193 116.791 5.96179 116.475 0.749176C116.475 0.749176 67.8969 11.1686 57.5767 19.0401C54.5362 21.3776 52.8113 23.5397 51.8933 25.8831L44.5084 16.8078C44.5084 16.8078 40.0938 27.7706 48.7125 31.534C46.8765 32.8079 45.1399 34.9 44.257 38.3594C41.883 47.7094 48.8294 55.2186 48.8294 55.2186C49.7428 54.6576 50.7727 54.3132 51.84 54.2119C52.9073 54.1106 53.9837 54.2551 54.9865 54.6342C58.1147 55.7329 61.6171 61.3019 61.4183 66.8184L64.2892 66.4386L63.915 54.8388C63.915 54.8388 67.7215 52.0279 71.0017 42.3566C76.1414 44.9103 82.3042 46.1141 87.1398 45.3719L78.1645 36.6589C86.2861 42.5026 92.7004 44.7759 102.722 45.255C112.744 45.7342 123.369 41.404 128.45 32.7845C124.181 32.9774 118.732 32.6735 114.417 32.9131Z" fill="#3F2900"/>
<path d="M94.9691 69.3721C94.3259 69.0624 93.519 69.3721 92.8057 69.6643C92.0923 69.9565 91.379 70.4649 91.2153 71.1603C91.1568 71.5051 91.379 71.8791 91.8935 72.0953C92.5555 72.3134 93.2761 72.2673 93.9049 71.9667C94.5336 71.6662 95.0218 71.1343 95.2673 70.4824C95.3516 70.2911 95.368 70.0767 95.3138 69.8748C95.2596 69.6729 95.138 69.4956 94.9691 69.3721Z" fill="#F69D7D"/>
<path d="M87.3971 47.2478L87.3678 47.201C85.029 46.0323 77.6616 46.8855 72.7091 49.5385C72.6214 50.8884 73.8785 52.0396 75.1707 52.3961C76.463 52.7526 77.8546 52.5013 79.1819 52.25C81.5207 51.8059 83.6491 51.0813 85.8827 50.5319C86.2177 50.4448 86.5291 50.2845 86.7946 50.0625C87.0601 49.8405 87.2729 49.5623 87.4178 49.2481C87.5627 48.934 87.636 48.5916 87.6324 48.2456C87.6288 47.8997 87.5484 47.5589 87.3971 47.2478Z" fill="#403433"/>
<path d="M96.2204 47.1426C100.232 45.594 105.137 46.231 109.669 48.5568C109.745 49.8833 108.599 51.0988 107.4 51.5312C106.199 51.8638 104.935 51.8998 103.716 51.6364C101.67 51.3559 99.7989 50.83 97.8693 50.4092C97.5212 50.344 97.1929 50.1995 96.9098 49.9869C96.6267 49.7742 96.3964 49.4993 96.2369 49.1833C96.0774 48.8673 95.993 48.5188 95.9901 48.1649C95.9872 47.8109 96.066 47.4611 96.2204 47.1426Z" fill="#403433"/>
<path d="M77.0418 59.2099C77.0126 59.9019 77.1891 60.5872 77.5491 61.1791C77.9091 61.771 78.4364 62.243 79.0646 62.5357C79.6927 62.8284 80.3935 62.9286 81.0786 62.8236C81.7637 62.7186 82.4023 62.4132 82.9139 61.9459C83.4254 61.4786 83.7871 60.8703 83.9531 60.1978C84.1191 59.5253 84.0821 58.8187 83.8468 58.1672C83.6114 57.5157 83.1883 56.9485 82.6307 56.5371C82.0731 56.1257 81.4061 55.8885 80.7138 55.8556C80.2521 55.8336 79.7905 55.9031 79.3556 56.06C78.9208 56.2169 78.5213 56.4581 78.1801 56.7698C77.8388 57.0815 77.5626 57.4576 77.3673 57.8763C77.1719 58.2951 77.0613 58.7483 77.0418 59.2099Z" fill="#403433"/>
<path d="M95.7526 59.2099C95.7235 59.9017 95.8999 60.5866 96.2596 61.1784C96.6194 61.7701 97.1464 62.2421 97.7743 62.5349C98.4021 62.8277 99.1026 62.9282 99.7874 62.8236C100.472 62.7191 101.111 62.4143 101.623 61.9475C102.134 61.4808 102.496 60.8731 102.663 60.201C102.83 59.5289 102.794 58.8226 102.559 58.171C102.325 57.5195 101.902 56.9519 101.346 56.5398C100.789 56.1278 100.122 55.8897 99.4305 55.8556C98.9682 55.8328 98.506 55.9017 98.0705 56.0582C97.635 56.2148 97.2348 56.4559 96.893 56.7677C96.5511 57.0794 96.2743 57.4558 96.0786 57.8749C95.8829 58.2941 95.7721 58.7478 95.7526 59.2099Z" fill="#403433"/>
<path d="M112.932 71.0084C112.991 72.3202 112.661 73.6202 111.981 74.7442C111.302 75.8681 110.304 76.7654 109.115 77.3226C107.925 77.8798 106.596 78.0718 105.297 77.8744C103.999 77.677 102.787 77.099 101.817 76.2135C100.847 75.3281 100.161 74.1749 99.8467 72.8999C99.5323 71.6249 99.6033 70.2854 100.051 69.0508C100.498 67.8161 101.302 66.7418 102.36 65.9637C103.419 65.1857 104.684 64.7388 105.997 64.6796C107.756 64.6003 109.475 65.2225 110.775 66.4092C112.076 67.596 112.851 69.2503 112.932 71.0084Z" fill="#F9B092"/>
<path d="M79.2637 71.9609C79.3237 73.2727 78.993 74.5727 78.3136 75.6967C77.6342 76.8206 76.6365 77.7179 75.4468 78.2751C74.257 78.8323 72.9287 79.0243 71.6297 78.8269C70.3307 78.6295 69.1195 78.0515 68.1493 77.166C67.179 76.2806 66.4934 75.1274 66.1789 73.8524C65.8645 72.5775 65.9355 71.2379 66.383 70.0033C66.8304 68.7686 67.6341 67.6943 68.6925 66.9163C69.7509 66.1382 71.0165 65.6913 72.329 65.6321C73.2005 65.5913 74.0714 65.7228 74.8919 66.019C75.7124 66.3151 76.4664 66.7702 77.1106 67.3581C77.7548 67.9461 78.2766 68.6553 78.6461 69.4451C79.0156 70.2349 79.2254 71.0899 79.2637 71.9609Z" fill="#F9B092"/>
<path d="M49.9111 59.4963C48.9756 62.7395 50.3087 66.1639 51.6185 69.2787C51.9208 70.2399 52.4907 71.0953 53.2615 71.7447C54.0918 72.3291 55.4484 72.2239 55.8811 71.324C56.3137 70.424 55.6823 69.4598 55.1969 68.6183C54.7116 67.7768 54.4368 66.5204 55.2496 65.9945C55.6296 65.749 56.1325 65.7666 56.5301 65.5562C57.4013 65.1004 57.3955 63.8557 57.1674 62.8973C56.8568 61.5701 56.365 60.292 55.7056 59.0989C55.0625 57.9301 54.045 56.7614 52.7061 56.7614C51.3671 56.7614 50.3029 58.1522 49.9111 59.4963Z" fill="#F9B092"/>
<path d="M95.3609 77.1794C95.01 76.595 92.3087 77.5709 89.3676 76.595C86.4265 75.6191 84.7834 73.305 84.1402 73.5972C83.8362 73.7316 83.8186 74.6081 84.4852 75.7944C85.4189 77.3315 86.8773 78.4792 88.5913 79.0259C90.3054 79.5726 92.1594 79.4813 93.8114 78.7689C95.051 78.1904 95.5363 77.4657 95.3609 77.1794Z" fill="#F69D7D"/>
<path d="M72.6155 103.207C72.6155 103.207 86.023 118.091 89.7535 117.104C93.484 116.116 95.127 102.985 95.127 102.985C95.127 102.985 103.278 104.738 104.202 106.345C105.126 107.952 105.605 123.584 102.886 126.442C100.167 129.3 91.1919 121.27 91.1919 121.27C91.1919 121.27 83.5146 131.205 79.2345 130.258C74.9544 129.311 65.1546 110.348 64.5173 108.099C63.8799 105.849 72.6155 103.207 72.6155 103.207Z" fill="#E9D9C9"/>
<path d="M177.3 278.963C176.366 269.339 183.416 260.78 193.045 259.846C202.675 258.913 211.239 265.958 212.173 275.582C213.107 285.206 206.058 293.765 196.428 294.699C186.798 295.632 178.234 288.587 177.3 278.963Z" fill="#19348B"/>
<path d="M117.071 229.438C121.034 230.447 124.608 232.608 127.341 235.647C130.075 238.686 131.845 242.467 132.429 246.512C133.012 250.557 132.383 254.684 130.619 258.371C128.856 262.058 126.039 265.14 122.523 267.227C119.008 269.314 114.952 270.312 110.868 270.096C106.785 269.879 102.858 268.457 99.5832 266.01C96.3085 263.562 93.8335 260.2 92.471 256.346C91.1085 252.493 90.9197 248.323 91.9286 244.363C92.5986 241.733 93.7805 239.26 95.4068 237.087C97.033 234.913 99.0718 233.081 101.407 231.695C103.741 230.309 106.326 229.397 109.014 229.009C111.702 228.622 114.44 228.768 117.071 229.438Z" fill="#19348B"/>
<path d="M199.066 260.293L117.071 229.438L106.862 269.485L190.418 294.221L199.066 260.293Z" fill="#19348B"/>
<path d="M119.428 228.807H34.7261V249.605C34.7647 255.059 36.9602 260.277 40.8336 264.119C44.707 267.962 49.9439 270.118 55.4016 270.116H98.6704C99.4635 270.12 100.256 270.077 101.044 269.988C106.056 269.407 110.683 267.014 114.051 263.259C117.419 259.504 119.296 254.647 119.328 249.605H119.416L119.428 228.807Z" fill="#19348B"/>
<path d="M119.428 228.807H34.7261V249.605C34.7647 255.059 36.9602 260.277 40.8336 264.119C44.707 267.962 49.9439 270.118 55.4016 270.116H98.6704C99.4635 270.12 100.256 270.077 101.044 269.988C106.056 269.407 110.683 267.014 114.051 263.259C117.419 259.504 119.296 254.647 119.328 249.605H119.416L119.428 228.807Z" fill="#19348B"/>
<path d="M121.574 387.487L119.697 398.333L121.702 405.399L134.771 401.401L138.536 393.355L141.056 380.855L121.574 387.487Z" fill="#403433"/>
<path d="M167.766 405.913C164.117 403.967 150.417 400.233 142.623 393.384C142.173 393.009 141.645 392.741 141.077 392.6C140.509 392.458 139.916 392.446 139.343 392.566L138.665 392.688C137.934 394.561 136.785 396.242 135.307 397.605C133.829 398.968 132.06 399.976 130.134 400.554C125.655 401.939 119.685 398.333 119.685 398.333L116.551 413.72H167.93C168.599 413.369 169.135 412.809 169.456 412.125C169.456 412.125 172.414 408.39 167.766 405.913Z" fill="#403433"/>
<path d="M129.876 274.791L118.726 389.65C118.726 389.65 132.759 396.037 146.167 394.214L164.532 279.951L129.876 274.791Z" fill="#19348B"/>
<path d="M135.12 290.063C128.121 283.388 127.862 272.306 134.541 265.31C141.22 258.315 152.309 258.056 159.308 264.731C166.308 271.407 166.567 282.489 159.888 289.484C153.208 296.48 142.12 296.739 135.12 290.063Z" fill="#19348B"/>
<path d="M131.831 285.642C127.193 277.157 130.315 266.52 138.805 261.884C147.296 257.248 157.939 260.368 162.578 268.854C167.217 277.339 164.094 287.976 155.604 292.612C147.113 297.248 136.47 294.128 131.831 285.642Z" fill="#19348B"/>
<path d="M60.5061 229.438C64.4685 230.447 68.0423 232.608 70.7759 235.647C73.5095 238.686 75.28 242.467 75.8635 246.512C76.4471 250.557 75.8175 254.684 74.0543 258.371C72.2912 262.058 69.4736 265.14 65.958 267.227C62.4424 269.314 58.3865 270.312 54.3033 270.095C50.22 269.879 46.2928 268.457 43.0181 266.01C39.7434 263.562 37.2683 260.199 35.9058 256.346C34.5433 252.493 34.3546 248.323 35.3635 244.363C36.718 239.052 40.1277 234.496 44.8426 231.697C49.5576 228.898 55.1917 228.086 60.5061 229.438Z" fill="#19348B"/>
<path d="M151.528 260.293L60.5061 229.438L50.297 269.485L142.881 294.221L151.528 260.293Z" fill="#19348B"/>
<path d="M34.2972 152.66C26.6775 150.868 21.9539 143.242 23.7467 135.627C25.5395 128.012 33.1698 123.291 40.7895 125.083C48.4092 126.875 53.1329 134.5 51.3401 142.116C49.5473 149.731 41.9169 154.452 34.2972 152.66Z" fill="#FBC0A4"/>
<path d="M29.8905 218.411C23.2576 218.411 17.8805 213.037 17.8805 206.408C17.8805 199.779 23.2576 194.405 29.8905 194.405C36.5235 194.405 41.9006 199.779 41.9006 206.408C41.9006 213.037 36.5235 218.411 29.8905 218.411Z" fill="#FBC0A4"/>
<path d="M51.2618 142.425C46.28 165.437 42.2221 201.248 41.9064 206.408H17.8688C17.8688 206.408 17.9799 154.843 23.9206 134.997L51.2618 142.425Z" fill="#FBC0A4"/>
<path d="M43.1986 194.007C44.8767 182.267 47.9699 157.63 51.2618 142.425C52.2025 138.817 51.6812 134.985 49.8111 131.759C47.941 128.534 44.8732 126.176 41.2739 125.198C37.6745 124.22 33.8344 124.7 30.5875 126.535C27.3406 128.37 24.949 131.411 23.9323 134.997C20.424 146.772 17.8805 164.946 14.8225 186.282C22.377 190.793 40.6727 193.622 43.1986 194.007Z" fill="#1E1C2E" stroke="#1E1C2E" stroke-width="2" stroke-miterlimit="10"/>
<path d="M32.7907 195.316C35.0967 195.886 37.1817 197.127 38.7821 198.882C40.3825 200.636 41.4263 202.826 41.7815 205.173C42.1367 207.521 41.7875 209.921 40.7778 212.07C39.7682 214.219 38.1435 216.02 36.1093 217.246C34.0752 218.473 31.7228 219.068 29.3499 218.958C26.9769 218.848 24.6899 218.037 22.7781 216.628C20.8663 215.219 19.4155 213.275 18.6093 211.042C17.8031 208.808 17.6777 206.386 18.2489 204.082C19.016 200.993 20.9784 198.335 23.705 196.692C26.4316 195.048 29.6994 194.554 32.7907 195.316Z" fill="#FBC0A4"/>
<path d="M89.9874 216.722C91.1845 217.017 92.2672 217.66 93.0985 218.57C93.9298 219.48 94.4724 220.616 94.6576 221.835C94.8427 223.053 94.6622 224.299 94.1388 225.414C93.6155 226.53 92.7728 227.466 91.7173 228.103C90.6618 228.74 89.441 229.05 88.2093 228.993C86.9776 228.936 85.7904 228.516 84.7978 227.785C83.8052 227.054 83.0517 226.045 82.6329 224.886C82.214 223.727 82.1485 222.47 82.4446 221.274C82.8414 219.671 83.8588 218.291 85.2731 217.438C86.6875 216.584 88.3832 216.327 89.9874 216.722Z" fill="#FBC0A4"/>
<path d="M89.9874 216.722C82.0528 215.489 67.6513 208.541 53.9632 202.878C40.7838 197.397 32.7907 195.34 32.7907 195.34L27.0313 218.65C27.0313 218.65 80.5852 228.661 88.4262 228.994L89.9874 216.722Z" fill="#FBC0A4"/>
<path d="M88.6191 216.547C89.8523 216.532 91.0622 216.883 92.0957 217.555C93.1292 218.228 93.9398 219.191 94.4251 220.324C94.9103 221.458 95.0483 222.709 94.8216 223.921C94.595 225.132 94.0138 226.249 93.1516 227.13C92.2895 228.012 91.1851 228.618 89.9783 228.871C88.7715 229.125 87.5164 229.016 86.372 228.556C85.2276 228.097 84.2453 227.309 83.5493 226.291C82.8533 225.274 82.4749 224.073 82.4621 222.84C82.4449 221.19 83.0836 219.601 84.238 218.421C85.3924 217.241 86.968 216.567 88.6191 216.547Z" fill="#FBC0A4"/>
<path d="M88.6191 216.547C94.1564 215.688 104.991 205.367 107.745 205.835C110.499 206.302 124.86 216.313 124.117 218.504C123.374 220.696 120.504 220.555 120.849 221.911C121.194 223.267 121.147 224.745 118.071 225.669C114.996 226.592 106.564 230.437 101.53 229.227C96.4952 228.018 90.1277 228.813 90.1277 228.813L88.6191 216.547Z" fill="#FBC0A4"/>
<path d="M67.9846 232.675H115.814V227.019H67.1485V231.845C67.15 232.066 67.2388 232.277 67.3954 232.433C67.5521 232.588 67.7639 232.675 67.9846 232.675Z" fill="white"/>
<path d="M197.656 232.675H111.955C111.628 232.684 111.303 232.621 111.002 232.491C110.702 232.36 110.434 232.166 110.217 231.92C110 231.675 109.84 231.386 109.747 231.072C109.654 230.758 109.632 230.428 109.681 230.104L116.919 169.154C117.112 167.752 117.797 166.465 118.852 165.522C119.907 164.578 121.263 164.041 122.679 164.006H203.223C203.877 163.99 204.527 164.117 205.127 164.379C205.727 164.641 206.262 165.031 206.695 165.522C207.128 166.012 207.448 166.592 207.633 167.219C207.818 167.847 207.864 168.507 207.766 169.154L200.533 230.104C200.439 230.805 200.097 231.449 199.57 231.92C199.042 232.392 198.364 232.659 197.656 232.675Z" fill="white"/>
<path d="M160.954 201.861C158.112 201.861 155.809 199.559 155.809 196.719C155.809 193.879 158.112 191.576 160.954 191.576C163.796 191.576 166.099 193.879 166.099 196.719C166.099 199.559 163.796 201.861 160.954 201.861Z" fill="#F8E8D8"/>
<path d="M170.894 186.767L152.651 186.925C152.215 186.929 151.797 187.098 151.481 187.398C151.33 187.542 151.211 187.715 151.129 187.907C151.048 188.099 151.006 188.306 151.008 188.514L151.13 202.656C151.133 202.865 151.179 203.071 151.264 203.262C151.35 203.453 151.473 203.625 151.627 203.766C151.946 204.059 152.364 204.219 152.797 204.216L171.04 204.053C171.475 204.053 171.894 203.886 172.209 203.585C172.36 203.441 172.479 203.267 172.56 203.076C172.642 202.884 172.684 202.677 172.683 202.469L172.566 188.304C172.563 188.096 172.517 187.89 172.431 187.7C172.346 187.51 172.223 187.34 172.069 187.199C171.747 186.911 171.326 186.756 170.894 186.767ZM158.217 197.251C158.303 197.311 158.376 197.387 158.432 197.475C158.488 197.563 158.527 197.662 158.545 197.765C158.559 197.867 158.553 197.972 158.527 198.072C158.501 198.173 158.455 198.267 158.393 198.349C158.258 198.519 158.063 198.63 157.849 198.659C157.632 198.694 157.41 198.643 157.229 198.519L153.896 196.181C153.791 196.112 153.704 196.018 153.645 195.907C153.586 195.799 153.556 195.678 153.557 195.556C153.555 195.432 153.584 195.309 153.642 195.199C153.699 195.089 153.782 194.995 153.884 194.925L157.176 192.541C157.347 192.421 157.554 192.365 157.761 192.383C157.976 192.411 158.173 192.519 158.311 192.687C158.377 192.767 158.426 192.861 158.455 192.961C158.483 193.062 158.49 193.168 158.474 193.271C158.459 193.375 158.423 193.475 158.368 193.565C158.313 193.654 158.239 193.731 158.153 193.791L155.738 195.544L158.217 197.251ZM164.257 190.185L161.035 201.213C161.008 201.315 160.96 201.41 160.895 201.493C160.829 201.578 160.745 201.648 160.65 201.698C160.553 201.75 160.448 201.786 160.34 201.803C160.231 201.823 160.12 201.823 160.012 201.803C159.907 201.774 159.808 201.727 159.72 201.663C159.633 201.599 159.562 201.517 159.509 201.423C159.456 201.334 159.422 201.234 159.41 201.131C159.389 201.029 159.389 200.923 159.41 200.821L162.632 189.788C162.662 189.689 162.713 189.596 162.78 189.517C162.847 189.438 162.93 189.373 163.024 189.326C163.214 189.225 163.435 189.2 163.643 189.256C163.85 189.307 164.029 189.437 164.14 189.619C164.197 189.701 164.236 189.793 164.256 189.89C164.276 189.988 164.276 190.088 164.257 190.185ZM169.812 196.029L166.514 198.413C166.337 198.541 166.118 198.597 165.901 198.57C165.684 198.543 165.485 198.435 165.345 198.267C165.279 198.186 165.23 198.093 165.202 197.992C165.174 197.892 165.167 197.786 165.181 197.683C165.214 197.475 165.328 197.288 165.497 197.163L167.918 195.41L165.468 193.698C165.381 193.639 165.308 193.563 165.251 193.476C165.194 193.387 165.156 193.288 165.14 193.183C165.117 193.083 165.117 192.979 165.14 192.879C165.166 192.778 165.211 192.682 165.275 192.599C165.34 192.516 165.422 192.446 165.514 192.394C165.609 192.342 165.712 192.307 165.818 192.289C165.925 192.269 166.034 192.269 166.14 192.289C166.248 192.31 166.349 192.354 166.438 192.418L169.771 194.755C169.872 194.828 169.956 194.921 170.017 195.03C170.076 195.138 170.108 195.258 170.11 195.381C170.11 195.504 170.082 195.626 170.028 195.737C169.981 195.857 169.907 195.965 169.812 196.053V196.029Z" fill="#2E3132"/>
<path d="M153.259 205.677H154.136C154.221 205.676 154.303 205.707 154.365 205.765C154.427 205.823 154.465 205.902 154.469 205.987V206.823C154.469 206.864 154.461 206.906 154.445 206.944C154.428 206.982 154.404 207.017 154.374 207.046C154.344 207.075 154.309 207.097 154.27 207.112C154.231 207.127 154.189 207.134 154.148 207.132H153.265C153.18 207.134 153.099 207.102 153.038 207.044C152.976 206.986 152.94 206.907 152.937 206.823V205.987C152.94 205.904 152.975 205.825 153.035 205.767C153.095 205.709 153.176 205.677 153.259 205.677Z" fill="#2E3132"/>
<path d="M143.892 212.848C143.375 212.854 142.861 212.773 142.371 212.608C141.928 212.452 141.517 212.214 141.161 211.907C140.825 211.608 140.552 211.244 140.36 210.837C140.168 210.415 140.071 209.957 140.074 209.493C140.063 209.03 140.153 208.569 140.337 208.143C140.524 207.733 140.792 207.365 141.126 207.062C141.475 206.748 141.882 206.503 142.325 206.343C142.806 206.165 143.314 206.074 143.827 206.075C144.338 206.067 144.847 206.148 145.33 206.314C145.772 206.467 146.179 206.705 146.529 207.015C146.869 207.313 147.143 207.677 147.336 208.085C147.538 208.504 147.64 208.964 147.634 209.429C147.643 209.888 147.552 210.343 147.368 210.764C147.185 211.184 146.912 211.56 146.57 211.866C146.23 212.177 145.833 212.419 145.4 212.579C144.918 212.76 144.407 212.851 143.892 212.848ZM143.892 211.556C144.181 211.554 144.468 211.5 144.74 211.398C144.995 211.301 145.228 211.151 145.424 210.96C145.62 210.773 145.774 210.546 145.874 210.294C145.988 210.024 146.042 209.733 146.032 209.441C146.036 209.149 145.976 208.86 145.856 208.593C145.754 208.343 145.599 208.117 145.4 207.933C145.204 207.745 144.971 207.6 144.716 207.506C144.438 207.411 144.145 207.364 143.851 207.366C143.559 207.369 143.27 207.423 142.997 207.524C142.743 207.621 142.512 207.77 142.319 207.962C142.12 208.15 141.963 208.377 141.857 208.628C141.753 208.9 141.703 209.19 141.711 209.482C141.71 209.772 141.766 210.06 141.874 210.329C141.985 210.576 142.142 210.8 142.336 210.989C142.536 211.178 142.773 211.321 143.032 211.41C143.302 211.51 143.587 211.562 143.874 211.562L143.892 211.556Z" fill="#2E3132"/>
<path d="M148.757 212.696L148.716 207.664H150.183V209.084L149.967 208.675C150.117 208.327 150.384 208.042 150.721 207.869C151.114 207.664 151.553 207.564 151.996 207.576V208.92H151.815H151.651C151.277 208.908 150.912 209.035 150.628 209.277C150.491 209.415 150.387 209.581 150.321 209.764C150.255 209.947 150.23 210.141 150.248 210.335V212.713L148.757 212.696Z" fill="#2E3132"/>
<path d="M152.984 212.66L152.937 207.629H154.481L154.522 212.655L152.984 212.66Z" fill="#2E3132"/>
<path d="M162.714 207.471C163.099 207.457 163.483 207.538 163.83 207.705C164.159 207.857 164.431 208.108 164.608 208.424C164.816 208.807 164.919 209.239 164.906 209.674V212.555H163.363V209.902C163.388 209.58 163.29 209.26 163.088 209.008C162.991 208.909 162.874 208.833 162.745 208.783C162.616 208.734 162.477 208.713 162.339 208.722C162.134 208.724 161.933 208.778 161.755 208.88C161.575 208.976 161.432 209.128 161.345 209.312C161.238 209.544 161.188 209.799 161.199 210.054V212.573H159.661V209.914C159.681 209.592 159.584 209.275 159.387 209.02C159.291 208.921 159.175 208.844 159.047 208.796C158.919 208.747 158.781 208.728 158.644 208.739C158.439 208.738 158.238 208.79 158.059 208.891C157.88 208.99 157.736 209.144 157.65 209.33C157.544 209.56 157.494 209.812 157.504 210.066V212.59H155.966L155.919 207.565H157.393V208.944L157.112 208.541C157.284 208.207 157.553 207.934 157.884 207.758C158.245 207.571 158.647 207.475 159.053 207.477C159.503 207.462 159.947 207.582 160.328 207.822C160.516 207.939 160.679 208.094 160.807 208.275C160.934 208.457 161.024 208.663 161.071 208.88L160.527 208.745C160.703 208.352 160.997 208.023 161.369 207.804C161.778 207.573 162.243 207.458 162.714 207.471Z" fill="#2E3132"/>
<path d="M168.876 212.596C168.353 212.611 167.833 212.498 167.362 212.269C166.94 212.064 166.579 211.752 166.315 211.363C166.062 210.965 165.928 210.503 165.93 210.031C165.916 209.559 166.042 209.093 166.292 208.693C166.546 208.297 166.901 207.976 167.321 207.763C167.793 207.544 168.307 207.43 168.827 207.43C169.347 207.43 169.861 207.544 170.332 207.763C170.758 207.961 171.12 208.273 171.379 208.663C171.641 209.06 171.775 209.527 171.765 210.002C171.777 210.475 171.651 210.942 171.402 211.346C171.147 211.737 170.792 212.054 170.373 212.263C169.908 212.491 169.395 212.605 168.876 212.596ZM168.876 211.398C169.118 211.402 169.356 211.341 169.566 211.223C169.768 211.112 169.935 210.946 170.046 210.744C170.167 210.513 170.227 210.256 170.221 209.996C170.226 209.734 170.161 209.476 170.034 209.248C169.919 209.049 169.751 208.885 169.549 208.774C169.334 208.663 169.095 208.607 168.853 208.611C168.612 208.613 168.376 208.673 168.163 208.786C167.959 208.901 167.789 209.068 167.672 209.271C167.555 209.502 167.494 209.757 167.494 210.016C167.494 210.275 167.555 210.53 167.672 210.761C167.792 210.961 167.963 211.125 168.169 211.235C168.383 211.348 168.623 211.404 168.865 211.398H168.876Z" fill="#2E3132"/>
<path d="M175.063 212.544C174.661 212.549 174.262 212.469 173.893 212.31C173.554 212.158 173.271 211.902 173.086 211.579C172.88 211.185 172.777 210.745 172.788 210.3V207.46H174.326V210.089C174.303 210.422 174.405 210.751 174.613 211.013C174.719 211.112 174.846 211.189 174.984 211.237C175.121 211.285 175.268 211.304 175.414 211.293C175.633 211.294 175.849 211.244 176.045 211.147C176.23 211.044 176.379 210.887 176.472 210.697C176.585 210.456 176.637 210.191 176.624 209.926V207.442H178.162L178.209 212.468H176.747V211.089L177.016 211.486C176.847 211.83 176.572 212.11 176.232 212.286C175.87 212.468 175.468 212.557 175.063 212.544Z" fill="#2E3132"/>
<path d="M181.383 212.485C180.943 212.491 180.504 212.446 180.074 212.351C179.725 212.274 179.389 212.144 179.08 211.965L179.583 210.913C179.855 211.066 180.146 211.181 180.448 211.258C180.77 211.344 181.103 211.385 181.436 211.381C181.692 211.398 181.949 211.354 182.185 211.252C182.252 211.225 182.309 211.178 182.349 211.117C182.388 211.057 182.409 210.986 182.407 210.913C182.408 210.857 182.391 210.803 182.36 210.757C182.329 210.711 182.284 210.675 182.231 210.656C182.088 210.586 181.934 210.54 181.775 210.522L181.138 210.434C180.916 210.405 180.688 210.364 180.46 210.317C180.237 210.268 180.023 210.187 179.822 210.078C179.635 209.974 179.475 209.828 179.355 209.651C179.234 209.44 179.175 209.199 179.185 208.956C179.175 208.65 179.272 208.35 179.46 208.108C179.685 207.841 179.978 207.639 180.308 207.524C180.73 207.367 181.178 207.29 181.629 207.296C182 207.297 182.37 207.332 182.734 207.401C183.064 207.455 183.382 207.563 183.676 207.723L183.173 208.763C182.928 208.628 182.664 208.534 182.389 208.482C182.142 208.427 181.889 208.399 181.635 208.4C181.378 208.389 181.122 208.437 180.886 208.541C180.819 208.569 180.761 208.616 180.72 208.676C180.678 208.736 180.655 208.807 180.653 208.88C180.651 208.937 180.666 208.994 180.696 209.042C180.726 209.091 180.77 209.13 180.822 209.154C180.97 209.226 181.128 209.275 181.29 209.3C181.483 209.335 181.688 209.37 181.91 209.4C182.144 209.424 182.376 209.463 182.606 209.517C182.823 209.567 183.034 209.646 183.231 209.75C183.419 209.85 183.58 209.994 183.699 210.171C183.828 210.377 183.891 210.618 183.88 210.861C183.884 211.164 183.783 211.459 183.594 211.696C183.364 211.964 183.067 212.165 182.734 212.281C182.3 212.428 181.842 212.497 181.383 212.485Z" fill="#2E3132"/>
<path d="M172.069 182.594L171.484 183.798L170.227 184.353L171.496 184.891L172.081 186.06L172.665 184.862L173.923 184.277L172.654 183.746M167.479 183.898L166.339 186.346L163.819 187.456L166.362 188.526L167.532 190.91L168.66 188.502L171.18 187.392L168.678 186.329M172.151 188.695L171.566 189.893L170.315 190.478L171.578 191.009L172.163 192.178L172.747 190.974L174.004 190.419L172.736 189.882" fill="#565494"/>
<path d="M95.3822 150.097H77.1392C76.7043 150.095 76.2853 150.26 75.9697 150.559C75.8161 150.7 75.6936 150.872 75.6101 151.063C75.5265 151.254 75.4837 151.461 75.4844 151.669V165.817C75.4848 166.026 75.528 166.232 75.6115 166.423C75.695 166.614 75.817 166.786 75.9697 166.927C76.2869 167.224 76.7049 167.389 77.1392 167.389H95.3822C95.8157 167.385 96.2323 167.22 96.5516 166.927C96.7033 166.785 96.8245 166.613 96.9079 166.422C96.9913 166.231 97.0352 166.025 97.037 165.817V151.669C97.0362 151.461 96.9928 151.255 96.9093 151.064C96.8259 150.873 96.7041 150.701 96.5516 150.559C96.2348 150.262 95.8166 150.097 95.3822 150.097ZM82.6121 160.47C82.6986 160.53 82.7717 160.607 82.8271 160.697C82.8824 160.786 82.9187 160.886 82.9337 160.99C82.9511 161.093 82.9465 161.198 82.9203 161.299C82.8941 161.399 82.8469 161.493 82.7816 161.575C82.6445 161.746 82.4464 161.858 82.2286 161.888C82.0108 161.917 81.79 161.862 81.6122 161.732L78.2969 159.395C78.1942 159.322 78.1101 159.226 78.0513 159.114C77.9929 159.007 77.9627 158.886 77.9636 158.764C77.9642 158.64 77.9948 158.519 78.0528 158.41C78.1109 158.301 78.1947 158.208 78.2969 158.138L81.6122 155.801C81.7914 155.676 82.0111 155.623 82.2277 155.652C82.4443 155.681 82.6421 155.791 82.7816 155.959C82.8459 156.04 82.8926 156.134 82.9188 156.235C82.9449 156.336 82.95 156.44 82.9337 156.543C82.9179 156.646 82.8813 156.745 82.826 156.833C82.7707 156.922 82.6979 156.998 82.6121 157.057L80.1797 158.81L82.6121 160.47ZM88.7165 153.458L85.4011 164.461C85.3725 164.562 85.3227 164.656 85.255 164.736C85.187 164.819 85.1037 164.889 85.0094 164.941C84.9132 164.994 84.8073 165.028 84.6978 165.04C84.5884 165.052 84.4776 165.042 84.3721 165.011C84.2669 164.982 84.1679 164.934 84.0797 164.87C83.9932 164.806 83.9215 164.725 83.8692 164.631C83.8172 164.539 83.7853 164.438 83.7756 164.333C83.765 164.231 83.775 164.127 83.8049 164.029L87.1202 153.025C87.1878 152.826 87.3304 152.66 87.5178 152.564C87.7108 152.464 87.9343 152.441 88.1435 152.499C88.3493 152.552 88.5258 152.685 88.6346 152.867C88.6894 152.954 88.7249 153.052 88.7391 153.154C88.7532 153.255 88.7455 153.359 88.7165 153.458ZM94.2245 159.371L90.9033 161.709C90.7337 161.83 90.5255 161.884 90.3186 161.861C90.1034 161.834 89.9079 161.722 89.7748 161.551C89.7076 161.471 89.6586 161.377 89.6313 161.276C89.6041 161.175 89.5992 161.07 89.6169 160.967C89.6319 160.863 89.6682 160.763 89.7235 160.673C89.7789 160.584 89.852 160.507 89.9385 160.447L92.3709 158.694L89.9385 156.94C89.8522 156.879 89.7787 156.802 89.7222 156.713C89.6675 156.625 89.6316 156.528 89.6169 156.426C89.5934 156.324 89.5934 156.218 89.6169 156.117C89.6435 156.016 89.6913 155.922 89.7573 155.842C89.8914 155.673 90.0868 155.564 90.301 155.538C90.4073 155.517 90.5164 155.517 90.6227 155.538C90.7266 155.567 90.8253 155.612 90.915 155.672L94.2362 158.01C94.3367 158.081 94.4189 158.175 94.4759 158.285C94.5336 158.392 94.5637 158.513 94.5636 158.635C94.5645 158.758 94.5343 158.878 94.4759 158.986C94.429 159.135 94.3421 159.268 94.2245 159.371Z" fill="#2E3132"/>
<path d="M77.5835 168.85H78.4664C78.5508 168.848 78.6323 168.88 78.6936 168.938C78.7548 168.996 78.7908 169.076 78.7939 169.16V169.995C78.7908 170.08 78.7548 170.159 78.6936 170.217C78.6323 170.275 78.5508 170.307 78.4664 170.305H77.5835C77.4992 170.307 77.4177 170.275 77.3564 170.217C77.2952 170.159 77.2591 170.08 77.2561 169.995V169.16C77.2591 169.076 77.2952 168.996 77.3564 168.938C77.4177 168.88 77.4992 168.848 77.5835 168.85Z" fill="#2E3132"/>
<path d="M68.1579 175.944C67.6404 175.95 67.1258 175.865 66.6377 175.693C66.1944 175.534 65.7856 175.292 65.4332 174.98C65.0897 174.677 64.8147 174.305 64.6263 173.888C64.4379 173.471 64.3404 173.018 64.3404 172.561C64.3404 172.103 64.4379 171.651 64.6263 171.234C64.8147 170.816 65.0897 170.444 65.4332 170.141C65.7858 169.83 66.1946 169.588 66.6377 169.429C67.1198 169.257 67.6286 169.172 68.1404 169.177C68.6523 169.171 69.1613 169.256 69.6431 169.429C70.076 169.587 70.4734 169.829 70.8125 170.141C71.1521 170.44 71.425 170.806 71.6136 171.217C71.8092 171.637 71.9071 172.097 71.9001 172.561C71.9046 173.028 71.8068 173.491 71.6136 173.917C71.4235 174.326 71.1508 174.692 70.8125 174.992C70.4702 175.297 70.0735 175.535 69.6431 175.693C69.167 175.865 68.664 175.95 68.1579 175.944ZM68.1579 174.653C68.4472 174.657 68.7346 174.607 69.0058 174.507C69.2641 174.41 69.5006 174.263 69.7016 174.074C69.8964 173.886 70.0498 173.659 70.1518 173.408C70.2669 173.141 70.3247 172.852 70.3214 172.561C70.3239 172.268 70.2662 171.977 70.1518 171.708C70.0475 171.458 69.8931 171.232 69.6979 171.044C69.5028 170.856 69.2713 170.71 69.0175 170.615C68.461 170.42 67.8549 170.42 67.2984 170.615C67.0454 170.712 66.8147 170.859 66.6202 171.047C66.4214 171.234 66.2623 171.458 66.1524 171.708C65.9421 172.255 65.9421 172.861 66.1524 173.408C66.2602 173.662 66.4199 173.891 66.6212 174.081C66.8226 174.27 67.0612 174.415 67.3218 174.507C67.586 174.603 67.865 174.652 68.1463 174.653H68.1579Z" fill="#2E3132"/>
<path d="M73.0228 175.833V170.802H74.5196V172.222L74.3091 171.813C74.4597 171.463 74.7289 171.177 75.0693 171.006C75.4643 170.809 75.9024 170.712 76.3439 170.726V172.076H76.1685H75.999C75.6248 172.057 75.2574 172.18 74.9699 172.421C74.8323 172.557 74.7265 172.722 74.6598 172.904C74.5931 173.085 74.5672 173.28 74.5839 173.472V175.851L73.0228 175.833Z" fill="#2E3132"/>
<path d="M77.2444 175.833V170.802H78.788V175.833H77.2444Z" fill="#2E3132"/>
<path d="M87.0208 170.726C87.4073 170.718 87.7901 170.802 88.1376 170.971C88.4643 171.129 88.7339 171.384 88.9094 171.702C89.1131 172.086 89.2119 172.518 89.1959 172.952V175.833H87.6523V173.174C87.6797 172.853 87.5835 172.533 87.3833 172.28C87.2869 172.181 87.1701 172.103 87.041 172.053C86.9118 172.002 86.7733 171.98 86.6349 171.988C86.4303 171.989 86.2291 172.041 86.0502 172.14C85.8691 172.236 85.7236 172.388 85.635 172.572C85.5288 172.803 85.4787 173.055 85.4889 173.309V175.833H83.9452V173.174C83.9713 172.854 83.8776 172.535 83.6821 172.28C83.5868 172.181 83.4711 172.103 83.3429 172.053C83.2147 172.002 83.0771 171.98 82.9395 171.988C82.7349 171.989 82.5337 172.041 82.3548 172.14C82.1737 172.236 82.0282 172.388 81.9396 172.572C81.8334 172.803 81.7834 173.055 81.7935 173.309V175.833H80.2498V170.802H81.7233V172.175L81.4485 171.778C81.6209 171.444 81.8926 171.173 82.2262 171.001C82.5873 170.814 82.9891 170.719 83.3956 170.726C83.8463 170.717 84.2897 170.841 84.6702 171.082C84.8574 171.203 85.0184 171.359 85.144 171.543C85.2695 171.727 85.3569 171.934 85.4011 172.152L84.8574 172.011C85.0352 171.617 85.3342 171.289 85.7111 171.076C86.1086 170.845 86.5608 170.724 87.0208 170.726Z" fill="#2E3132"/>
<path d="M93.1427 175.909C92.6183 175.917 92.0995 175.801 91.6283 175.57C91.2098 175.359 90.8532 175.043 90.5934 174.653C90.3404 174.253 90.2103 173.788 90.2192 173.315C90.2094 172.843 90.3396 172.38 90.5934 171.982C90.8501 171.589 91.2075 171.273 91.6283 171.065C92.0995 170.835 92.6183 170.718 93.1427 170.726C93.6615 170.719 94.1745 170.835 94.6396 171.065C95.0634 171.265 95.4236 171.579 95.6804 171.971C95.9255 172.375 96.0551 172.839 96.0551 173.312C96.0551 173.785 95.9255 174.248 95.6804 174.653C95.4227 175.047 95.0631 175.364 94.6396 175.57C94.1745 175.8 93.6615 175.916 93.1427 175.909ZM93.1427 174.711C93.3834 174.714 93.6208 174.656 93.8327 174.542C94.0363 174.431 94.2045 174.265 94.318 174.063C94.4401 173.833 94.5006 173.575 94.4934 173.315C94.5014 173.056 94.4409 172.8 94.318 172.572C94.2045 172.37 94.0363 172.204 93.8327 172.093C93.6208 171.979 93.3834 171.921 93.1427 171.924C92.9002 171.921 92.661 171.979 92.4469 172.093C92.2415 172.204 92.0714 172.37 91.9558 172.572C91.8329 172.8 91.7723 173.056 91.7803 173.315C91.7732 173.575 91.8337 173.833 91.9558 174.063C92.0714 174.265 92.2415 174.431 92.4469 174.542C92.661 174.656 92.9002 174.714 93.1427 174.711Z" fill="#2E3132"/>
<path d="M99.3232 175.909C98.92 175.915 98.5207 175.831 98.1537 175.664C97.8173 175.506 97.5376 175.249 97.3527 174.927C97.1471 174.531 97.0484 174.088 97.0662 173.642V170.802H98.604V173.431C98.577 173.764 98.6774 174.094 98.8846 174.355C98.9901 174.455 99.1151 174.533 99.2519 174.583C99.3887 174.634 99.5343 174.655 99.6798 174.647C99.9004 174.651 100.119 174.603 100.317 174.507C100.503 174.403 100.653 174.246 100.75 174.057C100.862 173.818 100.916 173.555 100.908 173.291V170.802H102.446V175.833H100.984V174.448L101.253 174.852C101.084 175.196 100.806 175.475 100.463 175.646C100.11 175.825 99.7189 175.915 99.3232 175.909Z" fill="#2E3132"/>
<path d="M105.65 175.909C105.207 175.909 104.765 175.858 104.334 175.757C103.989 175.677 103.658 175.545 103.352 175.366L103.861 174.32C104.132 174.471 104.421 174.588 104.72 174.67C105.042 174.757 105.374 174.802 105.708 174.805C105.966 174.823 106.224 174.781 106.463 174.682C106.528 174.653 106.584 174.605 106.624 174.545C106.663 174.485 106.684 174.415 106.685 174.343C106.686 174.287 106.669 174.233 106.638 174.187C106.607 174.141 106.562 174.105 106.509 174.086C106.367 174.012 106.213 173.964 106.053 173.946C105.866 173.911 105.656 173.881 105.422 173.852L104.743 173.73C104.523 173.676 104.311 173.594 104.112 173.484C103.923 173.382 103.763 173.236 103.644 173.057C103.526 172.843 103.469 172.601 103.48 172.356C103.474 172.051 103.575 171.753 103.767 171.515C103.991 171.246 104.284 171.044 104.615 170.93C105.039 170.779 105.486 170.705 105.936 170.714C106.308 170.716 106.678 170.755 107.041 170.831C107.371 170.886 107.69 170.997 107.983 171.158L107.468 172.193C107.22 172.067 106.954 171.982 106.679 171.941C106.434 171.884 106.182 171.854 105.93 171.854C105.674 171.838 105.417 171.884 105.182 171.988C105.114 172.015 105.056 172.06 105.013 172.119C104.971 172.179 104.946 172.249 104.942 172.321C104.941 172.379 104.957 172.436 104.987 172.486C105.017 172.535 105.06 172.575 105.112 172.602C105.258 172.674 105.413 172.725 105.574 172.754C105.767 172.789 105.971 172.824 106.199 172.853C106.432 172.88 106.662 172.921 106.889 172.976C107.106 173.029 107.315 173.111 107.509 173.221C107.699 173.319 107.86 173.464 107.977 173.642C108.103 173.849 108.164 174.089 108.152 174.331C108.155 174.635 108.05 174.929 107.854 175.161C107.629 175.433 107.331 175.636 106.995 175.746C106.56 175.88 106.104 175.935 105.65 175.909Z" fill="#2E3132"/>
<path d="M96.5926 145.931L96.0079 147.1L94.7449 147.649L96.0079 148.198L96.5926 149.367L97.1773 148.198L98.4403 147.649L97.1773 147.1M91.9967 147.211L90.8273 149.607L88.2955 150.699L90.8273 151.786L91.9967 154.182L93.1662 151.786L95.698 150.699L93.1662 149.607M96.616 152.003L96.0312 153.201L94.7683 153.75L96.0312 154.293L96.616 155.462L97.2007 154.293L98.4637 153.75L97.2007 153.201" fill="#565494"/>
</g>
<defs>
<clipPath id="clip0_20_10">
<rect width="250" height="413" fill="white" transform="matrix(-1 0 0 1 250 0.719971)"/>
</clipPath>
</defs>
</svg>
