<svg width="500" height="528" viewBox="0 0 500 528" fill="none" xmlns="http://www.w3.org/2000/svg">
<path d="M376.873 158.98H122.156C116.015 158.98 110.125 161.423 105.782 165.77C101.44 170.118 99 176.015 99 182.164V390.816C99 396.965 101.44 402.862 105.782 407.21C110.125 411.557 116.015 414 122.156 414H376.873C383.014 414 388.904 411.557 393.246 407.21C397.589 402.862 400.029 396.965 400.029 390.816V182.164C400.029 176.015 397.589 170.118 393.246 165.77C388.904 161.423 383.014 158.98 376.873 158.98ZM198.571 311.992C201.028 313.837 202.652 316.583 203.086 319.626C203.52 322.67 202.729 325.761 200.887 328.221C199.044 330.68 196.301 332.306 193.262 332.741C190.222 333.176 187.134 332.384 184.677 330.539L138.365 295.763C136.927 294.684 135.76 293.284 134.956 291.674C134.153 290.064 133.734 288.29 133.734 286.49C133.734 284.69 134.153 282.916 134.956 281.306C135.76 279.696 136.927 278.296 138.365 277.217L184.677 242.441C187.134 240.597 190.222 239.805 193.262 240.239C196.301 240.674 199.044 242.3 200.887 244.76C202.729 247.219 203.52 250.311 203.086 253.354C202.652 256.397 201.028 259.143 198.571 260.988L164.604 286.49L198.571 311.992ZM283.8 208.535L237.488 370.82C237.093 372.31 236.406 373.706 235.466 374.926C234.526 376.147 233.352 377.167 232.014 377.928C230.675 378.689 229.198 379.175 227.67 379.358C226.142 379.541 224.592 379.417 223.112 378.993C221.632 378.569 220.252 377.854 219.051 376.889C217.85 375.925 216.854 374.731 216.12 373.376C215.386 372.021 214.929 370.534 214.776 369C214.623 367.467 214.777 365.918 215.229 364.445L261.541 202.16C262.431 199.258 264.423 196.821 267.088 195.374C269.753 193.926 272.878 193.583 275.793 194.418C278.708 195.253 281.18 197.199 282.677 199.839C284.174 202.479 284.577 205.601 283.8 208.535ZM360.663 295.763L314.351 330.539C311.895 332.384 308.807 333.176 305.767 332.741C302.727 332.306 299.984 330.68 298.142 328.221C296.3 325.761 295.509 322.67 295.943 319.626C296.377 316.583 298.001 313.837 300.458 311.992L334.425 286.49L300.458 260.988C299.241 260.075 298.217 258.93 297.442 257.621C296.667 256.311 296.158 254.861 295.943 253.354C295.728 251.847 295.811 250.312 296.189 248.838C296.566 247.363 297.23 245.977 298.142 244.76C299.054 243.542 300.197 242.516 301.506 241.74C302.814 240.965 304.262 240.455 305.767 240.239C307.272 240.024 308.805 240.108 310.278 240.485C311.751 240.863 313.135 241.528 314.351 242.441L360.663 277.217C362.101 278.296 363.268 279.696 364.072 281.306C364.876 282.916 365.295 284.69 365.295 286.49C365.295 288.29 364.876 290.064 364.072 291.674C363.268 293.284 362.101 294.684 360.663 295.763Z" fill="white"/>
<path d="M416.126 114L408.028 131.674L390.418 139.708L408.028 147.806L416.126 165.415L424.16 147.806L441.834 139.708L424.16 131.674M351.857 133.281L335.789 168.629L300.441 184.696L335.789 200.763L351.857 236.111L367.924 200.763L403.272 184.696L367.924 168.629M416.126 203.977L408.028 221.587L390.418 229.685L408.028 237.718L416.126 255.392L424.16 237.718L441.834 229.685L424.16 221.587" fill="#D46C4E"/>
</svg>
