<svg width="40" height="40" viewBox="0 0 40 40" fill="none" xmlns="http://www.w3.org/2000/svg">
<path id="Teregram" d="M19.9932 0C8.94744 0 -0.00683594 8.95427 -0.00683594 20C-0.00683594 31.0457 8.94744 40 19.9932 40C31.0389 40 39.9932 31.0457 39.9932 20C39.9932 8.95427 31.0389 0 19.9932 0ZM29.2635 13.6016C28.9625 16.7641 27.6602 24.4385 26.9974 27.9806C26.717 29.4794 26.1649 29.9819 25.6306 30.031C24.4693 30.138 23.5872 29.2635 22.4623 28.5261C20.702 27.3723 19.7076 26.6539 17.9989 25.528C16.0243 24.2268 17.3044 23.5119 18.4297 22.3425C18.7242 22.0366 23.8416 17.382 23.9406 16.9598C23.9529 16.9069 23.9648 16.7098 23.8475 16.6062C23.7303 16.5027 23.558 16.5377 23.4334 16.5659C23.2569 16.606 20.4449 18.4646 14.9973 22.1419C14.1992 22.6899 13.4762 22.957 12.8284 22.943C12.1143 22.9276 10.7407 22.5393 9.71945 22.2073C8.46695 21.8002 7.47147 21.5849 7.55816 20.8935C7.60332 20.5333 8.09929 20.165 9.04607 19.7886C14.8765 17.2484 18.7643 15.5737 20.7096 14.7644C26.2638 12.4542 27.4179 12.0529 28.1702 12.0395C28.3357 12.0368 28.7056 12.0777 28.9452 12.2722C29.1046 12.4107 29.2062 12.604 29.2299 12.8138C29.2705 13.0743 29.2817 13.3386 29.2635 13.6016Z" fill="#AB573F"/>
</svg>
