<svg width="51" height="51" viewBox="0 0 51 51" fill="none" xmlns="http://www.w3.org/2000/svg">
<path d="M25.2413 0.719971C11.4342 0.719971 0.241348 11.9128 0.241348 25.72C0.241348 39.5271 11.4342 50.72 25.2413 50.72C39.0485 50.72 50.2413 39.5271 50.2413 25.72C50.2413 11.9128 39.0485 0.719971 25.2413 0.719971ZM36.8293 17.722C36.453 21.6751 34.8251 31.2682 33.9966 35.6958C33.6462 37.5692 32.9561 38.1974 32.2881 38.2588C30.8365 38.3925 29.7339 37.2994 28.3277 36.3776C26.1274 34.9353 24.8844 34.0374 22.7485 32.6299C20.2803 31.0034 21.8804 30.1098 23.287 28.6481C23.6552 28.2657 30.0518 22.4475 30.1756 21.9197C30.191 21.8536 30.2059 21.6072 30.0593 21.4777C29.9127 21.3483 29.6974 21.3921 29.5417 21.4273C29.321 21.4775 25.806 23.8008 18.9965 28.3973C17.9988 29.0824 17.0951 29.4162 16.2854 29.3987C15.3928 29.3794 13.6757 28.8941 12.3992 28.479C10.8336 27.9702 9.58923 27.7011 9.6976 26.8368C9.75405 26.3865 10.374 25.9262 11.5575 25.4558C18.8455 22.2805 23.7053 20.1871 26.1369 19.1755C33.0797 16.2877 34.5223 15.7861 35.4626 15.7694C35.6695 15.7659 36.1319 15.8171 36.4314 16.0602C36.6306 16.2333 36.7576 16.4749 36.7872 16.7372C36.838 17.0629 36.8521 17.3932 36.8293 17.722Z" fill="#2B2D6E"/>
</svg>
