<svg width="21" height="20" viewBox="0 0 21 20" fill="none" xmlns="http://www.w3.org/2000/svg">
<rect x="0.503418" width="20" height="20" rx="10" fill="#837676"/>
<path d="M13.7734 11.5C13.8334 11.005 13.8784 10.51 13.8784 10C13.8784 9.49 13.8334 8.995 13.7734 8.5H16.3084C16.4284 8.98 16.5034 9.4825 16.5034 10C16.5034 10.5175 16.4284 11.02 16.3084 11.5M12.4459 15.67C12.8959 14.8375 13.2409 13.9375 13.4809 13H15.6934C14.9668 14.2512 13.814 15.199 12.4459 15.67ZM12.2584 11.5H8.74842C8.67342 11.005 8.62842 10.51 8.62842 10C8.62842 9.49 8.67342 8.9875 8.74842 8.5H12.2584C12.3259 8.9875 12.3784 9.49 12.3784 10C12.3784 10.51 12.3259 11.005 12.2584 11.5ZM10.5034 15.97C9.88092 15.07 9.37842 14.0725 9.07092 13H11.9359C11.6284 14.0725 11.1259 15.07 10.5034 15.97ZM7.50342 7H5.31342C6.03256 5.74541 7.18451 4.79611 8.55342 4.33C8.10342 5.1625 7.76592 6.0625 7.50342 7ZM5.31342 13H7.50342C7.76592 13.9375 8.10342 14.8375 8.55342 15.67C7.18739 15.1987 6.03705 14.2508 5.31342 13ZM4.69842 11.5C4.57842 11.02 4.50342 10.5175 4.50342 10C4.50342 9.4825 4.57842 8.98 4.69842 8.5H7.23342C7.17342 8.995 7.12842 9.49 7.12842 10C7.12842 10.51 7.17342 11.005 7.23342 11.5M10.5034 4.0225C11.1259 4.9225 11.6284 5.9275 11.9359 7H9.07092C9.37842 5.9275 9.88092 4.9225 10.5034 4.0225ZM15.6934 7H13.4809C13.2462 6.07109 12.8986 5.17442 12.4459 4.33C13.8259 4.8025 14.9734 5.755 15.6934 7ZM10.5034 2.5C6.35592 2.5 3.00342 5.875 3.00342 10C3.00342 11.9891 3.79359 13.8968 5.20012 15.3033C5.89656 15.9997 6.72335 16.5522 7.63329 16.9291C8.54323 17.306 9.5185 17.5 10.5034 17.5C12.4925 17.5 14.4002 16.7098 15.8067 15.3033C17.2132 13.8968 18.0034 11.9891 18.0034 10C18.0034 9.01509 17.8094 8.03982 17.4325 7.12987C17.0556 6.21993 16.5032 5.39314 15.8067 4.6967C15.1103 4.00026 14.2835 3.44781 13.3735 3.0709C12.4636 2.69399 11.4883 2.5 10.5034 2.5Z" fill="#263E35"/>
</svg>
